<svg width="349" height="349" viewBox="0 0 349 349" fill="none" xmlns="http://www.w3.org/2000/svg">
<path d="M314.032 278.146H290.914V278.32H314.032V278.146Z" fill="#EBEBEB"/>
<path d="M231.191 280.045H225.125V280.219H231.191V280.045Z" fill="#EBEBEB"/>
<path d="M290.215 271.669H276.82V271.844H290.215V271.669Z" fill="#EBEBEB"/>
<path d="M66.7638 272.841H36.6172V273.016H66.7638V272.841Z" fill="#EBEBEB"/>
<path d="M77.4027 272.841H72.9844V273.016H77.4027V272.841Z" fill="#EBEBEB"/>
<path d="M157.154 275.787H91.7656V275.962H157.154V275.787Z" fill="#EBEBEB"/>
<path d="M165.427 235.785H30.6575C29.6004 235.785 28.5867 235.365 27.8392 234.617C27.0918 233.87 26.6719 232.856 26.6719 231.799V42.3408C26.6811 41.2898 27.105 40.285 27.8515 39.5451C28.5979 38.8052 29.6064 38.3901 30.6575 38.3901H165.427C166.484 38.3901 167.498 38.81 168.246 39.5575C168.993 40.3049 169.413 41.3187 169.413 42.3757V231.799C169.413 232.856 168.993 233.87 168.246 234.617C167.498 235.365 166.484 235.785 165.427 235.785ZM30.6575 38.5297C29.6473 38.5316 28.679 38.9337 27.9647 39.648C27.2503 40.3623 26.8482 41.3306 26.8464 42.3408V231.799C26.8482 232.809 27.2503 233.777 27.9647 234.492C28.679 235.206 29.6473 235.608 30.6575 235.61H165.427C166.438 235.608 167.406 235.206 168.12 234.492C168.834 233.777 169.237 232.809 169.238 231.799V42.3408C169.237 41.3306 168.834 40.3623 168.12 39.648C167.406 38.9337 166.438 38.5316 165.427 38.5297H30.6575Z" fill="#EBEBEB"/>
<path d="M316.41 235.785H181.626C180.57 235.783 179.557 235.362 178.81 234.615C178.063 233.868 177.642 232.855 177.641 231.799V42.3408C177.652 41.2904 178.076 40.2867 178.822 39.5471C179.568 38.8076 180.576 38.3919 181.626 38.3901H316.41C317.459 38.3938 318.464 38.8105 319.207 39.55C319.95 40.2895 320.372 41.2922 320.382 42.3408V231.799C320.382 232.854 319.964 233.865 319.219 234.612C318.475 235.359 317.465 235.781 316.41 235.785ZM181.626 38.5297C180.616 38.5316 179.648 38.9337 178.933 39.648C178.219 40.3623 177.817 41.3306 177.815 42.3408V231.799C177.817 232.809 178.219 233.777 178.933 234.492C179.648 235.206 180.616 235.608 181.626 235.61H316.41C317.42 235.608 318.388 235.206 319.103 234.492C319.817 233.777 320.219 232.809 320.221 231.799V42.3408C320.219 41.3306 319.817 40.3623 319.103 39.648C318.388 38.9337 317.42 38.5316 316.41 38.5297H181.626Z" fill="#EBEBEB"/>
<path d="M349 266.916H0V267.09H349V266.916Z" fill="#EBEBEB"/>
<path d="M150.25 70.9658C149.838 70.9649 149.429 71.0455 149.047 71.203C148.666 71.3606 148.319 71.5919 148.027 71.8838C147.735 72.1756 147.504 72.5222 147.347 72.9037C147.189 73.2852 147.108 73.6941 147.109 74.1068V79.5722H153.391V74.1068C153.392 73.6941 153.312 73.2852 153.154 72.9037C152.997 72.5222 152.765 72.1756 152.473 71.8838C152.182 71.5919 151.835 71.3606 151.453 71.203C151.072 71.0455 150.663 70.9649 150.25 70.9658ZM150.25 75.5587C150.054 75.5587 149.863 75.5005 149.7 75.3916C149.537 75.2827 149.41 75.1279 149.335 74.9468C149.26 74.7657 149.24 74.5664 149.278 74.3741C149.317 74.1819 149.411 74.0053 149.55 73.8666C149.688 73.728 149.865 73.6336 150.057 73.5954C150.249 73.5572 150.449 73.5768 150.63 73.6518C150.811 73.7268 150.966 73.8539 151.075 74.0169C151.183 74.1798 151.242 74.3715 151.242 74.5675C151.242 74.8304 151.137 75.0825 150.951 75.2684C150.765 75.4542 150.513 75.5587 150.25 75.5587Z" fill="#E0E0E0"/>
<path d="M279.383 70.9658C278.97 70.9649 278.562 71.0455 278.18 71.203C277.799 71.3606 277.452 71.5919 277.16 71.8838C276.868 72.1756 276.637 72.5222 276.479 72.9037C276.322 73.2852 276.241 73.6941 276.242 74.1068V79.5722H282.524V74.1068C282.525 73.6941 282.445 73.2852 282.287 72.9037C282.129 72.5222 281.898 72.1756 281.606 71.8838C281.314 71.5919 280.968 71.3606 280.586 71.203C280.205 71.0455 279.796 70.9649 279.383 70.9658ZM279.383 75.5587C279.187 75.5587 278.996 75.5005 278.833 75.3916C278.67 75.2827 278.543 75.1279 278.467 74.9468C278.392 74.7657 278.373 74.5664 278.411 74.3741C278.449 74.1819 278.544 74.0053 278.682 73.8666C278.821 73.728 278.998 73.6336 279.19 73.5954C279.382 73.5572 279.581 73.5768 279.763 73.6518C279.944 73.7268 280.098 73.8539 280.207 74.0169C280.316 74.1798 280.374 74.3715 280.374 74.5675C280.374 74.6977 280.349 74.8266 280.299 74.9468C280.249 75.0671 280.176 75.1763 280.084 75.2684C279.992 75.3604 279.883 75.4334 279.763 75.4832C279.642 75.533 279.513 75.5587 279.383 75.5587Z" fill="#E0E0E0"/>
<path d="M297.152 77.478H132.473V171.924H297.152V77.478Z" fill="#EBEBEB"/>
<path d="M292.617 82.0151H137.012V167.388H292.617V82.0151Z" fill="#F5F5F5"/>
<path d="M300.209 168.721H129.43V175.896H300.209V168.721Z" fill="#F0F0F0"/>
<path d="M184.968 97.022H155.652V145.882H273.963V97.022H184.968ZM251.02 121.103H229.473V113.774H251.027L251.02 121.103ZM251.02 129.13H229.473V121.801H251.027L251.02 129.13ZM251.02 137.157H229.473V129.828H251.027L251.02 137.157ZM164.384 129.828H184.27V137.157H164.377L164.384 129.828ZM164.384 121.801H184.27V129.13H164.377L164.384 121.801ZM164.384 113.774H184.27V121.103H164.377L164.384 113.774ZM164.384 105.747H184.27V113.076H164.377L164.384 105.747ZM228.775 121.103H207.228V113.774H228.775V121.103ZM228.775 129.13H207.228V121.801H228.775V129.13ZM184.968 121.801H206.523V129.13H184.968V121.801ZM206.523 121.103H184.968V113.774H206.523V121.103ZM184.968 129.828H206.523V137.157H184.968V129.828ZM207.221 129.828H228.768V137.157H207.228L207.221 129.828ZM228.768 113.076H184.968V105.747H228.768V113.076ZM156.35 97.72H184.27V105.049H156.35V97.72ZM156.35 105.747H163.679V113.076H156.35V105.747ZM156.35 113.774H163.679V121.103H156.35V113.774ZM156.35 121.801H163.679V129.13H156.35V121.801ZM156.35 129.828H163.679V137.157H156.35V129.828ZM163.679 145.184H156.35V137.855H163.679V145.184ZM184.27 145.184H164.377V137.855H184.27V145.184ZM206.523 145.184H184.968V137.855H206.523V145.184ZM228.768 145.184H207.228V137.855H228.775L228.768 145.184ZM251.02 145.184H229.473V137.855H251.027L251.02 145.184ZM273.265 145.184H251.725V137.855H273.272L273.265 145.184ZM273.265 137.157H251.725V129.828H273.272L273.265 137.157ZM273.265 129.13H251.725V121.801H273.272L273.265 129.13ZM273.265 121.103H251.725V113.774H273.272L273.265 121.103ZM273.265 113.076H229.473V105.747H273.272L273.265 113.076ZM229.466 105.049H184.968V97.72H273.265V105.049H229.466Z" fill="#E0E0E0"/>
<path d="M62.8144 135.3H47.1094V267.208H62.8144V135.3Z" fill="#E0E0E0"/>
<path d="M105.183 135.3H61.0977V267.208H105.183V135.3Z" fill="#EBEBEB"/>
<path d="M100.692 139.789H65.5898V174.891H100.692V139.789Z" fill="#FAFAFA"/>
<path d="M92.6386 160.443H73.646C73.5189 160.444 73.3929 160.419 73.2752 160.371C73.1576 160.323 73.0506 160.253 72.9604 160.163C72.8702 160.073 72.7986 159.967 72.7498 159.85C72.7009 159.732 72.6758 159.606 72.6758 159.479C72.6758 159.352 72.7009 159.226 72.7498 159.109C72.7986 158.992 72.8702 158.885 72.9604 158.796C73.0506 158.706 73.1576 158.635 73.2752 158.587C73.3929 158.539 73.5189 158.515 73.646 158.516H92.6386C92.8941 158.516 93.1391 158.618 93.3197 158.798C93.5003 158.979 93.6018 159.224 93.6018 159.479C93.6018 159.735 93.5003 159.98 93.3197 160.161C93.1391 160.341 92.8941 160.443 92.6386 160.443Z" fill="#E0E0E0"/>
<path d="M92.6386 164.302H73.646C73.3887 164.302 73.1419 164.2 72.96 164.018C72.778 163.836 72.6758 163.589 72.6758 163.332C72.6758 163.205 72.7009 163.079 72.7498 162.962C72.7986 162.844 72.8702 162.738 72.9604 162.648C73.0506 162.559 73.1576 162.488 73.2752 162.44C73.3929 162.392 73.5189 162.368 73.646 162.369H92.6386C92.8941 162.369 93.139 162.47 93.3197 162.651C93.5003 162.831 93.6018 163.076 93.6018 163.332C93.6027 163.459 93.5785 163.585 93.5305 163.703C93.4825 163.82 93.4117 163.927 93.3222 164.018C93.2326 164.108 93.1261 164.179 93.0088 164.228C92.8915 164.277 92.7657 164.302 92.6386 164.302Z" fill="#E0E0E0"/>
<path d="M92.6386 168.156H73.646C73.5189 168.156 73.3929 168.132 73.2752 168.084C73.1576 168.036 73.0506 167.965 72.9604 167.876C72.8702 167.786 72.7986 167.68 72.7498 167.563C72.7009 167.445 72.6758 167.319 72.6758 167.192C72.6758 167.065 72.7009 166.939 72.7498 166.822C72.7986 166.705 72.8702 166.598 72.9604 166.509C73.0506 166.419 73.1576 166.348 73.2752 166.3C73.3929 166.252 73.5189 166.228 73.646 166.229H92.6386C92.8941 166.229 93.1391 166.331 93.3197 166.511C93.5003 166.692 93.6018 166.937 93.6018 167.192C93.6018 167.448 93.5003 167.693 93.3197 167.873C93.1391 168.054 92.8941 168.156 92.6386 168.156Z" fill="#E0E0E0"/>
<path d="M86.8806 153.323H79.398L77.4297 151.348V147.132L79.398 145.156H86.8806L88.8559 147.132V151.348L86.8806 153.323Z" fill="#EBEBEB"/>
<path d="M100.692 178.255H65.5898V213.358H100.692V178.255Z" fill="#FAFAFA"/>
<path d="M92.6386 198.93H73.646C73.5189 198.931 73.3929 198.907 73.2752 198.859C73.1576 198.811 73.0506 198.74 72.9604 198.65C72.8702 198.561 72.7986 198.454 72.7498 198.337C72.7009 198.22 72.6758 198.094 72.6758 197.967C72.6758 197.84 72.7009 197.714 72.7498 197.596C72.7986 197.479 72.8702 197.373 72.9604 197.283C73.0506 197.194 73.1576 197.123 73.2752 197.075C73.3929 197.027 73.5189 197.003 73.646 197.003H92.6386C92.8941 197.003 93.1391 197.105 93.3197 197.286C93.5003 197.466 93.6018 197.711 93.6018 197.967C93.6018 198.222 93.5003 198.467 93.3197 198.648C93.1391 198.828 92.8941 198.93 92.6386 198.93Z" fill="#E0E0E0"/>
<path d="M92.6386 202.762H73.646C73.5189 202.763 73.3929 202.739 73.2752 202.691C73.1576 202.643 73.0506 202.572 72.9604 202.482C72.8702 202.393 72.7986 202.286 72.7498 202.169C72.7009 202.052 72.6758 201.926 72.6758 201.799C72.6758 201.672 72.7009 201.546 72.7498 201.428C72.7986 201.311 72.8702 201.205 72.9604 201.115C73.0506 201.026 73.1576 200.955 73.2752 200.907C73.3929 200.859 73.5189 200.835 73.646 200.835H92.6386C92.8941 200.835 93.1391 200.937 93.3197 201.118C93.5003 201.298 93.6018 201.543 93.6018 201.799C93.6018 202.054 93.5003 202.299 93.3197 202.48C93.1391 202.66 92.8941 202.762 92.6386 202.762Z" fill="#E0E0E0"/>
<path d="M92.6386 206.608H73.646C73.5189 206.609 73.3929 206.585 73.2752 206.537C73.1576 206.489 73.0506 206.418 72.9604 206.329C72.8702 206.239 72.7986 206.132 72.7498 206.015C72.7009 205.898 72.6758 205.772 72.6758 205.645C72.6758 205.518 72.7009 205.392 72.7498 205.275C72.7986 205.157 72.8702 205.051 72.9604 204.961C73.0506 204.872 73.1576 204.801 73.2752 204.753C73.3929 204.705 73.5189 204.681 73.646 204.682H92.6386C92.8941 204.682 93.1391 204.783 93.3197 204.964C93.5003 205.144 93.6018 205.389 93.6018 205.645C93.6018 205.9 93.5003 206.145 93.3197 206.326C93.1391 206.507 92.8941 206.608 92.6386 206.608Z" fill="#E0E0E0"/>
<path d="M86.8806 191.783H79.398L77.4297 189.807V185.598L79.398 183.623H86.8806L88.8559 185.598V189.807L86.8806 191.783Z" fill="#EBEBEB"/>
<path d="M100.692 216.715H65.5898V251.818H100.692V216.715Z" fill="#FAFAFA"/>
<path d="M92.6386 237.369H73.646C73.5189 237.37 73.3929 237.346 73.2752 237.298C73.1576 237.25 73.0506 237.179 72.9604 237.089C72.8702 237 72.7986 236.893 72.7498 236.776C72.7009 236.659 72.6758 236.533 72.6758 236.406C72.6758 236.279 72.7009 236.153 72.7498 236.035C72.7986 235.918 72.8702 235.812 72.9604 235.722C73.0506 235.633 73.1576 235.562 73.2752 235.514C73.3929 235.466 73.5189 235.441 73.646 235.442H92.6386C92.8941 235.442 93.1391 235.544 93.3197 235.725C93.5003 235.905 93.6018 236.15 93.6018 236.406C93.6018 236.661 93.5003 236.906 93.3197 237.087C93.1391 237.267 92.8941 237.369 92.6386 237.369Z" fill="#E0E0E0"/>
<path d="M92.6386 241.229H73.646C73.5189 241.23 73.3929 241.206 73.2752 241.158C73.1576 241.11 73.0506 241.039 72.9604 240.949C72.8702 240.86 72.7986 240.753 72.7498 240.636C72.7009 240.519 72.6758 240.393 72.6758 240.266C72.6758 240.008 72.778 239.762 72.96 239.58C73.1419 239.398 73.3887 239.295 73.646 239.295H92.6386C92.7657 239.295 92.8915 239.321 93.0088 239.369C93.1261 239.418 93.2326 239.49 93.3222 239.58C93.4117 239.67 93.4825 239.777 93.5305 239.895C93.5785 240.013 93.6027 240.139 93.6018 240.266C93.6018 240.521 93.5003 240.766 93.3197 240.947C93.139 241.127 92.8941 241.229 92.6386 241.229Z" fill="#E0E0E0"/>
<path d="M92.6386 245.082H73.646C73.5189 245.083 73.3929 245.058 73.2752 245.01C73.1576 244.962 73.0506 244.892 72.9604 244.802C72.8702 244.713 72.7986 244.606 72.7498 244.489C72.7009 244.371 72.6758 244.246 72.6758 244.119C72.6758 243.991 72.7009 243.866 72.7498 243.748C72.7986 243.631 72.8702 243.524 72.9604 243.435C73.0506 243.345 73.1576 243.275 73.2752 243.227C73.3929 243.179 73.5189 243.154 73.646 243.155H92.6386C92.8941 243.155 93.1391 243.257 93.3197 243.437C93.5003 243.618 93.6018 243.863 93.6018 244.119C93.6018 244.374 93.5003 244.619 93.3197 244.8C93.1391 244.98 92.8941 245.082 92.6386 245.082Z" fill="#E0E0E0"/>
<path d="M86.8806 230.25H79.398L77.4297 228.274V224.058L79.398 222.083H86.8806L88.8559 224.058V228.274L86.8806 230.25Z" fill="#EBEBEB"/>
<path d="M171.136 295.749C245.88 295.749 306.471 292.212 306.471 287.848C306.471 283.484 245.88 279.947 171.136 279.947C96.3924 279.947 35.8008 283.484 35.8008 287.848C35.8008 292.212 96.3924 295.749 171.136 295.749Z" fill="#F5F5F5"/>
<path d="M82.7826 287.45L65.193 280.973L47.4079 287.457C47.2656 287.509 47.1129 287.525 46.9627 287.505C46.8126 287.486 46.6696 287.43 46.5456 287.343C46.4216 287.256 46.3205 287.14 46.2507 287.006C46.1808 286.872 46.1444 286.722 46.1445 286.571C46.1442 286.392 46.1953 286.216 46.2918 286.065C46.3883 285.914 46.5262 285.794 46.689 285.719L65.193 277.106L83.5085 285.691C83.6707 285.767 83.8081 285.887 83.9045 286.038C84.0009 286.189 84.0524 286.364 84.0529 286.543C84.0569 286.697 84.023 286.85 83.9543 286.988C83.8855 287.125 83.784 287.244 83.6586 287.334C83.5333 287.423 83.3878 287.481 83.2351 287.501C83.0824 287.521 82.927 287.504 82.7826 287.45Z" fill="#263238"/>
<path opacity="0.3" d="M82.7826 287.45L65.193 280.973L47.4079 287.457C47.2656 287.509 47.1129 287.525 46.9627 287.505C46.8126 287.486 46.6696 287.43 46.5456 287.343C46.4216 287.256 46.3205 287.14 46.2507 287.006C46.1808 286.872 46.1444 286.722 46.1445 286.571C46.1442 286.392 46.1953 286.216 46.2918 286.065C46.3883 285.914 46.5262 285.794 46.689 285.719L65.193 277.106L83.5085 285.691C83.6707 285.767 83.8081 285.887 83.9045 286.038C84.0009 286.189 84.0524 286.364 84.0529 286.543C84.0569 286.697 84.023 286.85 83.9543 286.988C83.8855 287.125 83.784 287.244 83.6586 287.334C83.5333 287.423 83.3878 287.481 83.2351 287.501C83.0824 287.521 82.927 287.504 82.7826 287.45Z" fill="white"/>
<path opacity="0.2" d="M61.0469 282.48L65.193 280.973L69.1437 282.432V278.983L65.193 277.134L61.0469 279.053V282.48Z" fill="black"/>
<path d="M65.0965 287.576C64.7073 287.58 64.3305 287.44 64.039 287.182C63.7475 286.924 63.5622 286.567 63.519 286.18L63.0234 280.966V237.69H67.1486V280.966L66.653 286.18C66.6117 286.564 66.4298 286.919 66.1424 287.176C65.8551 287.434 65.4825 287.576 65.0965 287.576Z" fill="#263238"/>
<path opacity="0.3" d="M65.0965 287.576C64.7073 287.58 64.3305 287.44 64.039 287.182C63.7475 286.924 63.5622 286.567 63.519 286.18L63.0234 280.966V237.69H67.1486V280.966L66.653 286.18C66.6117 286.564 66.4298 286.919 66.1424 287.176C65.8551 287.434 65.4825 287.576 65.0965 287.576Z" fill="white"/>
<path opacity="0.2" d="M67.1472 237.683H63.043V242.722H67.1472V237.683Z" fill="black"/>
<path d="M55.8963 193.087C56.2145 193.079 56.5288 193.159 56.8047 193.318C57.0805 193.477 57.3072 193.709 57.4599 193.988C64.9705 206.571 67.6684 221.449 65.0541 235.868C65.0143 236.232 64.8451 236.57 64.5774 236.819C64.3096 237.069 63.9611 237.214 63.5953 237.229C62.4575 237.313 42.2016 237.229 41.4687 237.229C41.1686 237.236 40.8706 237.177 40.5961 237.056C40.3215 236.934 40.0772 236.754 39.8804 236.527C39.6837 236.3 39.5395 236.033 39.4581 235.744C39.3767 235.455 39.3601 235.152 39.4096 234.856C41.7752 221.431 39.2148 207.603 32.1992 195.914C32.037 195.624 31.9549 195.295 31.9613 194.963C31.9677 194.63 32.0624 194.305 32.2356 194.021C32.4089 193.737 32.6545 193.504 32.9474 193.346C33.2403 193.188 33.5698 193.111 33.9024 193.122C34.4887 193.074 54.605 193.108 55.8963 193.087Z" fill="#100E86"/>
<path opacity="0.2" d="M55.8963 193.087C56.2145 193.079 56.5288 193.159 56.8047 193.318C57.0805 193.477 57.3072 193.709 57.4599 193.988C64.9705 206.571 67.6684 221.449 65.0541 235.868C65.0143 236.232 64.8451 236.57 64.5774 236.819C64.3096 237.069 63.9611 237.214 63.5953 237.229C62.4575 237.313 42.2016 237.229 41.4687 237.229C41.1686 237.236 40.8706 237.177 40.5961 237.056C40.3215 236.934 40.0772 236.754 39.8804 236.527C39.6837 236.3 39.5395 236.033 39.4581 235.744C39.3767 235.455 39.3601 235.152 39.4096 234.856C41.7752 221.431 39.2148 207.603 32.1992 195.914C32.037 195.624 31.9549 195.295 31.9613 194.963C31.9677 194.63 32.0624 194.305 32.2356 194.021C32.4089 193.737 32.6545 193.504 32.9474 193.346C33.2403 193.188 33.5698 193.111 33.9024 193.122C34.4887 193.074 54.605 193.108 55.8963 193.087Z" fill="black"/>
<path d="M39.4104 234.842C41.776 221.417 39.2157 207.589 32.2001 195.9C30.9437 193.806 34.2173 191.901 35.4737 193.988C42.9807 206.572 45.6784 221.449 43.068 235.868C42.6352 238.262 38.9777 237.264 39.4104 234.863V234.842Z" fill="#100E86"/>
<g opacity="0.1">
<path opacity="0.1" d="M39.4104 234.842C41.776 221.417 39.2157 207.589 32.2001 195.9C30.9437 193.806 34.2173 191.901 35.4737 193.988C42.9807 206.572 45.6784 221.449 43.068 235.868C42.6352 238.262 38.9777 237.264 39.4104 234.863V234.842Z" fill="white"/>
</g>
<path d="M102.606 233.746C97.9624 232.564 93.1999 231.908 88.4091 231.792C83.4742 231.666 65.0261 231.792 60.6427 231.792C55.2993 231.784 49.9761 232.448 44.7981 233.767C41.5454 234.598 42.5435 239.288 45.4961 239.351C45.7543 239.351 101.545 239.351 101.748 239.351C104.77 239.463 105.894 234.591 102.606 233.746Z" fill="#100E86"/>
<path opacity="0.3" d="M102.606 233.746C97.9624 232.564 93.1999 231.908 88.4091 231.792C83.4742 231.666 65.0261 231.792 60.6427 231.792C55.2993 231.784 49.9761 232.448 44.7981 233.767C41.5454 234.598 42.5435 239.288 45.4961 239.351C45.7543 239.351 101.545 239.351 101.748 239.351C104.77 239.463 105.894 234.591 102.606 233.746Z" fill="black"/>
<path d="M46.2703 239.225C55.676 236.831 65.5315 236.831 74.9372 239.225C78.483 240.126 79.9977 234.646 76.4518 233.746C66.0535 231.108 55.1609 231.108 44.7626 233.746C41.2168 234.646 42.7175 240.126 46.2703 239.225Z" fill="#100E86"/>
<g opacity="0.3">
<path opacity="0.3" d="M46.2703 239.225C55.676 236.831 65.5315 236.831 74.9372 239.225C78.483 240.126 79.9977 234.646 76.4518 233.746C66.0535 231.108 55.1609 231.108 44.7626 233.746C41.2168 234.646 42.7175 240.126 46.2703 239.225Z" fill="white"/>
</g>
<path d="M97.625 204.081L104.04 203.809L105.959 202.58C106.183 202.435 106.434 202.338 106.697 202.295C106.96 202.251 107.229 202.263 107.488 202.329L108.884 202.671C109.236 202.759 109.606 202.748 109.952 202.638C110.299 202.528 110.608 202.325 110.845 202.05C111.036 201.828 111.174 201.566 111.251 201.283C111.327 201.001 111.339 200.705 111.286 200.417C111.233 200.129 111.117 199.857 110.945 199.62C110.773 199.383 110.551 199.188 110.294 199.048L108.2 197.917C107.873 197.739 107.502 197.658 107.131 197.684C106.76 197.71 106.404 197.842 106.106 198.064L102.727 200.563L97.639 200.207L97.625 204.081Z" fill="#EBB376"/>
<path d="M90.6787 179.218L88.4591 198.762L100.946 199.656L100.395 204.144C100.395 204.144 87.768 206.35 83.1403 205.086C78.5126 203.823 84.6759 182.673 84.6759 182.673L90.6787 179.218Z" fill="#100E86"/>
<path opacity="0.2" d="M90.6787 179.218L88.4591 198.762L100.946 199.656L100.395 204.144C100.395 204.144 87.768 206.35 83.1403 205.086C78.5126 203.823 84.6759 182.673 84.6759 182.673L90.6787 179.218Z" fill="white"/>
<path opacity="0.1" d="M86.6722 203.327C83.4125 201.631 87.789 185.361 89.3316 180L84.6759 182.687C84.6759 182.687 78.5126 203.837 83.1403 205.1C85.9881 205.875 91.8513 205.344 95.9486 204.814C93.1566 204.814 89.0733 204.577 86.6722 203.327Z" fill="black"/>
<path d="M79.6282 217.413C70.4087 219.132 61.0067 219.662 51.6523 218.99C51.6523 218.99 53.8022 193.967 61.4243 180.272C62.6369 178.097 64.6342 176.466 67.0083 175.714C72.4807 174.011 81.2824 172.482 90.6496 179.204C90.6775 179.218 85.9381 188.055 79.6282 217.413Z" fill="#100E86"/>
<path opacity="0.4" d="M79.6282 217.413C70.4087 219.132 61.0067 219.662 51.6523 218.99C51.6523 218.99 53.8022 193.967 61.4243 180.272C62.6369 178.097 64.6342 176.466 67.0083 175.714C72.4807 174.011 81.2824 172.482 90.6496 179.204C90.6775 179.218 85.9381 188.055 79.6282 217.413Z" fill="white"/>
<path d="M84.1796 185.452C84.1796 185.601 84.1353 185.746 84.0525 185.87C83.9697 185.994 83.8519 186.091 83.7142 186.148C83.5765 186.205 83.4249 186.22 83.2786 186.191C83.1324 186.162 82.9981 186.09 82.8927 185.985C82.7872 185.879 82.7154 185.745 82.6864 185.599C82.6573 185.452 82.6722 185.301 82.7293 185.163C82.7863 185.025 82.8829 184.908 83.0069 184.825C83.1309 184.742 83.2766 184.698 83.4257 184.698C83.6256 184.698 83.8174 184.777 83.9588 184.919C84.1001 185.06 84.1796 185.252 84.1796 185.452Z" fill="#100E86"/>
<path d="M81.5272 193.136C81.5272 193.285 81.483 193.431 81.4002 193.555C81.3173 193.679 81.1996 193.776 81.0619 193.833C80.9241 193.89 80.7725 193.905 80.6263 193.876C80.4801 193.846 80.3458 193.775 80.2403 193.669C80.1349 193.564 80.0631 193.429 80.034 193.283C80.0049 193.137 80.0199 192.985 80.0769 192.848C80.134 192.71 80.2306 192.592 80.3546 192.509C80.4785 192.427 80.6243 192.382 80.7734 192.382C80.9733 192.382 81.165 192.462 81.3064 192.603C81.4478 192.744 81.5272 192.936 81.5272 193.136Z" fill="#100E86"/>
<path d="M78.3671 204.081C78.7835 204.081 79.121 203.743 79.121 203.327C79.121 202.911 78.7835 202.573 78.3671 202.573C77.9508 202.573 77.6133 202.911 77.6133 203.327C77.6133 203.743 77.9508 204.081 78.3671 204.081Z" fill="#100E86"/>
<path d="M77.1366 211.808C77.1379 211.957 77.0949 212.104 77.0129 212.229C76.9309 212.353 76.8137 212.451 76.6761 212.509C76.5385 212.567 76.3867 212.583 76.24 212.555C76.0933 212.527 75.9583 212.456 75.8522 212.35C75.7461 212.245 75.6736 212.111 75.6439 211.965C75.6143 211.818 75.6288 211.666 75.6856 211.528C75.7425 211.39 75.8391 211.272 75.9632 211.189C76.0873 211.105 76.2333 211.061 76.3827 211.061C76.5814 211.061 76.7721 211.139 76.9133 211.279C77.0545 211.419 77.1347 211.609 77.1366 211.808Z" fill="#100E86"/>
<path opacity="0.1" d="M85.1103 195.126L75.6315 197.262L68.1629 195.209L65.2173 186.792L64.5822 182.059H62.4882C62.4882 182.059 60.4849 197.136 67.3253 203.327C71.5901 207.187 78.5561 204.674 83.1908 202.231C83.8656 199.607 84.5054 197.238 85.1103 195.126Z" fill="black"/>
<path d="M91.2446 262.922L87.957 277.238L92.0403 278.823L97.9175 264.423L91.2446 262.922Z" fill="#EBB376"/>
<path d="M91.8031 277.881L88.0967 275.898C88.0178 275.858 87.9276 275.844 87.8403 275.861C87.753 275.877 87.6737 275.922 87.6151 275.989L84.9697 279.053C84.9126 279.117 84.8687 279.191 84.8406 279.271C84.8125 279.352 84.8007 279.437 84.8059 279.522C84.8111 279.607 84.8332 279.691 84.8709 279.767C84.9086 279.844 84.9612 279.912 85.0255 279.968C85.0592 280 85.0967 280.028 85.1372 280.052C86.6938 280.854 88.1107 281.51 90.0232 282.543C92.2917 283.765 91.5658 283.723 94.2112 285.196C95.8026 286.082 97.08 284.414 96.4448 283.96C93.5481 281.866 93.1572 280.47 92.557 278.697C92.4109 278.344 92.1436 278.055 91.8031 277.881Z" fill="#263238"/>
<path d="M58.1666 218.515L78.1783 217.413C78.1783 217.413 111.48 222.62 110.984 231.931C110.489 241.242 97.0243 270.6 97.0243 270.6L89.081 268.394C89.081 268.394 95.1327 238.876 99.0764 233.983C99.0764 233.983 74.2066 231.065 67.9805 229.411C64.5254 228.497 56.268 230.039 58.1666 218.515Z" fill="#263238"/>
<path opacity="0.2" d="M95.6772 233.579C95.7978 230.818 95.2745 228.068 94.1485 225.545C92.2988 221.357 77.0545 218.851 69.7604 217.867L58.1666 218.502C56.2681 230.026 64.5254 228.483 67.9386 229.398C72.7548 230.689 88.6483 232.72 95.6772 233.579Z" fill="black"/>
<path d="M77.6251 266.866L77.1016 281.545L81.5199 281.755L84.4585 267.076L77.6251 266.866Z" fill="#EBB376"/>
<path d="M81.2066 280.422L76.9209 280.512C76.8303 280.513 76.7427 280.545 76.6737 280.604C76.6048 280.663 76.5588 280.744 76.544 280.833L75.7203 284.868C75.6919 285.039 75.7284 285.215 75.8226 285.361C75.9169 285.506 76.062 285.612 76.2299 285.657H76.3695C78.1563 285.594 79.7338 285.468 81.9535 285.426C84.5779 285.377 83.9148 285.705 87 285.691C88.8567 285.691 89.1568 283.597 88.396 283.479C84.7873 283.095 83.7264 282.013 82.3164 280.75C82.0004 280.505 81.6045 280.388 81.2066 280.422Z" fill="#263238"/>
<path d="M63.5201 218.516C63.5201 218.516 90.3512 219.465 91.9357 227.673C93.5201 235.882 84.5159 272.652 84.5159 272.652H76.475C76.475 272.652 77.4173 239.665 80.1046 232.72C80.1046 232.72 58.0059 236.21 52.1846 231.177C47.9966 227.597 52.9733 218.516 52.9733 218.516H63.5201Z" fill="#263238"/>
<path d="M88.4111 266.657L98.4134 269.442L96.5846 273.288L87.4688 271.026L88.4111 266.657Z" fill="#263238"/>
<path opacity="0.3" d="M88.4111 266.657L98.4134 269.442L96.5846 273.288L87.4688 271.026L88.4111 266.657Z" fill="black"/>
<path d="M87.9492 192.369L95.9413 189.737L101.058 192.027C101.298 192.132 101.508 192.295 101.671 192.501C101.834 192.706 101.945 192.948 101.993 193.206L102.53 196.117C102.575 196.35 102.567 196.59 102.508 196.82C102.448 197.049 102.339 197.263 102.188 197.446C102.037 197.628 101.847 197.776 101.632 197.876C101.417 197.977 101.183 198.03 100.946 198.03C100.569 198.028 100.205 197.898 99.9129 197.66L95.4178 193.946L88.4378 196.738L87.9492 192.369Z" fill="#EBB376"/>
<path d="M75.6797 270.601L85.7867 271.075L84.8374 275.103L75.6797 274.628V270.601Z" fill="#263238"/>
<path opacity="0.3" d="M75.6797 270.601L85.7867 271.075L84.8374 275.103L75.6797 274.628V270.601Z" fill="black"/>
<path d="M63.004 179.218C64.5605 176.887 67.0384 174.451 73.3134 195L92.1385 190.372L92.6899 195.503C92.6899 195.503 77.3339 203.732 71.1705 202.58C65.0072 201.429 58.7252 185.626 63.004 179.218Z" fill="#100E86"/>
<path opacity="0.2" d="M63.004 179.218C64.5605 176.887 67.0384 174.451 73.3134 195L92.1385 190.372L92.6899 195.503C92.6899 195.503 77.3339 203.732 71.1705 202.58C65.0072 201.429 58.7252 185.626 63.004 179.218Z" fill="white"/>
<path d="M82.6801 172.064L79.1133 175.407C79.1133 175.407 80.5093 179.742 84.0621 179.742C87.6149 179.742 85.4581 174.256 85.4581 174.256L82.6801 172.064Z" fill="#EBB376"/>
<path d="M84.5655 182.255L86.2965 181.347L87.0294 180.245L86.7223 176.824C83.8623 175.386 80.7444 174.532 77.5506 174.312L77.418 175.903L79.3514 181.487L81.606 182.234L84.5655 182.255Z" fill="#EBB376"/>
<path opacity="0.1" d="M85.4647 174.256L82.6727 172.064L82.1981 172.504C81.9259 174.137 81.6118 177.529 83.4196 178.862C83.6986 179.09 84.0282 179.246 84.3805 179.319C84.7328 179.392 85.0976 179.379 85.4438 179.281C86.9235 177.99 85.4647 174.256 85.4647 174.256Z" fill="black"/>
<path d="M83.5742 182.687L86.2545 184.083C88.1392 181.843 87.6506 178.702 87.2387 177.061C86.9246 176.894 86.6105 176.733 86.2964 176.587C86.6524 179.065 86.3662 181.787 83.4137 181.871C78.786 182.01 78.0949 176.091 77.9902 174.318L76.9921 174.255C75.5263 180.81 79.6305 184.083 79.6305 184.083L83.5742 182.687Z" fill="#100E86"/>
<path opacity="0.2" d="M83.5742 182.687L86.2545 184.083C88.1392 181.843 87.6506 178.702 87.2387 177.061C86.9246 176.894 86.6105 176.733 86.2964 176.587C86.6524 179.065 86.3662 181.787 83.4137 181.871C78.786 182.01 78.0949 176.091 77.9902 174.318L76.9921 174.255C75.5263 180.81 79.6305 184.083 79.6305 184.083L83.5742 182.687Z" fill="white"/>
<path d="M95.0187 163.771C97.5734 165.426 96.8195 169.572 94.1532 171.275C93.3993 166.529 95.0187 163.771 95.0187 163.771Z" fill="#263238"/>
<path opacity="0.4" d="M95.0187 163.771C97.5734 165.426 96.8195 169.572 94.1532 171.275C93.3993 166.529 95.0187 163.771 95.0187 163.771Z" fill="black"/>
<path d="M83.3213 166.501C82.365 170.87 81.5763 173.369 83.0909 176.273C83.7924 177.647 85.0105 178.686 86.4776 179.162C87.9446 179.639 89.5408 179.513 90.9155 178.814C91.9661 178.274 92.8296 177.43 93.3934 176.392C95.4037 172.839 96.6321 166.292 92.9676 163.248C92.1924 162.566 91.2513 162.101 90.2388 161.898C89.2264 161.695 88.1785 161.763 87.2006 162.094C86.2226 162.425 85.3492 163.008 84.6682 163.784C83.9872 164.56 83.5226 165.502 83.3213 166.515V166.501Z" fill="#EBB376"/>
<path d="M82.8625 170.577C85.2008 171.778 86.7015 167.68 86.3525 165.691C89.3888 167.785 96.2152 167.464 98.2185 164.693C100.403 161.657 97.1226 159.109 94.1561 158.167C93.9619 158.115 93.7591 158.105 93.5605 158.136C93.362 158.167 93.1721 158.239 93.0029 158.347C92.8336 158.455 92.6886 158.598 92.5772 158.765C92.4657 158.932 92.3901 159.12 92.3553 159.318C92.3233 159.453 92.2472 159.574 92.1389 159.66C91.5123 159.125 90.8315 158.658 90.1077 158.264C89.6012 158.015 89.0286 157.934 88.4727 158.032C87.9168 158.129 87.4065 158.402 87.0156 158.809C86.6666 159.123 85.829 159.186 84.1398 158.62C80.6498 157.434 80.0425 161.245 81.7457 161.985C80.2031 162.927 77.6554 165.517 79.0304 167.792C80.4055 170.067 81.5851 173.076 80.8103 173.571C81.5432 173.858 82.8066 173.104 82.8625 170.577Z" fill="#263238"/>
<path d="M80.6758 169.614C80.6986 170.615 81.0944 171.57 81.7856 172.294C82.7 173.223 83.754 172.525 83.9913 171.289C84.2007 170.172 83.9913 168.351 82.8187 167.89C81.646 167.429 80.6688 168.365 80.6758 169.614Z" fill="#EBB376"/>
<path d="M89.4087 169.774C89.3109 170.123 89.4087 170.472 89.646 170.521C89.8833 170.57 90.1346 170.368 90.2393 170.019C90.344 169.67 90.2393 169.321 89.995 169.279C89.7507 169.237 89.5064 169.425 89.4087 169.774Z" fill="#263238"/>
<path d="M93.311 171.01C93.2133 171.359 93.311 171.708 93.5483 171.75C93.7856 171.791 94.0369 171.596 94.1416 171.247C94.2463 170.898 94.1416 170.549 93.8973 170.507C93.653 170.465 93.4157 170.682 93.311 171.01Z" fill="#263238"/>
<path d="M92.0196 170.807C92.1317 172 92.3992 173.173 92.8153 174.297C92.5271 174.392 92.2219 174.423 91.9206 174.388C91.6193 174.353 91.3292 174.253 91.0703 174.095L92.0196 170.807Z" fill="#D58745"/>
<path d="M88.5723 168.113C88.537 168.106 88.5037 168.092 88.4746 168.071C88.4357 168.031 88.4141 167.977 88.4141 167.921C88.4141 167.865 88.4357 167.811 88.4746 167.771C88.7414 167.563 89.0548 167.422 89.3879 167.361C89.721 167.3 90.0638 167.321 90.3871 167.422C90.4128 167.432 90.4363 167.447 90.4562 167.466C90.4761 167.485 90.492 167.508 90.503 167.534C90.514 167.559 90.5199 167.586 90.5204 167.614C90.5209 167.641 90.5159 167.669 90.5057 167.694C90.4957 167.72 90.4807 167.743 90.4616 167.763C90.4425 167.783 90.4196 167.799 90.3943 167.81C90.369 167.821 90.3418 167.827 90.3142 167.828C90.2866 167.828 90.2592 167.823 90.2335 167.813C89.9827 167.734 89.7165 167.717 89.4577 167.763C89.1988 167.81 88.9549 167.918 88.7468 168.078C88.7228 168.098 88.6943 168.111 88.6639 168.118C88.6335 168.124 88.602 168.122 88.5723 168.113Z" fill="#263238"/>
<path d="M95.369 170.221C95.3378 170.206 95.3107 170.183 95.2901 170.155C95.2694 170.127 95.2558 170.095 95.2504 170.061C95.2131 169.791 95.1144 169.534 94.9619 169.309C94.8094 169.084 94.6072 168.897 94.3709 168.762C94.3238 168.73 94.2915 168.68 94.281 168.624C94.2705 168.567 94.2828 168.509 94.315 168.462C94.3402 168.424 94.3769 168.396 94.4197 168.381C94.4625 168.365 94.5091 168.365 94.5524 168.378C94.8507 168.541 95.1065 168.772 95.2993 169.052C95.4921 169.332 95.6164 169.654 95.6622 169.991C95.6672 170.018 95.6669 170.046 95.6612 170.072C95.6555 170.099 95.6446 170.125 95.629 170.148C95.6135 170.17 95.5936 170.19 95.5705 170.205C95.5475 170.22 95.5217 170.23 95.4946 170.235C95.4523 170.241 95.4091 170.236 95.369 170.221Z" fill="#263238"/>
<path d="M89.1018 175.282C89.2958 175.338 89.4943 175.378 89.6951 175.4C89.7256 175.406 89.7573 175.4 89.7835 175.383C89.8096 175.366 89.828 175.34 89.8347 175.31C89.8366 175.293 89.8352 175.277 89.8305 175.261C89.8259 175.246 89.8181 175.231 89.8076 175.219C89.7971 175.207 89.7842 175.196 89.7697 175.189C89.7551 175.182 89.7392 175.178 89.723 175.177C89.217 175.121 88.7309 174.948 88.3033 174.672C87.8756 174.396 87.5181 174.024 87.2591 173.585C87.2523 173.571 87.2428 173.558 87.2311 173.548C87.2193 173.537 87.2055 173.529 87.1906 173.524C87.1756 173.518 87.1597 173.516 87.1439 173.517C87.1281 173.518 87.1127 173.523 87.0985 173.53C87.0835 173.535 87.0698 173.545 87.0586 173.556C87.0474 173.568 87.0389 173.582 87.0335 173.597C87.0282 173.612 87.0263 173.628 87.0279 173.645C87.0295 173.661 87.0345 173.676 87.0427 173.69C87.2618 174.08 87.5569 174.422 87.9107 174.695C88.2644 174.968 88.6694 175.168 89.1018 175.282Z" fill="#263238"/>
<path d="M82.3245 162.124C81.8352 162.003 81.387 161.754 81.0263 161.401C80.6656 161.049 80.4053 160.607 80.2723 160.121C80.2424 160.029 80.1856 159.949 80.1093 159.89C80.0331 159.831 79.9408 159.796 79.8446 159.79C79.7483 159.784 79.6525 159.807 79.5694 159.856C79.4864 159.905 79.42 159.978 79.3789 160.065C78.7856 161.329 78.5134 163.074 82.3245 162.124Z" fill="#2E353A"/>
<path d="M111.82 167.464H109.817C108.963 167.478 108.144 167.805 107.515 168.383C106.886 168.96 106.491 169.748 106.404 170.598L104.666 190.142C104.616 190.542 104.654 190.947 104.776 191.331C104.898 191.715 105.101 192.068 105.372 192.365C105.644 192.663 105.976 192.899 106.347 193.056C106.718 193.213 107.118 193.288 107.521 193.276H109.524L111.82 167.464Z" fill="#100E86"/>
<path opacity="0.3" d="M111.82 167.464H109.817C108.963 167.478 108.144 167.805 107.515 168.383C106.886 168.96 106.491 169.748 106.404 170.598L104.666 190.142C104.616 190.542 104.654 190.947 104.776 191.331C104.898 191.715 105.101 192.068 105.372 192.365C105.644 192.663 105.976 192.899 106.347 193.056C106.718 193.213 107.118 193.288 107.521 193.276H109.524L111.82 167.464Z" fill="white"/>
<path d="M141.54 193.29H108.888C108.485 193.302 108.085 193.227 107.714 193.07C107.343 192.913 107.011 192.677 106.74 192.379C106.468 192.082 106.265 191.729 106.143 191.345C106.021 190.961 105.983 190.556 106.033 190.156L107.771 170.612C107.858 169.762 108.253 168.974 108.882 168.397C109.511 167.819 110.33 167.492 111.184 167.478H143.837C144.239 167.466 144.64 167.541 145.01 167.698C145.381 167.855 145.713 168.091 145.985 168.388C146.256 168.686 146.459 169.039 146.581 169.423C146.703 169.807 146.741 170.212 146.691 170.612L144.953 190.156C144.866 191.005 144.471 191.794 143.842 192.371C143.213 192.949 142.394 193.276 141.54 193.29Z" fill="#100E86"/>
<path opacity="0.2" d="M141.54 193.29H108.888C108.485 193.302 108.085 193.227 107.714 193.07C107.343 192.913 107.011 192.677 106.74 192.379C106.468 192.082 106.265 191.729 106.143 191.345C106.021 190.961 105.983 190.556 106.033 190.156L107.771 170.612C107.858 169.762 108.253 168.974 108.882 168.397C109.511 167.819 110.33 167.492 111.184 167.478H143.837C144.239 167.466 144.64 167.541 145.01 167.698C145.381 167.855 145.713 168.091 145.985 168.388C146.256 168.686 146.459 169.039 146.581 169.423C146.703 169.807 146.741 170.212 146.691 170.612L144.953 190.156C144.866 191.005 144.471 191.794 143.842 192.371C143.213 192.949 142.394 193.276 141.54 193.29Z" fill="#100E86"/>
<path opacity="0.5" d="M126.938 178.486C126.939 178.323 126.963 178.161 127.008 178.004C126.799 177.943 126.583 177.91 126.365 177.906C125.877 177.906 125.399 178.051 124.993 178.323C124.586 178.594 124.27 178.98 124.083 179.432C123.896 179.883 123.847 180.38 123.942 180.859C124.037 181.339 124.273 181.779 124.618 182.124C124.964 182.47 125.404 182.705 125.883 182.801C126.363 182.896 126.86 182.847 127.311 182.66C127.763 182.473 128.148 182.156 128.42 181.75C128.691 181.344 128.836 180.866 128.836 180.377C128.587 180.378 128.341 180.33 128.11 180.235C127.88 180.141 127.671 180.001 127.494 179.826C127.318 179.65 127.178 179.441 127.082 179.211C126.987 178.981 126.938 178.735 126.938 178.486Z" fill="white"/>
<path d="M124.874 202.664H127.387L126.396 191.301C126.368 190.988 126.224 190.698 125.993 190.486C125.762 190.274 125.46 190.156 125.147 190.156C124.973 190.155 124.801 190.191 124.642 190.26C124.483 190.33 124.34 190.432 124.223 190.561C124.106 190.689 124.017 190.84 123.962 191.005C123.907 191.17 123.888 191.344 123.904 191.517L124.874 202.664Z" fill="#263238"/>
<path opacity="0.3" d="M124.874 202.664H127.387L126.396 191.301C126.368 190.988 126.224 190.698 125.993 190.486C125.762 190.274 125.46 190.156 125.147 190.156C124.973 190.155 124.801 190.191 124.642 190.26C124.483 190.33 124.34 190.432 124.223 190.561C124.106 190.689 124.017 190.84 123.962 191.005C123.907 191.17 123.888 191.344 123.904 191.517L124.874 202.664Z" fill="white"/>
<path d="M132.81 205.965C132.839 205.082 132.689 204.201 132.371 203.376C132.053 202.551 131.572 201.799 130.957 201.163C130.342 200.528 129.605 200.023 128.791 199.678C127.977 199.333 127.101 199.155 126.217 199.155C125.333 199.155 124.458 199.333 123.643 199.678C122.829 200.023 122.093 200.528 121.478 201.163C120.863 201.799 120.382 202.551 120.063 203.376C119.745 204.201 119.596 205.082 119.625 205.965H132.81Z" fill="#100E86"/>
<path opacity="0.5" d="M132.81 205.965C132.839 205.082 132.689 204.201 132.371 203.376C132.053 202.551 131.572 201.799 130.957 201.163C130.342 200.528 129.605 200.023 128.791 199.678C127.977 199.333 127.101 199.155 126.217 199.155C125.333 199.155 124.458 199.333 123.643 199.678C122.829 200.023 122.093 200.528 121.478 201.163C120.863 201.799 120.382 202.551 120.063 203.376C119.745 204.201 119.596 205.082 119.625 205.965H132.81Z" fill="white"/>
<path d="M117.321 205.965H106.907C106.576 205.964 106.26 205.831 106.028 205.597C105.795 205.363 105.664 205.046 105.664 204.716C105.664 204.387 105.795 204.071 106.028 203.838C106.261 203.605 106.577 203.474 106.907 203.474H117.321C117.65 203.474 117.966 203.605 118.199 203.838C118.432 204.071 118.563 204.387 118.563 204.716C118.563 205.046 118.432 205.363 118.2 205.597C117.967 205.831 117.651 205.964 117.321 205.965Z" fill="#100E86"/>
<path opacity="0.3" d="M117.321 205.965H106.907C106.576 205.964 106.26 205.831 106.028 205.597C105.795 205.363 105.664 205.046 105.664 204.716C105.664 204.387 105.795 204.071 106.028 203.838C106.261 203.605 106.577 203.474 106.907 203.474H117.321C117.65 203.474 117.966 203.605 118.199 203.838C118.432 204.071 118.563 204.387 118.563 204.716C118.563 205.046 118.432 205.363 118.2 205.597C117.967 205.831 117.651 205.964 117.321 205.965Z" fill="white"/>
<path d="M107.548 205.965H97.1409C96.9771 205.965 96.815 205.933 96.6638 205.87C96.5126 205.807 96.3753 205.715 96.2599 205.599C96.1444 205.483 96.053 205.345 95.991 205.194C95.929 205.042 95.8975 204.88 95.8985 204.716C95.8985 204.387 96.0294 204.071 96.2624 203.838C96.4954 203.605 96.8114 203.474 97.1409 203.474H107.548C107.878 203.474 108.195 203.604 108.429 203.837C108.663 204.07 108.796 204.386 108.797 204.716C108.797 204.88 108.765 205.043 108.702 205.194C108.64 205.346 108.548 205.484 108.432 205.6C108.316 205.716 108.178 205.808 108.026 205.87C107.875 205.933 107.712 205.965 107.548 205.965Z" fill="#100E86"/>
<path opacity="0.5" d="M107.548 205.965H97.1409C96.9771 205.965 96.815 205.933 96.6638 205.87C96.5126 205.807 96.3753 205.715 96.2599 205.599C96.1444 205.483 96.053 205.345 95.991 205.194C95.929 205.042 95.8975 204.88 95.8985 204.716C95.8985 204.387 96.0294 204.071 96.2624 203.838C96.4954 203.605 96.8114 203.474 97.1409 203.474H107.548C107.878 203.474 108.195 203.604 108.429 203.837C108.663 204.07 108.796 204.386 108.797 204.716C108.797 204.88 108.765 205.043 108.702 205.194C108.64 205.346 108.548 205.484 108.432 205.6C108.316 205.716 108.178 205.808 108.026 205.87C107.875 205.933 107.712 205.965 107.548 205.965Z" fill="white"/>
<path d="M194.682 193.241C194.363 193.233 194.048 193.313 193.771 193.472C193.494 193.631 193.266 193.862 193.111 194.142C185.604 206.726 182.907 221.603 185.517 236.022C185.558 236.385 185.728 236.722 185.995 236.971C186.263 237.221 186.611 237.367 186.976 237.383C188.114 237.46 208.37 237.383 209.103 237.383C209.402 237.389 209.7 237.329 209.974 237.207C210.248 237.085 210.491 236.905 210.688 236.678C210.884 236.452 211.029 236.185 211.111 235.897C211.192 235.608 211.21 235.305 211.162 235.01C208.799 221.584 211.36 207.758 218.372 196.068C218.534 195.778 218.616 195.449 218.61 195.117C218.604 194.784 218.509 194.459 218.336 194.175C218.162 193.891 217.917 193.658 217.624 193.5C217.331 193.342 217.002 193.265 216.669 193.276C216.083 193.227 195.973 193.262 194.682 193.241Z" fill="#100E86"/>
<path opacity="0.2" d="M194.682 193.241C194.363 193.233 194.048 193.313 193.771 193.472C193.494 193.631 193.266 193.862 193.111 194.142C185.604 206.726 182.907 221.603 185.517 236.022C185.558 236.385 185.728 236.722 185.995 236.971C186.263 237.221 186.611 237.367 186.976 237.383C188.114 237.46 208.37 237.383 209.103 237.383C209.402 237.389 209.7 237.329 209.974 237.207C210.248 237.085 210.491 236.905 210.688 236.678C210.884 236.452 211.029 236.185 211.111 235.897C211.192 235.608 211.21 235.305 211.162 235.01C208.799 221.584 211.36 207.758 218.372 196.068C218.534 195.778 218.616 195.449 218.61 195.117C218.604 194.784 218.509 194.459 218.336 194.175C218.162 193.891 217.917 193.658 217.624 193.5C217.331 193.342 217.002 193.265 216.669 193.276C216.083 193.227 195.973 193.262 194.682 193.241Z" fill="black"/>
<path d="M211.162 234.996C208.8 221.57 211.36 207.743 218.372 196.054C219.636 193.96 216.355 192.055 215.099 194.142C207.593 206.727 204.898 221.603 207.511 236.022C207.944 238.416 211.595 237.418 211.162 235.017V234.996Z" fill="#100E86"/>
<g opacity="0.2">
<path opacity="0.2" d="M211.162 234.996C208.8 221.57 211.36 207.743 218.372 196.054C219.636 193.96 216.355 192.055 215.099 194.142C207.593 206.727 204.898 221.603 207.511 236.022C207.944 238.416 211.595 237.418 211.162 235.017V234.996Z" fill="white"/>
</g>
<path d="M198.743 287.576L181.153 281.098L163.368 287.583C163.225 287.634 163.072 287.65 162.922 287.63C162.772 287.61 162.628 287.555 162.504 287.468C162.379 287.381 162.277 287.266 162.207 287.131C162.136 286.997 162.099 286.848 162.098 286.696C162.098 286.516 162.15 286.34 162.248 286.189C162.346 286.038 162.485 285.918 162.649 285.845L181.153 277.259L199.469 285.838C199.629 285.915 199.764 286.036 199.86 286.186C199.955 286.337 200.005 286.511 200.006 286.689C200.006 286.841 199.97 286.99 199.9 287.124C199.83 287.259 199.729 287.374 199.605 287.461C199.481 287.548 199.338 287.604 199.188 287.624C199.038 287.644 198.885 287.627 198.743 287.576Z" fill="#263238"/>
<path opacity="0.3" d="M198.743 287.576L181.153 281.098L163.368 287.583C163.225 287.634 163.072 287.65 162.922 287.63C162.772 287.61 162.628 287.555 162.504 287.468C162.379 287.381 162.277 287.266 162.207 287.131C162.136 286.997 162.099 286.848 162.098 286.696C162.098 286.516 162.15 286.34 162.248 286.189C162.346 286.038 162.485 285.918 162.649 285.845L181.153 277.259L199.469 285.838C199.629 285.915 199.764 286.036 199.86 286.186C199.955 286.337 200.005 286.511 200.006 286.689C200.006 286.841 199.97 286.99 199.9 287.124C199.83 287.259 199.729 287.374 199.605 287.461C199.481 287.548 199.338 287.604 199.188 287.624C199.038 287.644 198.885 287.627 198.743 287.576Z" fill="white"/>
<path opacity="0.2" d="M177.008 282.634L181.154 281.126L185.105 282.578V279.137L181.154 277.28L177.008 279.207V282.634Z" fill="black"/>
<path d="M181.056 287.75C180.67 287.751 180.297 287.609 180.01 287.351C179.723 287.093 179.541 286.738 179.499 286.354L179.004 281.14V237.864H183.108V281.14L182.613 286.354C182.571 286.738 182.389 287.093 182.102 287.351C181.815 287.609 181.442 287.751 181.056 287.75Z" fill="#263238"/>
<path opacity="0.3" d="M181.056 287.75C180.67 287.751 180.297 287.609 180.01 287.351C179.723 287.093 179.541 286.738 179.499 286.354L179.004 281.14V237.864H183.108V281.14L182.613 286.354C182.571 286.738 182.389 287.093 182.102 287.351C181.815 287.609 181.442 287.751 181.056 287.75Z" fill="white"/>
<path opacity="0.2" d="M183.108 237.836H179.004V242.876H183.108V237.836Z" fill="black"/>
<path d="M148.635 233.893C153.28 232.717 158.042 232.061 162.832 231.938C167.76 231.82 186.215 231.938 190.598 231.938C195.942 231.935 201.264 232.599 206.443 233.914C209.696 234.744 208.691 239.442 205.745 239.498C205.487 239.498 149.703 239.498 149.5 239.498C146.429 239.61 145.312 234.744 148.635 233.893Z" fill="#100E86"/>
<path opacity="0.3" d="M148.635 233.893C153.28 232.717 158.042 232.061 162.832 231.938C167.76 231.82 186.215 231.938 190.598 231.938C195.942 231.935 201.264 232.599 206.443 233.914C209.696 234.744 208.691 239.442 205.745 239.498C205.487 239.498 149.703 239.498 149.5 239.498C146.429 239.61 145.312 234.744 148.635 233.893Z" fill="black"/>
<path d="M204.932 239.372C195.523 236.985 185.667 236.985 176.258 239.372C172.72 240.28 171.205 234.8 174.751 233.893C185.149 231.254 196.042 231.254 206.44 233.893C209.979 234.8 208.478 240.28 204.932 239.372Z" fill="#100E86"/>
<g opacity="0.3">
<path opacity="0.3" d="M204.932 239.372C195.523 236.985 185.667 236.985 176.258 239.372C172.72 240.28 171.205 234.8 174.751 233.893C185.149 231.254 196.042 231.254 206.44 233.893C209.979 234.8 208.478 240.28 204.932 239.372Z" fill="white"/>
</g>
<path d="M177.881 169.977C177.881 169.977 174.447 169.642 175.514 164.54C176.582 159.437 176.492 154.593 184.072 155.144C184.072 155.144 190.075 153.644 191.75 159.284C193.425 164.923 195.938 168.923 191.945 170.584C186.92 172.678 185.663 168.043 185.663 168.043L178.313 168.741L177.881 169.977Z" fill="#263238"/>
<path d="M176.755 177.445C172.406 176.824 174.5 191.95 170.598 194.742C168.442 196.236 157.595 192.222 157.595 192.222L156.066 187.336C156.028 187.211 155.963 187.096 155.874 186.999C155.786 186.903 155.678 186.827 155.557 186.778L153.295 185.877C153.146 185.823 152.985 185.809 152.829 185.839C152.673 185.868 152.528 185.94 152.41 186.045C152.291 186.15 152.203 186.285 152.155 186.436C152.107 186.587 152.1 186.749 152.136 186.903L152.953 190.512C152.987 190.669 153.065 190.814 153.176 190.931L156.324 194.274C156.324 194.274 169.258 200.556 172.378 199.502C176.036 198.295 177.39 191.636 178.297 187.671C179.009 184.67 180.084 177.92 176.755 177.445Z" fill="#B97964"/>
<path d="M171.7 268.081L173.02 278.278L169.306 278.376L166.633 268.534L171.7 268.081Z" fill="#B97964"/>
<path d="M169.26 277.804H173.496C173.585 277.806 173.671 277.837 173.74 277.893C173.81 277.948 173.859 278.025 173.88 278.111L174.746 282.076C174.765 282.159 174.768 282.245 174.754 282.329C174.74 282.413 174.709 282.494 174.664 282.566C174.619 282.638 174.559 282.7 174.489 282.749C174.419 282.798 174.341 282.833 174.257 282.851C174.211 282.857 174.164 282.857 174.118 282.851C172.366 282.851 170.809 282.711 168.624 282.711C166.049 282.711 166.698 283.018 163.669 283.053C161.847 283.053 161.519 280.994 162.273 280.896C165.818 280.457 166.824 279.389 168.192 278.104C168.497 277.874 168.879 277.767 169.26 277.804Z" fill="#263238"/>
<path opacity="0.1" d="M168.182 274.244L166.633 268.534L171.7 268.081L172.461 273.972L168.182 274.244Z" fill="black"/>
<path d="M184.482 206.859H178.486C177.497 209.558 176.861 212.373 176.595 215.235C176.281 219.493 184.482 216.338 184.482 216.338L185.18 210.503L184.482 206.859Z" fill="#263238"/>
<path d="M146.294 253.953L142.343 265.477L139.027 264.528L141.715 252.376L146.294 253.953Z" fill="#B97964"/>
<path d="M139.092 263.641L143.168 264.877C143.254 264.899 143.33 264.95 143.383 265.021C143.436 265.092 143.464 265.179 143.461 265.268L143.308 269.316C143.306 269.404 143.286 269.491 143.25 269.572C143.213 269.652 143.161 269.725 143.095 269.784C143.03 269.844 142.953 269.889 142.87 269.918C142.786 269.946 142.698 269.958 142.61 269.951C142.566 269.958 142.521 269.958 142.477 269.951C140.788 269.477 139.301 268.995 137.186 268.444C134.694 267.794 135.246 268.255 132.3 267.529C130.527 267.096 130.73 265.002 131.504 265.1C135.043 265.561 136.3 264.618 137.94 263.739C138.298 263.563 138.709 263.528 139.092 263.641Z" fill="#263238"/>
<path opacity="0.1" d="M144.14 260.235L140.203 259.223L141.718 252.376L146.297 253.953L144.14 260.235Z" fill="black"/>
<path d="M196.433 206.315C196.433 206.315 202.533 216.52 201.479 225.042C200.425 233.565 192.545 238.074 162.245 223.556C162.245 223.556 156.025 229.991 145.716 257.555L140.453 255.978C140.453 255.978 146.4 224.114 151.712 215.047C157.024 205.98 180.644 216.624 182.424 214.838C184.015 213.246 182.633 206.95 182.633 206.95L196.433 206.315Z" fill="#263238"/>
<path d="M146.999 257.031L145.896 259.16L139.586 257.031V254.588L146.999 257.031Z" fill="#100E86"/>
<path d="M198.89 179.037L177.419 177.431C177.113 177.406 176.806 177.449 176.518 177.556C176.23 177.663 175.969 177.832 175.754 178.051C175.539 178.27 175.375 178.534 175.273 178.824C175.171 179.114 175.134 179.422 175.165 179.728C175.372 180.918 175.493 182.122 175.528 183.329C175.339 185.605 174.132 189.011 174.523 190.568C174.851 191.81 176.156 193.22 176.673 194.623C177.796 197.659 177.985 207.494 177.985 207.494C184.923 208.618 197.271 206.95 197.271 206.95C194.479 196.961 198.667 185.312 199.916 180.468C199.957 180.305 199.962 180.135 199.931 179.971C199.9 179.806 199.833 179.65 199.735 179.514C199.638 179.377 199.511 179.264 199.365 179.182C199.219 179.099 199.057 179.05 198.89 179.037Z" fill="#100E86"/>
<path opacity="0.7" d="M198.89 179.037L177.419 177.431C177.113 177.406 176.806 177.449 176.518 177.556C176.23 177.663 175.969 177.832 175.754 178.051C175.539 178.27 175.375 178.534 175.273 178.824C175.171 179.114 175.134 179.422 175.165 179.728C175.372 180.918 175.493 182.122 175.528 183.329C175.339 185.605 174.132 189.011 174.523 190.568C174.851 191.81 176.156 193.22 176.673 194.623C177.796 197.659 177.985 207.494 177.985 207.494C184.923 208.618 197.271 206.95 197.271 206.95C194.479 196.961 198.667 185.312 199.916 180.468C199.957 180.305 199.962 180.135 199.931 179.971C199.9 179.806 199.833 179.65 199.735 179.514C199.638 179.377 199.511 179.264 199.365 179.182C199.219 179.099 199.057 179.05 198.89 179.037Z" fill="white"/>
<path opacity="0.1" d="M195.693 190.833L188.273 198.427L177.699 200.556H177.629C177.727 201.722 177.796 202.894 177.852 203.927C180.777 203.927 190.333 203.725 193.09 201.324C194.483 199.992 195.621 198.417 196.447 196.675C196.578 194.971 196.8 193.275 197.11 191.594L195.693 190.833Z" fill="black"/>
<path opacity="0.2" d="M158.781 226.417L157.127 225.133C157.127 225.133 151.285 228.295 154.188 237.299C155.741 233.999 157.463 230.782 159.347 227.66L158.781 226.417Z" fill="black"/>
<path d="M184.092 231.939C178.585 230.619 171.459 227.974 162.245 223.562C162.245 223.562 155.132 223.66 154.658 228.944C154.183 234.228 166.656 270.824 166.656 270.824L172.415 270.329C172.415 270.329 169.023 233.865 168.227 231.973L184.092 231.939Z" fill="#263238"/>
<path opacity="0.2" d="M162.244 223.555C161.42 223.587 160.601 223.704 159.801 223.904C163.664 227.205 167.998 229.912 172.658 231.938H184.091C178.584 230.619 171.457 227.974 162.244 223.555Z" fill="black"/>
<path d="M173.105 269.344L173.259 271.71L166.551 272.234L165.602 269.986L173.105 269.344Z" fill="#100E86"/>
<path d="M188.755 169.042L184.071 173.641C184.853 177.424 182.082 177.78 182.082 177.78C182.082 177.78 182.305 179.114 185.698 178.932C187.216 178.916 188.728 178.733 190.207 178.388C188.162 176.754 188.462 171.778 188.755 169.042Z" fill="#B97964"/>
<path opacity="0.1" d="M184.112 175.777C184.251 175.07 184.237 174.342 184.07 173.641L188.258 169.537L188.663 170.012C188.663 170.012 187.819 175.247 184.112 175.777Z" fill="black"/>
<path d="M189.158 162.948C189.5 167.457 189.744 169.363 187.804 171.966C184.879 175.896 179.267 175.331 177.578 171.01C176.064 167.122 175.757 160.4 179.889 158.013C180.798 157.484 181.827 157.197 182.878 157.177C183.93 157.157 184.969 157.406 185.897 157.9C186.825 158.395 187.612 159.118 188.183 160.001C188.753 160.884 189.089 161.899 189.158 162.948Z" fill="#B97964"/>
<path d="M179.938 167.52C179.729 168.399 179.4 169.244 178.961 170.033C179.165 170.139 179.39 170.2 179.621 170.211C179.851 170.222 180.081 170.182 180.294 170.096L179.938 167.52Z" fill="#A24E3F"/>
<path d="M183.352 164.428C183.381 164.418 183.407 164.402 183.429 164.379C183.445 164.363 183.459 164.343 183.468 164.322C183.477 164.3 183.482 164.277 183.482 164.253C183.482 164.23 183.477 164.207 183.468 164.185C183.459 164.164 183.445 164.144 183.429 164.128C183.176 163.906 182.873 163.748 182.546 163.668C182.219 163.588 181.878 163.587 181.551 163.667C181.506 163.68 181.467 163.71 181.444 163.752C181.421 163.793 181.416 163.842 181.429 163.887C181.442 163.932 181.472 163.971 181.513 163.994C181.555 164.016 181.603 164.022 181.649 164.009C181.92 163.948 182.202 163.952 182.471 164.022C182.741 164.091 182.99 164.223 183.198 164.407C183.22 164.422 183.246 164.432 183.272 164.435C183.299 164.439 183.326 164.436 183.352 164.428Z" fill="#2E353A"/>
<path d="M176.686 165.049C176.716 165.039 176.742 165.023 176.763 165C176.942 164.79 177.168 164.625 177.423 164.518C177.677 164.411 177.954 164.366 178.229 164.386C178.276 164.391 178.322 164.378 178.361 164.352C178.399 164.325 178.427 164.285 178.438 164.239C178.442 164.191 178.428 164.144 178.398 164.106C178.368 164.069 178.325 164.044 178.278 164.037C177.943 164.007 177.606 164.057 177.295 164.185C176.984 164.313 176.708 164.513 176.491 164.77C176.474 164.786 176.461 164.806 176.451 164.827C176.442 164.849 176.438 164.872 176.438 164.895C176.438 164.919 176.442 164.942 176.451 164.964C176.461 164.985 176.474 165.005 176.491 165.021C176.517 165.045 176.549 165.061 176.583 165.068C176.618 165.074 176.654 165.07 176.686 165.056V165.049Z" fill="#2E353A"/>
<path d="M182.422 166.549C182.478 166.912 182.325 167.247 182.08 167.247C181.836 167.247 181.613 167.017 181.564 166.647C181.515 166.277 181.668 165.949 181.906 165.949C182.143 165.949 182.373 166.187 182.422 166.549Z" fill="#2E353A"/>
<path d="M178.307 167.122C178.363 167.485 178.209 167.82 177.972 167.82C177.735 167.82 177.504 167.583 177.449 167.22C177.393 166.857 177.553 166.522 177.791 166.522C178.028 166.522 178.265 166.752 178.307 167.122Z" fill="#2E353A"/>
<path d="M177.892 166.529L176.984 166.396C176.984 166.396 177.529 167.017 177.892 166.529Z" fill="#2E353A"/>
<path d="M182.013 165.956L181.105 165.831C181.105 165.831 181.65 166.445 182.013 165.956Z" fill="#2E353A"/>
<path d="M182.718 170.242C182.79 170.115 182.85 169.982 182.899 169.844C182.904 169.834 182.907 169.823 182.907 169.812C182.907 169.801 182.906 169.79 182.902 169.78C182.898 169.769 182.892 169.76 182.884 169.752C182.877 169.743 182.868 169.737 182.857 169.732C182.847 169.728 182.835 169.726 182.823 169.727C182.811 169.727 182.8 169.73 182.789 169.735C182.779 169.741 182.769 169.748 182.762 169.757C182.754 169.766 182.749 169.777 182.746 169.788C182.621 170.139 182.415 170.455 182.146 170.712C181.877 170.969 181.552 171.159 181.196 171.268C181.173 171.273 181.153 171.287 181.14 171.306C181.127 171.326 181.122 171.35 181.126 171.373C181.129 171.384 181.134 171.395 181.14 171.404C181.147 171.413 181.155 171.421 181.165 171.427C181.175 171.433 181.186 171.437 181.197 171.438C181.209 171.44 181.22 171.439 181.231 171.436C181.546 171.346 181.84 171.194 182.095 170.989C182.351 170.784 182.562 170.53 182.718 170.242Z" fill="#263238"/>
<path d="M185.669 156.352C182.773 155.654 179.771 157.148 179.771 157.148C179.771 157.148 176.421 160.128 177.189 163.011C177.543 162.75 177.943 162.558 178.368 162.445C178.251 161.353 178.556 160.257 179.22 159.381C179.041 160.331 179.079 161.31 179.331 162.243C180.73 162.105 182.142 162.271 183.471 162.731C183.471 162.731 184.05 161.538 183.471 158.948C184.227 160.298 184.626 161.819 184.629 163.367C184.664 166.047 188.119 166.696 188.119 166.696C188.119 166.696 190.276 166.466 190.255 163.576C190.234 160.686 188.566 157.099 185.669 156.352Z" fill="#263238"/>
<path d="M184.392 156.205C184.392 156.205 182.996 152.813 180.295 153.644C177.594 154.474 182.34 154.467 184.392 156.205Z" fill="#263238"/>
<path d="M190.695 166.34C190.629 166.769 190.479 167.179 190.254 167.55C190.029 167.92 189.733 168.242 189.383 168.497C188.441 169.195 187.575 168.427 187.498 167.332C187.436 166.347 187.847 164.805 188.957 164.54C189.199 164.494 189.449 164.509 189.683 164.583C189.918 164.657 190.131 164.788 190.303 164.964C190.475 165.14 190.601 165.356 190.669 165.592C190.738 165.829 190.747 166.079 190.695 166.32V166.34Z" fill="#B97964"/>
<path d="M199.162 178.939C197.026 178.241 194.102 186.387 192.88 188.928C192.378 189.982 191.568 192.341 190.954 194.205C190.699 195.002 190.252 195.723 189.651 196.307C189.051 196.89 188.317 197.316 187.513 197.548L176.073 200.794L171.424 199.398C171.252 199.345 171.07 199.333 170.892 199.36C170.715 199.388 170.546 199.456 170.398 199.558L168.059 201.15C167.889 201.267 167.749 201.424 167.653 201.608C167.557 201.792 167.507 201.996 167.508 202.204C167.505 202.376 167.537 202.547 167.604 202.706C167.67 202.865 167.769 203.008 167.893 203.127C168.018 203.246 168.166 203.337 168.328 203.396C168.49 203.454 168.662 203.479 168.834 203.467L175.744 202.923C175.744 202.923 186.912 203.572 191.798 200.829C196.684 198.085 202.869 180.21 199.162 178.939Z" fill="#B97964"/>
<path d="M190.256 203.495H150.609C150.322 203.495 150.047 203.609 149.844 203.812C149.641 204.014 149.527 204.29 149.527 204.577C149.527 204.863 149.641 205.139 149.844 205.342C150.047 205.544 150.322 205.658 150.609 205.658H190.256C190.543 205.658 190.818 205.544 191.021 205.342C191.224 205.139 191.338 204.863 191.338 204.577C191.338 204.29 191.224 204.014 191.021 203.812C190.818 203.609 190.543 203.495 190.256 203.495Z" fill="#263238"/>
<path opacity="0.3" d="M190.256 203.495H150.609C150.322 203.495 150.047 203.609 149.844 203.812C149.641 204.014 149.527 204.29 149.527 204.577C149.527 204.863 149.641 205.139 149.844 205.342C150.047 205.544 150.322 205.658 150.609 205.658H190.256C190.543 205.658 190.818 205.544 191.021 205.342C191.224 205.139 191.338 204.863 191.338 204.577C191.338 204.29 191.224 204.014 191.021 203.812C190.818 203.609 190.543 203.495 190.256 203.495Z" fill="white"/>
<path d="M151.193 204.996H164.727C164.811 204.997 164.894 204.977 164.969 204.939C165.044 204.901 165.107 204.844 165.155 204.775C165.203 204.706 165.233 204.627 165.242 204.543C165.251 204.46 165.24 204.375 165.209 204.298L157.796 183.085C157.696 182.796 157.507 182.546 157.257 182.37C157.006 182.195 156.706 182.103 156.4 182.108H142.866C142.783 182.108 142.701 182.129 142.627 182.168C142.553 182.207 142.49 182.263 142.443 182.331C142.396 182.4 142.366 182.479 142.355 182.562C142.345 182.644 142.355 182.728 142.384 182.806L149.818 204.039C149.921 204.321 150.108 204.564 150.354 204.736C150.6 204.907 150.893 204.998 151.193 204.996Z" fill="#263238"/>
<path opacity="0.5" d="M151.193 204.996H164.727C164.811 204.997 164.894 204.977 164.969 204.939C165.044 204.901 165.107 204.844 165.155 204.775C165.203 204.706 165.233 204.627 165.242 204.543C165.251 204.46 165.24 204.375 165.209 204.298L157.796 183.085C157.696 182.796 157.507 182.546 157.257 182.37C157.006 182.195 156.706 182.103 156.4 182.108H142.866C142.783 182.108 142.701 182.129 142.627 182.168C142.553 182.207 142.49 182.263 142.443 182.331C142.396 182.4 142.366 182.479 142.355 182.562C142.345 182.644 142.355 182.728 142.384 182.806L149.818 204.039C149.921 204.321 150.108 204.564 150.354 204.736C150.6 204.907 150.893 204.998 151.193 204.996Z" fill="white"/>
<path d="M150.537 204.995H164.092C164.176 204.997 164.259 204.977 164.334 204.939C164.408 204.901 164.472 204.844 164.52 204.775C164.567 204.706 164.597 204.627 164.607 204.543C164.616 204.46 164.605 204.375 164.574 204.297L157.147 183.085C157.045 182.797 156.856 182.548 156.606 182.373C156.355 182.198 156.057 182.105 155.751 182.108H142.217C142.133 182.107 142.05 182.127 141.976 182.165C141.901 182.204 141.837 182.26 141.789 182.328C141.741 182.397 141.71 182.476 141.699 182.56C141.689 182.643 141.699 182.727 141.728 182.806L149.162 204.025C149.263 204.309 149.449 204.555 149.695 204.729C149.942 204.902 150.236 204.996 150.537 204.995Z" fill="#263238"/>
<path d="M153.488 195.014C153.966 194.85 154.13 194.07 153.856 193.271C153.581 192.473 152.971 191.959 152.494 192.123C152.016 192.288 151.852 193.068 152.126 193.866C152.401 194.665 153.011 195.179 153.488 195.014Z" fill="white"/>
<path opacity="0.2" d="M166.488 205.658C166.201 205.658 165.926 205.544 165.723 205.342C165.52 205.139 165.406 204.863 165.406 204.577C165.406 204.29 165.52 204.014 165.723 203.812C165.926 203.609 166.201 203.495 166.488 203.495H190.22C190.507 203.495 190.782 203.609 190.985 203.812C191.188 204.014 191.302 204.29 191.302 204.577C191.302 204.863 191.188 205.139 190.985 205.342C190.782 205.544 190.507 205.658 190.22 205.658H166.488Z" fill="white"/>
<path d="M284.55 287.576C284.742 287.572 284.93 287.529 285.105 287.45C285.28 287.372 285.437 287.259 285.567 287.118C285.697 286.977 285.798 286.812 285.863 286.632C285.928 286.451 285.956 286.26 285.946 286.069L282.065 210.329H277.961L283.098 286.243C283.115 286.612 283.277 286.96 283.549 287.21C283.821 287.46 284.181 287.591 284.55 287.576Z" fill="#263238"/>
<path opacity="0.5" d="M284.55 287.576C284.742 287.572 284.93 287.529 285.105 287.45C285.28 287.372 285.437 287.259 285.567 287.118C285.697 286.977 285.798 286.812 285.863 286.632C285.928 286.451 285.956 286.26 285.946 286.069L282.065 210.329H277.961L283.098 286.243C283.115 286.612 283.277 286.96 283.549 287.21C283.821 287.46 284.181 287.591 284.55 287.576Z" fill="white"/>
<path opacity="0.2" d="M282.093 210.356H277.988L278.33 215.403H282.351L282.093 210.356Z" fill="black"/>
<path d="M227.179 287.576C226.988 287.572 226.799 287.529 226.624 287.45C226.45 287.371 226.292 287.258 226.162 287.118C226.032 286.977 225.931 286.812 225.866 286.632C225.801 286.451 225.773 286.26 225.783 286.068L229.643 210.356H233.747L228.617 286.271C228.586 286.629 228.42 286.963 228.154 287.205C227.887 287.447 227.539 287.579 227.179 287.576Z" fill="#263238"/>
<path opacity="0.5" d="M227.179 287.576C226.988 287.572 226.799 287.529 226.624 287.45C226.45 287.371 226.292 287.258 226.162 287.118C226.032 286.977 225.931 286.812 225.866 286.632C225.801 286.451 225.773 286.26 225.783 286.068L229.643 210.356H233.747L228.617 286.271C228.586 286.629 228.42 286.963 228.154 287.205C227.887 287.447 227.539 287.579 227.179 287.576Z" fill="white"/>
<path opacity="0.2" d="M229.379 215.403H233.399L233.741 210.356H229.637L229.379 215.403Z" fill="black"/>
<path d="M135.846 287.576C136.038 287.572 136.227 287.529 136.401 287.45C136.576 287.371 136.733 287.258 136.863 287.118C136.994 286.977 137.094 286.812 137.159 286.632C137.224 286.451 137.253 286.26 137.242 286.068L133.389 210.356H129.285L134.415 286.271C134.447 286.628 134.611 286.961 134.876 287.202C135.142 287.444 135.488 287.578 135.846 287.576Z" fill="#263238"/>
<path opacity="0.5" d="M135.846 287.576C136.038 287.572 136.227 287.529 136.401 287.45C136.576 287.371 136.733 287.258 136.863 287.118C136.994 286.977 137.094 286.812 137.159 286.632C137.224 286.451 137.253 286.26 137.242 286.068L133.389 210.356H129.285L134.415 286.271C134.447 286.628 134.611 286.961 134.876 287.202C135.142 287.444 135.488 287.578 135.846 287.576Z" fill="white"/>
<path opacity="0.2" d="M133.389 210.356H129.285L129.627 215.403H133.648L133.389 210.356Z" fill="black"/>
<path d="M78.4762 287.576C78.2846 287.572 78.0959 287.529 77.9211 287.45C77.7464 287.371 77.5893 287.258 77.4591 287.118C77.3289 286.977 77.2283 286.812 77.1632 286.632C77.0981 286.451 77.0699 286.26 77.0802 286.069L80.9681 210.356H85.0723L79.935 286.271C79.9116 286.636 79.7456 286.978 79.4727 287.222C79.1998 287.466 78.842 287.593 78.4762 287.576Z" fill="#263238"/>
<path opacity="0.5" d="M78.4762 287.576C78.2846 287.572 78.0959 287.529 77.9211 287.45C77.7464 287.371 77.5893 287.258 77.4591 287.118C77.3289 286.977 77.2283 286.812 77.1632 286.632C77.0981 286.451 77.0699 286.26 77.0802 286.069L80.9681 210.356H85.0723L79.935 286.271C79.9116 286.636 79.7456 286.978 79.4727 287.222C79.1998 287.466 78.842 287.593 78.4762 287.576Z" fill="white"/>
<path opacity="0.2" d="M80.6758 215.403H84.6963L85.0383 210.356H80.934L80.6758 215.403Z" fill="black"/>
<path d="M285.392 207.956H76.9766V210.357H285.392V207.956Z" fill="#263238"/>
<path opacity="0.3" d="M285.392 207.956H76.9766V210.357H285.392V207.956Z" fill="white"/>
<path opacity="0.2" d="M285.394 207.956H225.68V210.357H285.394V207.956Z" fill="black"/>
<path d="M290.76 205.554H71.6094V207.955H290.76V205.554Z" fill="#100E86"/>
<path opacity="0.3" d="M290.762 205.554H220.312V207.955H290.762V205.554Z" fill="black"/>
<path d="M242.297 205.659H231.883C231.554 205.659 231.238 205.528 231.005 205.295C230.772 205.062 230.641 204.746 230.641 204.416C230.641 204.087 230.772 203.771 231.005 203.538C231.238 203.305 231.554 203.174 231.883 203.174H242.297C242.627 203.174 242.943 203.305 243.176 203.538C243.409 203.771 243.54 204.087 243.54 204.416C243.54 204.746 243.409 205.062 243.176 205.295C242.943 205.528 242.627 205.659 242.297 205.659Z" fill="#100E86"/>
<path opacity="0.3" d="M242.297 205.659H231.883C231.554 205.659 231.238 205.528 231.005 205.295C230.772 205.062 230.641 204.746 230.641 204.416C230.641 204.087 230.772 203.771 231.005 203.538C231.238 203.305 231.554 203.174 231.883 203.174H242.297C242.627 203.174 242.943 203.305 243.176 203.538C243.409 203.771 243.54 204.087 243.54 204.416C243.54 204.746 243.409 205.062 243.176 205.295C242.943 205.528 242.627 205.659 242.297 205.659Z" fill="white"/>
<path d="M232.524 205.659H222.117C221.786 205.659 221.47 205.528 221.236 205.295C221.001 205.062 220.869 204.746 220.867 204.416C220.869 204.086 221.001 203.77 221.236 203.537C221.47 203.305 221.786 203.174 222.117 203.174H232.524C232.854 203.174 233.171 203.305 233.405 203.537C233.639 203.77 233.771 204.086 233.773 204.416C233.771 204.746 233.639 205.062 233.405 205.295C233.171 205.528 232.854 205.659 232.524 205.659Z" fill="#100E86"/>
<path opacity="0.5" d="M232.524 205.659H222.117C221.786 205.659 221.47 205.528 221.236 205.295C221.001 205.062 220.869 204.746 220.867 204.416C220.869 204.086 221.001 203.77 221.236 203.537C221.47 203.305 221.786 203.174 222.117 203.174H232.524C232.854 203.174 233.171 203.305 233.405 203.537C233.639 203.77 233.771 204.086 233.773 204.416C233.771 204.746 233.639 205.062 233.405 205.295C233.171 205.528 232.854 205.659 232.524 205.659Z" fill="white"/>
<path d="M197.617 167.862H195.613C195.21 167.849 194.809 167.923 194.438 168.08C194.066 168.236 193.733 168.472 193.461 168.77C193.189 169.068 192.985 169.421 192.862 169.805C192.74 170.189 192.702 170.596 192.752 170.996L194.462 190.54C194.547 191.391 194.942 192.18 195.571 192.759C196.2 193.338 197.02 193.666 197.875 193.681H199.878L197.617 167.862Z" fill="#100E86"/>
<path d="M197.617 167.862H195.613C195.21 167.849 194.809 167.923 194.438 168.08C194.066 168.236 193.733 168.472 193.461 168.77C193.189 169.068 192.985 169.421 192.862 169.805C192.74 170.189 192.702 170.596 192.752 170.996L194.462 190.54C194.547 191.391 194.942 192.18 195.571 192.759C196.2 193.338 197.02 193.666 197.875 193.681H199.878L197.617 167.862Z" fill="#100E86"/>
<path d="M214.556 202.364H212.043L213.139 189.856H215.652L214.556 202.364Z" fill="#263238"/>
<path opacity="0.3" d="M214.556 202.364H212.043L213.139 189.856H215.652L214.556 202.364Z" fill="white"/>
<path d="M231.895 193.688H199.242C198.387 193.673 197.567 193.345 196.938 192.766C196.309 192.187 195.914 191.397 195.829 190.547L194.119 171.003C194.069 170.602 194.107 170.196 194.229 169.812C194.352 169.428 194.556 169.074 194.828 168.777C195.1 168.479 195.433 168.243 195.805 168.087C196.176 167.93 196.578 167.856 196.981 167.869H229.64C230.494 167.883 231.313 168.21 231.942 168.787C232.571 169.365 232.966 170.153 233.053 171.003L234.763 190.547C234.807 190.947 234.765 191.352 234.64 191.734C234.515 192.117 234.31 192.468 234.039 192.765C233.767 193.063 233.436 193.299 233.066 193.458C232.696 193.617 232.297 193.695 231.895 193.688Z" fill="#100E86"/>
<path opacity="0.5" d="M231.895 193.688H199.242C198.387 193.673 197.567 193.345 196.938 192.766C196.309 192.187 195.914 191.397 195.829 190.547L194.119 171.003C194.069 170.602 194.107 170.196 194.229 169.812C194.352 169.428 194.556 169.074 194.828 168.777C195.1 168.479 195.433 168.243 195.805 168.087C196.176 167.93 196.578 167.856 196.981 167.869H229.64C230.494 167.883 231.313 168.21 231.942 168.787C232.571 169.365 232.966 170.153 233.053 171.003L234.763 190.547C234.807 190.947 234.765 191.352 234.64 191.734C234.515 192.117 234.31 192.468 234.039 192.765C233.767 193.063 233.436 193.299 233.066 193.458C232.696 193.617 232.297 193.695 231.895 193.688Z" fill="white"/>
<path opacity="0.5" d="M229.747 169.125H197.095C196.855 169.121 196.617 169.168 196.397 169.262C196.177 169.357 195.979 169.497 195.817 169.674C195.656 169.851 195.533 170.061 195.459 170.289C195.384 170.516 195.359 170.758 195.385 170.996L197.095 190.54C197.148 191.048 197.384 191.518 197.759 191.864C198.134 192.21 198.623 192.407 199.133 192.418H231.786C232.026 192.421 232.264 192.373 232.484 192.278C232.704 192.182 232.902 192.041 233.063 191.864C233.225 191.686 233.347 191.476 233.422 191.248C233.496 191.02 233.521 190.779 233.496 190.54L231.786 170.996C231.731 170.49 231.494 170.02 231.119 169.676C230.744 169.332 230.256 169.136 229.747 169.125Z" fill="white"/>
<path d="M207.258 205.658C207.314 203.947 208.032 202.324 209.263 201.134C210.493 199.943 212.138 199.277 213.85 199.277C215.563 199.277 217.208 199.943 218.438 201.134C219.668 202.324 220.387 203.947 220.443 205.658H207.258Z" fill="#100E86"/>
<path opacity="0.5" d="M207.258 205.658C207.314 203.947 208.032 202.324 209.263 201.134C210.493 199.943 212.138 199.277 213.85 199.277C215.563 199.277 217.208 199.943 218.438 201.134C219.668 202.324 220.387 203.947 220.443 205.658H207.258Z" fill="white"/>
<path d="M222.38 173.927H204.42C204.331 173.926 204.242 173.943 204.16 173.979C204.078 174.014 204.005 174.067 203.945 174.133C203.885 174.199 203.839 174.277 203.812 174.362C203.784 174.447 203.775 174.537 203.785 174.625C203.805 174.814 203.894 174.989 204.034 175.118C204.174 175.246 204.356 175.319 204.546 175.323H222.506C222.595 175.325 222.683 175.307 222.765 175.272C222.847 175.237 222.921 175.184 222.981 175.118C223.041 175.052 223.086 174.974 223.114 174.889C223.142 174.804 223.151 174.714 223.141 174.625C223.122 174.436 223.034 174.26 222.894 174.131C222.753 174.002 222.57 173.93 222.38 173.927Z" fill="white"/>
<path d="M220.157 176.852H204.682C204.593 176.851 204.504 176.868 204.422 176.904C204.34 176.939 204.267 176.991 204.207 177.057C204.146 177.124 204.101 177.202 204.074 177.287C204.046 177.372 204.037 177.461 204.047 177.55C204.066 177.74 204.154 177.916 204.294 178.044C204.434 178.173 204.617 178.246 204.808 178.248H220.282C220.372 178.25 220.46 178.232 220.542 178.197C220.624 178.161 220.698 178.109 220.758 178.043C220.818 177.977 220.863 177.899 220.891 177.814C220.918 177.729 220.927 177.639 220.918 177.55C220.897 177.361 220.809 177.186 220.669 177.058C220.529 176.929 220.347 176.856 220.157 176.852Z" fill="white"/>
<path d="M221.964 179.777H204.94C204.851 179.775 204.762 179.793 204.68 179.828C204.598 179.864 204.524 179.916 204.464 179.982C204.404 180.048 204.359 180.126 204.331 180.211C204.304 180.296 204.295 180.386 204.305 180.475C204.32 180.664 204.406 180.841 204.546 180.97C204.686 181.1 204.868 181.172 205.059 181.173H222.069C222.158 181.176 222.248 181.159 222.33 181.124C222.413 181.089 222.487 181.036 222.547 180.97C222.607 180.904 222.653 180.825 222.68 180.74C222.707 180.654 222.715 180.564 222.704 180.475C222.687 180.288 222.602 180.114 222.466 179.986C222.33 179.857 222.151 179.783 221.964 179.777Z" fill="white"/>
<path d="M219.714 182.695H205.209C205.12 182.693 205.031 182.711 204.949 182.746C204.868 182.781 204.794 182.834 204.734 182.9C204.674 182.966 204.628 183.044 204.601 183.129C204.573 183.214 204.564 183.304 204.574 183.393C204.595 183.581 204.683 183.757 204.823 183.885C204.963 184.014 205.145 184.087 205.335 184.091H219.867C219.957 184.092 220.045 184.075 220.127 184.039C220.209 184.004 220.283 183.951 220.343 183.885C220.403 183.819 220.448 183.741 220.476 183.656C220.503 183.571 220.513 183.481 220.503 183.393C220.483 183.198 220.391 183.018 220.245 182.889C220.099 182.759 219.909 182.69 219.714 182.695Z" fill="white"/>
<g opacity="0.6">
<path opacity="0.6" d="M222.38 173.927H204.42C204.331 173.926 204.242 173.943 204.16 173.979C204.078 174.014 204.005 174.067 203.945 174.133C203.885 174.199 203.839 174.277 203.812 174.362C203.784 174.447 203.775 174.537 203.785 174.625C203.805 174.814 203.894 174.989 204.034 175.118C204.174 175.246 204.356 175.319 204.546 175.323H222.506C222.595 175.325 222.683 175.307 222.765 175.272C222.847 175.237 222.921 175.184 222.981 175.118C223.041 175.052 223.086 174.974 223.114 174.889C223.142 174.804 223.151 174.714 223.141 174.625C223.122 174.436 223.034 174.26 222.894 174.131C222.753 174.002 222.57 173.93 222.38 173.927Z" fill="white"/>
<path opacity="0.6" d="M220.153 176.852H204.678C204.589 176.851 204.5 176.868 204.418 176.904C204.336 176.939 204.263 176.991 204.203 177.057C204.143 177.124 204.097 177.202 204.07 177.287C204.042 177.372 204.033 177.461 204.043 177.55C204.062 177.74 204.15 177.916 204.29 178.044C204.431 178.173 204.613 178.246 204.804 178.248H220.278C220.368 178.25 220.456 178.232 220.538 178.197C220.62 178.161 220.694 178.109 220.754 178.043C220.814 177.977 220.859 177.899 220.887 177.814C220.914 177.729 220.924 177.639 220.914 177.55C220.893 177.361 220.805 177.186 220.665 177.058C220.525 176.929 220.343 176.856 220.153 176.852Z" fill="white"/>
<path opacity="0.6" d="M221.96 179.776H204.936C204.847 179.775 204.758 179.792 204.676 179.828C204.594 179.863 204.521 179.916 204.46 179.982C204.4 180.048 204.355 180.126 204.327 180.211C204.3 180.296 204.291 180.386 204.301 180.474C204.316 180.664 204.403 180.841 204.542 180.97C204.682 181.099 204.864 181.171 205.055 181.172H222.065C222.154 181.175 222.244 181.158 222.326 181.123C222.409 181.088 222.483 181.036 222.543 180.97C222.603 180.903 222.649 180.825 222.676 180.739C222.703 180.654 222.711 180.563 222.7 180.474C222.683 180.288 222.599 180.114 222.462 179.985C222.326 179.857 222.147 179.783 221.96 179.776Z" fill="white"/>
<path opacity="0.6" d="M219.714 182.694H205.209C205.12 182.693 205.031 182.71 204.949 182.745C204.868 182.781 204.794 182.833 204.734 182.899C204.674 182.965 204.628 183.044 204.601 183.128C204.573 183.213 204.564 183.303 204.574 183.392C204.595 183.581 204.683 183.756 204.823 183.885C204.963 184.013 205.145 184.086 205.335 184.09H219.867C219.957 184.092 220.045 184.074 220.127 184.039C220.209 184.003 220.283 183.951 220.343 183.885C220.403 183.819 220.448 183.741 220.476 183.656C220.503 183.571 220.513 183.481 220.503 183.392C220.483 183.198 220.391 183.018 220.245 182.888C220.099 182.759 219.909 182.69 219.714 182.694Z" fill="white"/>
</g>
<path d="M258.844 157.546C258.844 157.546 254.712 158.334 254.782 155.814C254.852 153.295 259.117 154.467 259.117 154.467L258.844 157.546Z" fill="#1A2E35"/>
<path opacity="0.4" d="M258.844 157.546C258.844 157.546 254.712 158.334 254.782 155.814C254.852 153.295 259.117 154.467 259.117 154.467L258.844 157.546Z" fill="black"/>
<path d="M256.263 163.576L254.371 166.55C254.719 166.77 255.114 166.906 255.523 166.946C255.933 166.986 256.346 166.929 256.73 166.78L256.263 163.576Z" fill="#A24E3F"/>
<path d="M255.117 163.164C255.117 163.548 255.313 163.862 255.564 163.862C255.815 163.862 256.039 163.541 256.032 163.164C256.025 162.787 255.843 162.466 255.585 162.466C255.327 162.466 255.131 162.78 255.117 163.164Z" fill="#1A2E35"/>
<path d="M269.909 160.77C270.077 165.866 270.258 168.022 267.948 170.863C264.29 173.879 258.176 174.235 256.48 169.293C254.965 164.839 254.944 157.273 259.711 154.76C260.761 154.214 261.933 153.944 263.116 153.976C264.3 154.007 265.456 154.339 266.475 154.94C267.495 155.541 268.345 156.391 268.946 157.411C269.547 158.431 269.878 159.587 269.909 160.77Z" fill="#B97964"/>
<path opacity="0.2" d="M262.755 173.034L262.721 172.783C262.701 172.653 262.653 172.529 262.582 172.419C262.511 172.308 262.417 172.214 262.307 172.142C262.198 172.071 262.074 172.023 261.944 172.002C261.814 171.981 261.682 171.988 261.555 172.022L259.461 172.587C260.505 173.008 261.637 173.162 262.755 173.034Z" fill="black"/>
<path d="M256.501 161.426C256.468 161.431 256.433 161.427 256.402 161.415C256.37 161.402 256.342 161.382 256.32 161.357C256.164 161.162 255.965 161.008 255.738 160.906C255.511 160.804 255.263 160.758 255.015 160.77C254.962 160.774 254.91 160.759 254.869 160.726C254.827 160.694 254.8 160.648 254.791 160.596C254.787 160.569 254.789 160.543 254.796 160.517C254.802 160.491 254.814 160.467 254.831 160.447C254.847 160.426 254.867 160.408 254.89 160.396C254.914 160.383 254.939 160.375 254.966 160.372C255.279 160.344 255.593 160.393 255.883 160.515C256.172 160.637 256.428 160.827 256.627 161.07C256.665 161.108 256.686 161.16 256.686 161.213C256.686 161.267 256.665 161.319 256.627 161.357C256.612 161.376 256.593 161.393 256.572 161.405C256.55 161.417 256.526 161.424 256.501 161.426Z" fill="#1A2E35"/>
<path d="M262.566 171.75L263.683 179.309L270 178.004L267.976 170.263L262.566 171.75Z" fill="#B97964"/>
<path d="M260.025 164.414L258.957 165.265C258.503 163.328 258.644 161.299 259.362 159.444L258.092 157.511L258.287 156.205C258.287 156.205 256.312 153.008 257.855 152.059C259.397 151.11 260.381 153.085 260.381 153.085C260.381 153.085 261.442 149.93 263.299 150.363C265.156 150.796 264.206 152.771 264.206 152.771C264.206 152.771 267.208 150.6 268.625 151.668C270.042 152.736 268.269 154.23 268.269 154.23C268.269 154.23 271.863 154.314 271.982 155.731C272.101 157.148 270.516 157.273 270.516 157.273C270.516 157.273 272.89 158.097 272.848 159.367C272.806 160.638 270.956 160.707 270.956 160.707C270.956 160.707 273.364 162.243 272.848 163.583C272.719 163.948 272.453 164.248 272.106 164.419C271.759 164.59 271.359 164.618 270.991 164.498C270.991 164.498 272.24 166.096 271.822 166.961C271.675 167.216 271.458 167.424 271.197 167.559C270.936 167.694 270.641 167.751 270.349 167.722L268.297 171.366C267.754 171.182 267.173 171.144 266.611 171.254C266.049 171.364 265.526 171.619 265.093 171.994L261.407 165.935L260.025 164.414Z" fill="#1A2E35"/>
<path d="M259.389 163.039C259.298 163.547 259.309 164.068 259.42 164.573C259.532 165.077 259.742 165.554 260.038 165.977C260.834 167.101 262.132 166.598 262.621 165.398C263.081 164.309 263.214 162.417 262.055 161.719C261.801 161.568 261.513 161.483 261.218 161.472C260.922 161.461 260.629 161.523 260.364 161.655C260.099 161.786 259.871 161.981 259.7 162.223C259.53 162.464 259.423 162.745 259.389 163.039Z" fill="#B97964"/>
<path d="M271.277 177.18L270.028 173.648C268.43 173.051 266.707 172.866 265.019 173.11C263.33 173.354 261.731 174.019 260.367 175.044L263.913 177.138L271.277 177.18Z" fill="#263238"/>
<path opacity="0.2" d="M270.699 175.554C267.845 174.884 264.858 175.076 262.113 176.105L263.914 177.18H271.278L270.699 175.554Z" fill="black"/>
<path d="M249.184 200.458L244.521 198.12C244.386 198.06 244.24 198.029 244.092 198.029C243.944 198.029 243.798 198.06 243.663 198.12L239.852 199.628C239.666 199.7 239.505 199.823 239.387 199.984C239.269 200.145 239.201 200.336 239.189 200.535L239.119 201.778C239.109 201.95 239.142 202.122 239.215 202.279C239.288 202.436 239.398 202.572 239.536 202.676C239.674 202.781 239.835 202.849 240.006 202.876C240.177 202.903 240.351 202.888 240.515 202.832L241.911 202.343C244.16 203.252 246.661 203.326 248.961 202.552L249.184 200.458Z" fill="#B97964"/>
<path d="M231.478 200.731L226.85 198.365C226.717 198.299 226.572 198.262 226.424 198.256C226.276 198.25 226.129 198.275 225.991 198.33L222.173 199.872C221.988 199.948 221.827 200.074 221.711 200.238C221.595 200.401 221.528 200.594 221.517 200.794L221.447 202.05C221.437 202.223 221.469 202.396 221.541 202.554C221.613 202.712 221.723 202.849 221.862 202.954C222 203.059 222.161 203.128 222.333 203.156C222.504 203.183 222.679 203.168 222.843 203.111L224.239 202.622C226.487 203.539 228.991 203.613 231.289 202.832L231.478 200.731Z" fill="#B97964"/>
<path d="M273.83 178.513C271.547 180.454 265.838 186.149 258.425 199.488H248.953C248.953 199.488 247.613 200.577 248.164 203.32C248.164 203.32 257.88 206.775 260.519 205.596C263.157 204.416 271.687 191.342 275.512 186.687C276.838 185.074 279.121 182.918 275.826 178.723C275.711 178.575 275.567 178.452 275.403 178.362C275.239 178.271 275.059 178.214 274.872 178.195C274.686 178.175 274.498 178.193 274.319 178.248C274.14 178.303 273.973 178.393 273.83 178.513Z" fill="#263238"/>
<path opacity="0.2" d="M263.249 197.227L260.973 195.084C260.15 196.48 259.298 197.911 258.426 199.488H256.164L257.602 205.77C258.584 205.955 259.597 205.902 260.554 205.617C261.252 205.303 262.348 204.172 263.661 202.587L263.249 197.227Z" fill="black"/>
<path d="M261.531 269.651L263.695 280.135L267.96 279.5L266.934 269.295L261.531 269.651Z" fill="#B97964"/>
<path opacity="0.2" d="M267.611 276.024L266.934 269.295L261.531 269.651L262.885 276.206L267.611 276.024Z" fill="black"/>
<path d="M286.876 221.315C286.876 221.315 289.04 232.678 281.627 232.678C274.214 232.678 264.338 235.107 264.338 235.107C264.338 235.107 267.178 237.802 267.828 272.192L261.671 272.457C261.671 272.457 251.446 233.642 253.463 229.377C256.304 223.367 271.017 221.315 271.017 221.315H286.876Z" fill="#100E86"/>
<path d="M260.961 271.243L268.074 271.033L268.437 274.502L261.415 274.809L260.961 271.243Z" fill="#100E86"/>
<path opacity="0.5" d="M260.961 271.243L268.074 271.033L268.437 274.502L261.415 274.809L260.961 271.243Z" fill="white"/>
<path d="M261.75 280.791C261.292 280.9 260.81 280.836 260.396 280.61C260.343 280.548 260.31 280.471 260.302 280.39C260.295 280.308 260.313 280.227 260.354 280.156C260.382 280.091 260.423 280.031 260.475 279.982C260.527 279.933 260.588 279.895 260.655 279.87C261.353 279.577 263.028 280.275 263.105 280.303C263.124 280.312 263.14 280.327 263.152 280.346C263.163 280.364 263.168 280.386 263.167 280.408C263.164 280.429 263.155 280.449 263.142 280.467C263.128 280.484 263.111 280.497 263.091 280.505C262.653 280.639 262.204 280.734 261.75 280.791ZM260.934 280.017C260.867 280.023 260.801 280.04 260.738 280.066C260.696 280.079 260.658 280.102 260.625 280.132C260.592 280.162 260.567 280.199 260.55 280.24C260.487 280.38 260.55 280.435 260.55 280.47C260.787 280.736 261.911 280.603 262.728 280.408C262.168 280.169 261.57 280.036 260.962 280.017H260.934Z" fill="#100E86"/>
<path d="M263.104 280.505H263.055C262.497 280.338 261.317 279.5 261.352 278.991C261.352 278.865 261.422 278.711 261.708 278.642C261.918 278.597 262.136 278.637 262.316 278.753C262.778 279.193 263.09 279.767 263.209 280.394C263.217 280.409 263.221 280.425 263.221 280.442C263.221 280.46 263.217 280.476 263.209 280.491C263.196 280.505 263.178 280.514 263.159 280.517C263.14 280.519 263.121 280.515 263.104 280.505ZM261.799 278.837H261.75C261.569 278.879 261.562 278.956 261.555 278.984C261.555 279.284 262.357 279.954 262.951 280.219C262.837 279.72 262.571 279.269 262.19 278.928C262.081 278.85 261.946 278.818 261.813 278.837H261.799Z" fill="#100E86"/>
<path d="M263.493 279.828L268.379 279.249C268.468 279.237 268.558 279.257 268.635 279.304C268.711 279.351 268.769 279.423 268.798 279.507L270.145 283.346C270.175 283.427 270.189 283.512 270.186 283.598C270.182 283.684 270.162 283.769 270.125 283.847C270.089 283.925 270.037 283.994 269.974 284.052C269.91 284.11 269.836 284.155 269.755 284.184L269.615 284.219C267.863 284.4 266.299 284.491 264.122 284.749C261.553 285.063 262.237 285.293 259.236 285.698C257.421 285.936 256.842 283.911 257.595 283.716C261.085 282.843 261.316 281.734 262.53 280.31C262.783 280.039 263.125 279.868 263.493 279.828Z" fill="#263238"/>
<path opacity="0.1" d="M266.301 230.766H255.468L253.172 231.736C253.387 235.02 253.828 238.285 254.491 241.508L265.387 238.367C264.787 235.54 264.319 235.1 264.319 235.1C264.319 235.1 265.31 234.856 266.895 234.521L266.301 230.766Z" fill="black"/>
<path opacity="0.1" d="M273.613 231.555C273.482 232.151 273.405 232.759 273.383 233.369C275.879 232.985 278.397 232.752 280.921 232.671C281.725 231.83 282.201 230.729 282.265 229.567C282.329 228.405 281.976 227.258 281.27 226.333L276.929 228.309L273.613 231.555Z" fill="black"/>
<path d="M249.047 272.464L253.067 282.236L256.99 281.447L254.296 270.991L249.047 272.464Z" fill="#B97964"/>
<path opacity="0.2" d="M256.09 277.971L254.296 270.991L249.047 272.464L251.664 278.816L256.09 277.971Z" fill="black"/>
<path d="M281.536 221.964C281.536 221.964 283.707 233.327 276.287 233.327C268.867 233.327 246.615 240.168 246.615 240.168C246.615 240.168 249.889 241.375 255.57 273.099L249.142 274.558C249.142 274.558 233.088 239.965 235.091 235.701C237.932 229.698 265.663 221.964 265.663 221.964H281.536Z" fill="#100E86"/>
<path d="M248.355 274.139L255.985 272.506L256.773 275.661L249.458 277.35L248.355 274.139Z" fill="#100E86"/>
<path opacity="0.5" d="M248.355 274.139L255.985 272.506L256.773 275.661L249.458 277.35L248.355 274.139Z" fill="white"/>
<path d="M250.643 282.69C250.186 282.791 249.709 282.727 249.296 282.509C249.241 282.446 249.208 282.368 249.201 282.285C249.193 282.202 249.212 282.119 249.254 282.048C249.282 281.982 249.323 281.923 249.374 281.874C249.426 281.825 249.487 281.786 249.554 281.762C250.252 281.469 251.927 282.167 251.997 282.194C252.017 282.204 252.034 282.219 252.046 282.237C252.058 282.256 252.065 282.277 252.067 282.299C252.065 282.321 252.057 282.342 252.043 282.36C252.029 282.377 252.011 282.39 251.99 282.397C251.55 282.533 251.099 282.631 250.643 282.69ZM249.833 281.908C249.766 281.914 249.7 281.93 249.638 281.957C249.595 281.969 249.555 281.991 249.522 282.021C249.489 282.052 249.464 282.09 249.449 282.132C249.386 282.271 249.449 282.327 249.449 282.362C249.687 282.627 250.81 282.502 251.627 282.299C251.06 282.054 250.451 281.919 249.833 281.901V281.908Z" fill="#100E86"/>
<path d="M251.978 282.39H251.93C251.371 282.222 250.185 281.385 250.22 280.875C250.22 280.749 250.289 280.596 250.575 280.533C250.678 280.508 250.786 280.504 250.89 280.522C250.994 280.541 251.094 280.58 251.183 280.638C251.649 281.076 251.964 281.65 252.083 282.278C252.091 282.293 252.095 282.31 252.095 282.327C252.095 282.344 252.091 282.361 252.083 282.376C252.07 282.39 252.052 282.399 252.033 282.401C252.014 282.404 251.995 282.4 251.978 282.39ZM250.673 280.722H250.582C250.394 280.763 250.394 280.84 250.387 280.868C250.387 281.175 251.19 281.845 251.783 282.104C251.672 281.605 251.408 281.154 251.029 280.812C250.92 280.735 250.785 280.702 250.652 280.722H250.673Z" fill="#100E86"/>
<path d="M252.368 281.713L257.219 281.133C257.308 281.12 257.399 281.139 257.476 281.187C257.552 281.234 257.61 281.306 257.638 281.392L258.992 285.231C259.05 285.394 259.041 285.575 258.967 285.732C258.892 285.889 258.758 286.01 258.594 286.068L258.462 286.103C256.71 286.285 255.146 286.375 252.968 286.641C250.393 286.948 251.084 287.178 248.082 287.583C246.268 287.827 245.681 285.796 246.442 285.601C249.932 284.735 250.163 283.618 251.37 282.194C251.634 281.918 251.988 281.747 252.368 281.713Z" fill="#263238"/>
<path d="M255.239 178.102C255.235 177.881 255.275 177.662 255.358 177.457C255.441 177.253 255.565 177.067 255.721 176.911C255.878 176.755 256.064 176.633 256.269 176.551C256.474 176.469 256.693 176.429 256.914 176.433L271.216 176.713C272.931 176.747 274.607 177.23 276.076 178.114C277.546 178.999 278.758 180.253 279.592 181.752C282.907 187.671 287.27 199.782 287.165 222.578H263.433C263.433 222.578 255.378 192.99 255.239 178.102Z" fill="#263238"/>
<path opacity="0.4" d="M255.586 183.853C255.928 187.28 256.486 191.056 257.163 194.874C260.758 187.343 258.832 181.18 258.832 181.18L255.586 183.853Z" fill="black"/>
<path d="M255.286 177.068C253.617 179.016 251.028 182.911 243.182 197.192L231.184 199.746C231.184 199.746 229.843 200.849 230.395 203.627C230.395 203.627 243.273 205.84 245.911 204.646C248.55 203.453 255.286 193.318 258.378 188.076C259.655 185.912 260.332 181.647 256.493 177.082C256.419 176.994 256.328 176.924 256.224 176.874C256.12 176.825 256.007 176.799 255.893 176.798C255.778 176.797 255.664 176.82 255.559 176.867C255.455 176.913 255.361 176.982 255.286 177.068Z" fill="#263238"/>
<path d="M297.059 287.436L279.463 280.959L261.677 287.443C261.535 287.495 261.382 287.511 261.232 287.492C261.082 287.472 260.939 287.416 260.815 287.329C260.691 287.242 260.59 287.126 260.52 286.992C260.45 286.858 260.414 286.708 260.414 286.557C260.415 286.378 260.467 286.203 260.564 286.053C260.66 285.902 260.797 285.782 260.959 285.705L279.463 277.106L297.785 285.691C297.946 285.768 298.082 285.889 298.177 286.039C298.272 286.19 298.323 286.365 298.322 286.543C298.325 286.695 298.291 286.846 298.222 286.983C298.153 287.119 298.052 287.236 297.927 287.324C297.803 287.412 297.659 287.469 297.507 287.488C297.356 287.508 297.202 287.49 297.059 287.436Z" fill="#263238"/>
<path opacity="0.3" d="M297.059 287.436L279.463 280.959L261.677 287.443C261.535 287.495 261.382 287.511 261.232 287.492C261.082 287.472 260.939 287.416 260.815 287.329C260.691 287.242 260.59 287.126 260.52 286.992C260.45 286.858 260.414 286.708 260.414 286.557C260.415 286.378 260.467 286.203 260.564 286.053C260.66 285.902 260.797 285.782 260.959 285.705L279.463 277.106L297.785 285.691C297.946 285.768 298.082 285.889 298.177 286.039C298.272 286.19 298.323 286.365 298.322 286.543C298.325 286.695 298.291 286.846 298.222 286.983C298.153 287.119 298.052 287.236 297.927 287.324C297.803 287.412 297.659 287.469 297.507 287.488C297.356 287.508 297.202 287.49 297.059 287.436Z" fill="white"/>
<path opacity="0.2" d="M275.316 282.473L279.463 280.959L283.42 282.417V278.976L279.463 277.12L275.316 279.046V282.473Z" fill="black"/>
<path d="M279.372 287.576C278.986 287.576 278.614 287.434 278.327 287.176C278.039 286.919 277.857 286.564 277.816 286.18L277.32 280.966V237.69H281.425V280.966L280.922 286.18C280.881 286.563 280.7 286.917 280.414 287.174C280.128 287.432 279.757 287.575 279.372 287.576Z" fill="#263238"/>
<path opacity="0.3" d="M279.372 287.576C278.986 287.576 278.614 287.434 278.327 287.176C278.039 286.919 277.857 286.564 277.816 286.18L277.32 280.966V237.69H281.425V280.966L280.922 286.18C280.881 286.563 280.7 286.917 280.414 287.174C280.128 287.432 279.757 287.575 279.372 287.576Z" fill="white"/>
<path opacity="0.2" d="M281.425 237.669H277.32V242.709H281.425V237.669Z" fill="black"/>
<path d="M307.915 233.732C303.271 232.55 298.509 231.894 293.718 231.778C288.783 231.652 270.335 231.778 265.951 231.778C260.608 231.775 255.285 232.438 250.107 233.753C246.854 234.584 247.852 239.275 250.805 239.337C251.07 239.337 306.854 239.337 307.056 239.337C310.114 239.449 311.237 234.577 307.915 233.732Z" fill="#100E86"/>
<path opacity="0.3" d="M307.915 233.732C303.271 232.55 298.509 231.894 293.718 231.778C288.783 231.652 270.335 231.778 265.951 231.778C260.608 231.775 255.285 232.438 250.107 233.753C246.854 234.584 247.852 239.275 250.805 239.337C251.07 239.337 306.854 239.337 307.056 239.337C310.114 239.449 311.237 234.577 307.915 233.732Z" fill="black"/>
<path d="M251.613 239.212C261.019 236.817 270.874 236.817 280.28 239.212C283.826 240.112 285.34 234.633 281.794 233.732C271.396 231.094 260.504 231.094 250.105 233.732C246.566 234.633 248.067 240.119 251.613 239.212Z" fill="#100E86"/>
<g opacity="0.3">
<path opacity="0.3" d="M251.613 239.212C261.019 236.817 270.874 236.817 280.28 239.212C283.826 240.112 285.34 234.633 281.794 233.732C271.396 231.094 260.504 231.094 250.105 233.732C246.566 234.633 248.067 240.119 251.613 239.212Z" fill="white"/>
</g>
<path d="M292.99 193.074C292.67 193.066 292.355 193.147 292.078 193.307C291.801 193.467 291.573 193.7 291.42 193.981C283.913 206.566 281.218 221.443 283.832 235.861C283.867 236.23 284.034 236.575 284.302 236.831C284.57 237.087 284.921 237.239 285.291 237.257C286.429 237.334 306.678 237.257 307.418 237.257C307.718 237.264 308.016 237.205 308.29 237.084C308.565 236.962 308.809 236.782 309.006 236.555C309.203 236.329 309.347 236.061 309.428 235.772C309.51 235.483 309.526 235.18 309.477 234.884C307.112 221.459 309.672 207.631 316.687 195.942C317.553 194.505 316.275 193.15 314.984 193.15C314.398 193.06 294.281 193.102 292.99 193.074Z" fill="#100E86"/>
<path opacity="0.2" d="M292.99 193.074C292.67 193.066 292.355 193.147 292.078 193.307C291.801 193.467 291.573 193.7 291.42 193.981C283.913 206.566 281.218 221.443 283.832 235.861C283.867 236.23 284.034 236.575 284.302 236.831C284.57 237.087 284.921 237.239 285.291 237.257C286.429 237.334 306.678 237.257 307.418 237.257C307.718 237.264 308.016 237.205 308.29 237.084C308.565 236.962 308.809 236.782 309.006 236.555C309.203 236.329 309.347 236.061 309.428 235.772C309.51 235.483 309.526 235.18 309.477 234.884C307.112 221.459 309.672 207.631 316.687 195.942C317.553 194.505 316.275 193.15 314.984 193.15C314.398 193.06 294.281 193.102 292.99 193.074Z" fill="black"/>
<path d="M287.483 234.828C285.121 221.403 287.681 207.576 294.693 195.887C295.957 193.793 292.676 191.887 291.42 193.981C283.913 206.566 281.218 221.443 283.832 235.861C284.265 238.255 287.916 237.257 287.483 234.856V234.828Z" fill="#100E86"/>
<g opacity="0.2">
<path opacity="0.2" d="M287.483 234.828C285.121 221.403 287.681 207.576 294.693 195.887C295.957 193.793 292.676 191.887 291.42 193.981C283.913 206.566 281.218 221.443 283.832 235.861C284.265 238.255 287.916 237.257 287.483 234.856V234.828Z" fill="white"/>
</g>
</svg>
