<svg width="26" height="26" viewBox="0 0 26 26" fill="none" xmlns="http://www.w3.org/2000/svg">
<path d="M12.9295 12.4938C14.8795 12.4938 16.3962 10.9049 16.3962 8.95495C16.3962 7.00495 14.8073 5.48828 12.8573 5.48828C10.9073 5.48828 9.39062 7.07717 9.39062 8.95495C9.39062 10.9049 10.9795 12.4938 12.9295 12.4938ZM12.8573 6.93273C12.9295 6.93273 12.9295 6.93273 12.8573 6.93273C14.0128 6.93273 14.9517 7.87161 14.9517 9.02717C14.9517 10.1827 14.0128 11.0494 12.8573 11.0494C11.7017 11.0494 10.8351 10.1105 10.8351 9.02717C10.8351 7.87161 11.774 6.93273 12.8573 6.93273Z" fill="#7C7C7C"/>
<path d="M23.6193 12.061C22.247 10.8332 20.4415 10.1832 18.5637 10.2554H17.9859C17.8415 10.8332 17.6248 11.3388 17.3359 11.7721C17.7693 11.6999 18.1304 11.6999 18.5637 11.6999C19.9359 11.6277 21.3082 12.061 22.3915 12.8554V18.0554H23.8359V12.2777L23.6193 12.061Z" fill="#7C7C7C"/>
<path d="M16.9017 5.63325C17.2628 4.76658 18.274 4.33325 19.2128 4.69436C20.0795 5.05547 20.5128 6.06658 20.1517 7.00547C19.8628 7.65547 19.2128 8.0888 18.5628 8.0888C18.4184 8.0888 18.2017 8.0888 18.0573 8.01658C18.1295 8.37769 18.1295 8.7388 18.1295 9.02769V9.46102C18.274 9.46102 18.4184 9.53325 18.5628 9.53325C20.3684 9.53325 21.8128 8.0888 21.8128 6.35547C21.8128 4.54991 20.3684 3.10547 18.6351 3.10547C17.4795 3.10547 16.4684 3.68325 15.8906 4.69436C16.2517 4.91102 16.6128 5.19991 16.9017 5.63325Z" fill="#7C7C7C"/>
<path d="M8.66406 11.8444C8.37517 11.411 8.15851 10.9055 8.01406 10.3277H7.43628C5.55851 10.2555 3.75295 10.9055 2.38073 12.061L2.16406 12.2777V18.0555H3.60851V12.8555C4.76406 12.061 6.06406 11.6277 7.43628 11.6999C7.86962 11.6999 8.30295 11.7722 8.66406 11.8444Z" fill="#7C7C7C"/>
<path d="M7.43699 9.46047C7.58143 9.46047 7.72587 9.46047 7.87032 9.38824V8.95491C7.87032 8.5938 7.87032 8.23269 7.94254 7.9438C7.7981 8.01602 7.58143 8.01602 7.43699 8.01602C6.4981 8.01602 5.70365 7.22158 5.70365 6.28269C5.70365 5.3438 6.4981 4.54936 7.43699 4.54936C8.15921 4.54936 8.80921 4.98269 9.0981 5.63269C9.38699 5.27158 9.82032 4.91047 10.1814 4.62158C9.24254 3.10491 7.29254 2.59936 5.77587 3.53824C4.25921 4.47713 3.75365 6.42713 4.69254 7.9438C5.27032 8.88269 6.28143 9.46047 7.43699 9.46047Z" fill="#7C7C7C"/>
<path d="M18.8465 16.3949L18.7021 16.1782C17.2576 14.5893 15.2354 13.6504 13.0687 13.7226C10.9021 13.6504 8.80764 14.5893 7.36319 16.1782L7.21875 16.3949V21.8837C7.21875 22.5337 7.72431 23.1115 8.44653 23.1115H17.691C18.341 23.1115 18.9187 22.5337 18.9187 21.8837V16.3949H18.8465ZM17.4021 21.6671H8.66319V16.9004C9.81875 15.7449 11.4076 15.1671 13.0687 15.1671C14.6576 15.0949 16.2465 15.7449 17.4021 16.9004V21.6671Z" fill="#7C7C7C"/>
</svg>
