<svg width="24" height="24" viewBox="0 0 24 24" fill="none" xmlns="http://www.w3.org/2000/svg">
<path d="M19.7531 9.99934C19.7531 9.80043 19.6741 9.60966 19.5334 9.46901C19.3928 9.32836 19.202 9.24934 19.0031 9.24934C18.8042 9.24934 18.6134 9.32836 18.4728 9.46901C18.3321 9.60966 18.2531 9.80043 18.2531 9.99934H19.7531ZM5.75308 9.99934C5.75308 9.80043 5.67407 9.60966 5.53341 9.46901C5.39276 9.32836 5.202 9.24934 5.00308 9.24934C4.80417 9.24934 4.61341 9.32836 4.47275 9.46901C4.3321 9.60966 4.25308 9.80043 4.25308 9.99934H5.75308ZM20.4731 12.5293C20.5417 12.603 20.6245 12.6621 20.7165 12.7031C20.8085 12.7441 20.9079 12.7662 21.0086 12.7679C21.1093 12.7697 21.2093 12.7512 21.3027 12.7135C21.3961 12.6757 21.4809 12.6196 21.5521 12.5484C21.6233 12.4772 21.6795 12.3923 21.7172 12.2989C21.7549 12.2055 21.7735 12.1055 21.7717 12.0048C21.7699 11.9041 21.7479 11.8048 21.7069 11.7128C21.6659 11.6208 21.6068 11.538 21.5331 11.4693L20.4731 12.5293ZM12.0031 2.99934L12.5331 2.46934C12.3925 2.32889 12.2018 2.25 12.0031 2.25C11.8043 2.25 11.6137 2.32889 11.4731 2.46934L12.0031 2.99934ZM2.47308 11.4693C2.3994 11.538 2.34029 11.6208 2.2993 11.7128C2.25831 11.8048 2.23627 11.9041 2.23449 12.0048C2.23271 12.1055 2.25124 12.2055 2.28896 12.2989C2.32668 12.3923 2.38283 12.4772 2.45404 12.5484C2.52526 12.6196 2.6101 12.6757 2.70349 12.7135C2.79687 12.7512 2.8969 12.7697 2.99761 12.7679C3.09831 12.7662 3.19762 12.7441 3.28962 12.7031C3.38162 12.6621 3.46442 12.603 3.53308 12.5293L2.47308 11.4693ZM7.00308 21.7493H17.0031V20.2493H7.00308V21.7493ZM19.7531 18.9993V9.99934H18.2531V18.9993H19.7531ZM5.75308 18.9993V9.99934H4.25308V18.9993H5.75308ZM21.5331 11.4693L12.5331 2.46934L11.4731 3.52934L20.4731 12.5293L21.5331 11.4693ZM11.4731 2.46934L2.47308 11.4693L3.53308 12.5293L12.5331 3.52934L11.4731 2.46934ZM17.0031 21.7493C17.7324 21.7493 18.4319 21.4596 18.9476 20.9439C19.4634 20.4282 19.7531 19.7287 19.7531 18.9993H18.2531C18.2531 19.6893 17.6931 20.2493 17.0031 20.2493V21.7493ZM7.00308 20.2493C6.31308 20.2493 5.75308 19.6893 5.75308 18.9993H4.25308C4.25308 19.7287 4.54281 20.4282 5.05854 20.9439C5.57426 21.4596 6.27374 21.7493 7.00308 21.7493V20.2493Z" fill="#474747"/>
</svg>
