<svg width="20" height="20" viewBox="0 0 20 20" fill="none" xmlns="http://www.w3.org/2000/svg">
<path d="M18.1686 8.36726H17.4974V8.33268H9.99739V11.666H14.707C14.0199 13.6064 12.1736 14.9993 9.99739 14.9993C7.23615 14.9993 4.9974 12.7606 4.9974 9.99935C4.9974 7.2381 7.23615 4.99935 9.99739 4.99935C11.272 4.99935 12.4316 5.48018 13.3145 6.2656L15.6716 3.90852C14.1832 2.52143 12.1924 1.66602 9.99739 1.66602C5.39531 1.66602 1.66406 5.39726 1.66406 9.99935C1.66406 14.6014 5.39531 18.3327 9.99739 18.3327C14.5995 18.3327 18.3307 14.6014 18.3307 9.99935C18.3307 9.4406 18.2732 8.89518 18.1686 8.36726Z" fill="#FFC107"/>
<path d="M2.625 6.1206L5.36292 8.12851C6.10375 6.29435 7.89792 4.99935 9.9975 4.99935C11.2721 4.99935 12.4317 5.48018 13.3146 6.2656L15.6717 3.90852C14.1833 2.52143 12.1925 1.66602 9.9975 1.66602C6.79667 1.66602 4.02083 3.4731 2.625 6.1206Z" fill="#FF3D00"/>
<path d="M9.99687 18.3336C12.1494 18.3336 14.1052 17.5099 15.584 16.1703L13.0048 13.9878C12.14 14.6454 11.0833 15.0011 9.99687 15.0003C7.82937 15.0003 5.98896 13.6182 5.29562 11.6895L2.57812 13.7832C3.95729 16.482 6.75812 18.3336 9.99687 18.3336Z" fill="#4CAF50"/>
<path d="M18.1712 8.36857H17.5V8.33398H10V11.6673H14.7096C14.3809 12.5908 13.7889 13.3978 13.0067 13.9886L13.0079 13.9877L15.5871 16.1702C15.4046 16.3361 18.3333 14.1673 18.3333 10.0007C18.3333 9.4419 18.2758 8.89648 18.1712 8.36857Z" fill="#1976D2"/>
</svg>
