<svg width="22" height="22" viewBox="0 0 22 22" fill="none" xmlns="http://www.w3.org/2000/svg">
<g clip-path="url(#clip0_7941_5699)">
<path d="M5.5 21.0833C4.73611 21.0833 4.08681 20.816 3.55208 20.2812C3.01736 19.7465 2.75 19.0972 2.75 18.3333C2.75 17.5694 3.01736 16.9201 3.55208 16.3854C4.08681 15.8507 4.73611 15.5833 5.5 15.5833C5.71389 15.5833 5.9125 15.6063 6.09583 15.6521C6.27917 15.6979 6.45486 15.759 6.62292 15.8354L7.92917 14.2083C7.50139 13.7347 7.20347 13.2 7.03542 12.6042C6.86736 12.0083 6.82917 11.4125 6.92083 10.8167L5.06458 10.1979C4.80486 10.5799 4.47639 10.8854 4.07917 11.1146C3.68194 11.3438 3.23889 11.4583 2.75 11.4583C1.98611 11.4583 1.33681 11.191 0.802083 10.6562C0.267361 10.1215 0 9.47222 0 8.70833C0 7.94444 0.267361 7.29514 0.802083 6.76042C1.33681 6.22569 1.98611 5.95833 2.75 5.95833C3.51389 5.95833 4.16319 6.22569 4.69792 6.76042C5.23264 7.29514 5.5 7.94444 5.5 8.70833V8.89167L7.35625 9.53333C7.66181 8.98333 8.07064 8.51736 8.58275 8.13542C9.09486 7.75347 9.67144 7.50903 10.3125 7.40208V5.40833C9.71667 5.24028 9.22381 4.91547 8.83392 4.43392C8.44403 3.95236 8.24939 3.39106 8.25 2.75C8.25 1.98611 8.51736 1.33681 9.05208 0.802083C9.58681 0.267361 10.2361 0 11 0C11.7639 0 12.4132 0.267361 12.9479 0.802083C13.4826 1.33681 13.75 1.98611 13.75 2.75C13.75 3.39167 13.5514 3.95328 13.1542 4.43483C12.7569 4.91639 12.2681 5.24089 11.6875 5.40833V7.40208C12.3292 7.50903 12.9061 7.75347 13.4182 8.13542C13.9303 8.51736 14.3388 8.98333 14.6438 9.53333L16.5 8.89167V8.70833C16.5 7.94444 16.7674 7.29514 17.3021 6.76042C17.8368 6.22569 18.4861 5.95833 19.25 5.95833C20.0139 5.95833 20.6632 6.22569 21.1979 6.76042C21.7326 7.29514 22 7.94444 22 8.70833C22 9.47222 21.7326 10.1215 21.1979 10.6562C20.6632 11.191 20.0139 11.4583 19.25 11.4583C18.7611 11.4583 18.3141 11.3438 17.9089 11.1146C17.5038 10.8854 17.1793 10.5799 16.9354 10.1979L15.0792 10.8167C15.1708 11.4125 15.1326 12.0047 14.9646 12.5932C14.7965 13.1817 14.4986 13.7201 14.0708 14.2083L15.3771 15.8125C15.5451 15.7361 15.7208 15.6787 15.9042 15.6402C16.0875 15.6017 16.2861 15.5827 16.5 15.5833C17.2639 15.5833 17.9132 15.8507 18.4479 16.3854C18.9826 16.9201 19.25 17.5694 19.25 18.3333C19.25 19.0972 18.9826 19.7465 18.4479 20.2812C17.9132 20.816 17.2639 21.0833 16.5 21.0833C15.7361 21.0833 15.0868 20.816 14.5521 20.2812C14.0174 19.7465 13.75 19.0972 13.75 18.3333C13.75 18.0278 13.7998 17.7335 13.8994 17.4506C13.999 17.1676 14.1326 16.9119 14.3 16.6833L12.9938 15.0562C12.3674 15.4076 11.6988 15.5833 10.9881 15.5833C10.2774 15.5833 9.60911 15.4076 8.98333 15.0562L7.7 16.6833C7.86806 16.9125 8.00189 17.1686 8.1015 17.4515C8.20111 17.7344 8.25061 18.0284 8.25 18.3333C8.25 19.0972 7.98264 19.7465 7.44792 20.2812C6.91319 20.816 6.26389 21.0833 5.5 21.0833ZM2.75 9.625C3.00972 9.625 3.22758 9.537 3.40358 9.361C3.57958 9.185 3.66728 8.96744 3.66667 8.70833C3.66667 8.44861 3.57867 8.23075 3.40267 8.05475C3.22667 7.87875 3.00911 7.79106 2.75 7.79167C2.49028 7.79167 2.27242 7.87967 2.09642 8.05567C1.92042 8.23167 1.83272 8.44922 1.83333 8.70833C1.83333 8.96806 1.92133 9.18592 2.09733 9.36192C2.27333 9.53792 2.49089 9.62561 2.75 9.625ZM5.5 19.25C5.75972 19.25 5.97758 19.162 6.15358 18.986C6.32958 18.81 6.41728 18.5924 6.41667 18.3333C6.41667 18.0736 6.32867 17.8558 6.15267 17.6798C5.97667 17.5038 5.75911 17.4161 5.5 17.4167C5.24028 17.4167 5.02242 17.5047 4.84642 17.6807C4.67042 17.8567 4.58272 18.0742 4.58333 18.3333C4.58333 18.5931 4.67133 18.8109 4.84733 18.9869C5.02333 19.1629 5.24089 19.2506 5.5 19.25ZM11 3.66667C11.2597 3.66667 11.4776 3.57867 11.6536 3.40267C11.8296 3.22667 11.9173 3.00911 11.9167 2.75C11.9167 2.49028 11.8287 2.27242 11.6527 2.09642C11.4767 1.92042 11.2591 1.83272 11 1.83333C10.7403 1.83333 10.5224 1.92133 10.3464 2.09733C10.1704 2.27333 10.0827 2.49089 10.0833 2.75C10.0833 3.00972 10.1713 3.22758 10.3473 3.40358C10.5233 3.57958 10.7409 3.66728 11 3.66667ZM11 13.75C11.6417 13.75 12.184 13.5285 12.6271 13.0854C13.0701 12.6424 13.2917 12.1 13.2917 11.4583C13.2917 10.8167 13.0701 10.2743 12.6271 9.83125C12.184 9.3882 11.6417 9.16667 11 9.16667C10.3583 9.16667 9.81597 9.3882 9.37292 9.83125C8.92986 10.2743 8.70833 10.8167 8.70833 11.4583C8.70833 12.1 8.92986 12.6424 9.37292 13.0854C9.81597 13.5285 10.3583 13.75 11 13.75ZM16.5 19.25C16.7597 19.25 16.9776 19.162 17.1536 18.986C17.3296 18.81 17.4173 18.5924 17.4167 18.3333C17.4167 18.0736 17.3287 17.8558 17.1527 17.6798C16.9767 17.5038 16.7591 17.4161 16.5 17.4167C16.2403 17.4167 16.0224 17.5047 15.8464 17.6807C15.6704 17.8567 15.5827 18.0742 15.5833 18.3333C15.5833 18.5931 15.6713 18.8109 15.8473 18.9869C16.0233 19.1629 16.2409 19.2506 16.5 19.25ZM19.25 9.625C19.5097 9.625 19.7276 9.537 19.9036 9.361C20.0796 9.185 20.1673 8.96744 20.1667 8.70833C20.1667 8.44861 20.0787 8.23075 19.9027 8.05475C19.7267 7.87875 19.5091 7.79106 19.25 7.79167C18.9903 7.79167 18.7724 7.87967 18.5964 8.05567C18.4204 8.23167 18.3327 8.44922 18.3333 8.70833C18.3333 8.96806 18.4213 9.18592 18.5973 9.36192C18.7733 9.53792 18.9909 9.62561 19.25 9.625Z" fill="#474747"/>
</g>
<defs>
<clipPath id="clip0_7941_5699">
<rect width="22" height="22" fill="white"/>
</clipPath>
</defs>
</svg>
