<svg width="24" height="24" viewBox="0 0 24 24" fill="none" xmlns="http://www.w3.org/2000/svg">
<path fill-rule="evenodd" clip-rule="evenodd" d="M7.30804 1.25C6.50704 1.25 5.95804 1.25 5.46804 1.383C4.96091 1.52218 4.48872 1.76647 4.08214 2.10001C3.67556 2.43354 3.34368 2.84886 3.10804 3.319C2.88104 3.771 2.77404 4.31 2.61704 5.096L1.99704 8.194C1.88724 8.73708 1.89785 9.29764 2.02812 9.83618C2.15839 10.3747 2.40516 10.8781 2.75104 11.311V14.056C2.75104 15.894 2.75104 17.35 2.90404 18.489C3.06204 19.661 3.39404 20.61 4.14204 21.359C4.89004 22.107 5.83904 22.439 7.01204 22.597C8.15104 22.75 9.60704 22.75 11.444 22.75H12.557C14.395 22.75 15.851 22.75 16.99 22.597C18.162 22.439 19.111 22.107 19.86 21.359C20.608 20.61 20.94 19.661 21.098 18.489C21.251 17.349 21.251 15.894 21.251 14.056V11.312C21.5969 10.8789 21.8436 10.3753 21.9737 9.83659C22.1038 9.29787 22.1141 8.73717 22.004 8.194L21.384 5.096C21.228 4.31 21.12 3.771 20.894 3.319C20.6583 2.84876 20.3263 2.43337 19.9195 2.09983C19.5127 1.76629 19.0404 1.52206 18.533 1.383C18.044 1.25 17.495 1.25 16.693 1.25H7.30804ZM18.269 12.75C18.778 12.7509 19.282 12.6496 19.751 12.452V14C19.751 15.907 19.749 17.262 19.611 18.29C19.476 19.295 19.222 19.875 18.799 20.298C18.376 20.721 17.796 20.975 16.789 21.11C16.2786 21.1733 15.7653 21.2114 15.251 21.224V18.468C15.251 18.028 15.251 17.648 15.223 17.338C15.193 17.008 15.127 16.682 14.949 16.375C14.7518 16.0329 14.4679 15.7487 14.126 15.551C13.819 15.374 13.493 15.308 13.163 15.278C12.853 15.25 12.473 15.25 12.033 15.25H11.968C11.528 15.25 11.149 15.25 10.838 15.278C10.508 15.308 10.183 15.374 9.87604 15.551C9.53378 15.7485 9.24958 16.0327 9.05204 16.375C8.87504 16.682 8.80904 17.008 8.77904 17.337C8.75104 17.649 8.75104 18.028 8.75104 18.467V21.224C8.23614 21.2114 7.72218 21.1734 7.21104 21.11C6.20604 20.975 5.62604 20.721 5.20304 20.298C4.77904 19.875 4.52604 19.295 4.39104 18.289C4.25204 17.262 4.25104 15.907 4.25104 14V12.452C5.05015 12.7896 5.9406 12.8442 6.77496 12.6067C7.60931 12.3692 8.33753 11.8538 8.83904 11.146C9.20232 11.6437 9.67814 12.0485 10.2277 12.3272C10.7772 12.606 11.3849 12.7509 12.001 12.75C12.6172 12.7509 13.2249 12.606 13.7744 12.3272C14.3239 12.0485 14.7998 11.6437 15.163 11.146C15.515 11.642 15.9807 12.0465 16.5211 12.3256C17.0615 12.6046 17.6608 12.7502 18.269 12.75ZM10.251 21.248C10.639 21.25 11.055 21.25 11.501 21.25H12.501C12.947 21.25 13.362 21.25 13.751 21.248V18.5C13.751 18.019 13.75 17.708 13.729 17.473C13.709 17.248 13.674 17.166 13.65 17.125C13.5843 17.0112 13.4898 16.9168 13.376 16.851C13.335 16.827 13.253 16.793 13.028 16.772C12.6861 16.751 12.3435 16.7436 12.001 16.75C11.52 16.75 11.209 16.75 10.974 16.772C10.748 16.792 10.667 16.827 10.626 16.851C10.5119 16.9166 10.4171 17.0111 10.351 17.125C10.328 17.165 10.293 17.248 10.273 17.473C10.252 17.708 10.251 18.019 10.251 18.5V21.248ZM8.67104 2.75H7.41904C6.46504 2.75 6.13404 2.757 5.86604 2.83C5.56182 2.91344 5.27854 3.05992 5.0346 3.25994C4.79065 3.45995 4.59149 3.70903 4.45004 3.991C4.32504 4.24 4.25404 4.562 4.06704 5.498L3.46904 8.488C3.40531 8.79564 3.405 9.11306 3.46814 9.42082C3.53128 9.72859 3.65653 10.0202 3.83625 10.2779C4.01596 10.5356 4.24635 10.754 4.51333 10.9196C4.78031 11.0852 5.07827 11.1946 5.38898 11.2411C5.6997 11.2877 6.01663 11.2703 6.32041 11.1901C6.62419 11.11 6.90842 10.9687 7.15573 10.7749C7.40303 10.5812 7.60821 10.339 7.75871 10.0632C7.90922 9.78741 8.00188 9.48382 8.03104 9.171L8.10004 8.485L8.10404 8.443L8.67304 2.75H8.67104ZM9.59204 8.625L10.18 2.75H13.822L14.406 8.592C14.4388 8.92627 14.4015 9.26369 14.2965 9.58275C14.1916 9.9018 14.0213 10.1955 13.7965 10.445C13.5717 10.6946 13.2974 10.8946 12.991 11.0322C12.6847 11.1699 12.353 11.2422 12.0171 11.2445C11.6813 11.2468 11.3486 11.179 11.0404 11.0456C10.7321 10.9122 10.4551 10.716 10.2269 10.4695C9.99875 10.223 9.82445 9.93173 9.71514 9.61415C9.60582 9.29657 9.5639 8.95969 9.59204 8.625ZM18.136 2.83C17.868 2.757 17.537 2.75 16.583 2.75H15.329L15.972 9.17C16.0021 9.48192 16.0954 9.78445 16.2462 10.0592C16.397 10.3339 16.6021 10.575 16.8491 10.7679C17.096 10.9608 17.3797 11.1014 17.6827 11.1811C17.9858 11.2609 18.3019 11.2781 18.6118 11.2318C18.9218 11.1854 19.219 11.0765 19.4855 10.9116C19.7519 10.7467 19.982 10.5293 20.1618 10.2726C20.3415 10.0159 20.4671 9.72526 20.531 9.41846C20.5948 9.11166 20.5955 8.79508 20.533 8.488L19.936 5.498C19.748 4.562 19.677 4.24 19.553 3.991C19.4115 3.70892 19.2122 3.45978 18.968 3.25976C18.7239 3.05974 18.4405 2.91332 18.136 2.83Z" fill="#474747"/>
</svg>
