<svg width="200" height="149" viewBox="0 0 200 149" fill="none" xmlns="http://www.w3.org/2000/svg">
<path d="M99.4368 23.7194C78.8561 30.6662 33.4474 2.60275 26.5485 36.6213C20.8774 64.5408 49.4168 92.5563 86.5389 102.087C112.891 108.854 148.645 97.2315 154.744 64.4088C158.559 43.8801 143.146 20.4399 130.976 15.7686C115.766 9.93757 112.859 19.1961 99.4368 23.7194Z" fill="#605DEC"/>
<path opacity="0.9" d="M99.4368 23.7194C78.8561 30.6662 33.4474 2.60275 26.5485 36.6213C20.8774 64.5408 49.4168 92.5563 86.5389 102.087C112.891 108.854 148.645 97.2315 154.744 64.4088C158.559 43.8801 143.146 20.4399 130.976 15.7686C115.766 9.93757 112.859 19.1961 99.4368 23.7194Z" fill="white"/>
<path d="M99.9888 149C142.815 149 177.532 146.973 177.532 144.473C177.532 141.972 142.815 139.945 99.9888 139.945C57.1627 139.945 22.4453 141.972 22.4453 144.473C22.4453 146.973 57.1627 149 99.9888 149Z" fill="#F5F5F5"/>
<path d="M74.6105 29.307C74.612 28.5621 74.5518 27.8183 74.4305 27.0834C73.8945 23.8349 72.2306 20.8793 69.7312 18.7361C67.2318 16.5929 64.0569 15.3994 60.7647 15.3652H60.6447C58.436 15.3666 56.2592 15.8931 54.2941 16.9014C52.329 17.9097 50.6318 19.3709 49.3425 21.1643C49.1306 21.4563 48.9426 21.7562 48.7506 22.0562C48.735 22.076 48.7216 22.0974 48.7106 22.1201C47.3978 24.2915 46.7061 26.7816 46.711 29.319V29.347C46.7192 32.2961 47.6618 35.1667 49.4035 37.5465C51.1452 39.9263 53.5963 41.693 56.4048 42.5927C59.2133 43.4924 62.2346 43.479 65.035 42.5542C67.8353 41.6294 70.2705 39.841 71.9909 37.4457C72.1989 37.1537 72.3908 36.8578 72.5788 36.5538C72.5944 36.534 72.6079 36.5126 72.6188 36.4898C73.93 34.324 74.6192 31.8388 74.6105 29.307ZM47.3069 28.991C47.3531 26.7075 47.9911 24.4751 49.1586 22.5121H53.5219C52.8551 24.6079 52.5059 26.7918 52.486 28.991H47.3069ZM54.1338 22.5121H60.3568V28.991H53.0859C53.0992 26.7903 53.4526 24.6048 54.1338 22.5121ZM60.9567 21.9122V15.9451C61.8217 16.0236 62.6501 16.3314 63.3563 16.837C64.84 17.8528 66.0838 19.6365 66.9557 21.9122H60.9567ZM67.1717 22.5121C67.6664 24.0103 67.9885 25.5601 68.1315 27.1313C68.1915 27.7552 68.2195 28.3751 68.2275 28.991H60.9567V22.5121H67.1717ZM59.4769 16.1131C59.764 16.0315 60.0589 15.9806 60.3568 15.9611V21.9242H54.3577C55.4776 18.9087 57.2933 16.717 59.4769 16.1011V16.1131ZM60.3568 29.6029V36.0819H54.1458C53.6509 34.58 53.3315 33.0259 53.1939 31.4506C53.1379 30.8267 53.1059 30.2069 53.0979 29.591L60.3568 29.6029ZM60.3568 36.6818V42.6488C59.4919 42.5699 58.6637 42.262 57.9572 41.757C56.4774 40.7412 55.2336 38.9574 54.3577 36.6818H60.3568ZM61.8365 42.4929C61.5495 42.5748 61.2545 42.6258 60.9567 42.6449V36.6698H66.9557C65.8359 39.6733 64.0202 41.869 61.8365 42.4809V42.4929ZM60.9567 36.0939V29.5949H68.2275C68.2162 31.7959 67.8627 33.9816 67.1797 36.0739L60.9567 36.0939ZM68.8274 29.5949H74.0266C73.9782 31.8781 73.3403 34.11 72.1749 36.0739H67.7916C68.4583 33.9781 68.8075 31.7942 68.8274 29.5949ZM74.0266 28.995H68.8274C68.8274 28.3631 68.7874 27.7232 68.7274 27.0794C68.5909 25.5292 68.2838 23.9989 67.8116 22.5161H72.1669C73.0085 23.9451 73.5768 25.5183 73.8426 27.1553C73.9378 27.763 73.9939 28.3762 74.0106 28.991L74.0266 28.995ZM68.4795 18.4647C69.7867 19.4063 70.9138 20.5754 71.8069 21.9162H67.5916C66.6957 19.4406 65.348 17.4809 63.6962 16.3451L63.5683 16.2611C65.3319 16.656 66.9971 17.4043 68.4635 18.4607L68.4795 18.4647ZM57.7332 16.2691C56.0495 17.3769 54.6657 19.3926 53.7338 21.9162H49.5345L49.8265 21.4883C51.7257 18.8369 54.5346 16.9776 57.7172 16.2651L57.7332 16.2691ZM47.3349 29.5949H52.514C52.514 30.2268 52.554 30.8667 52.614 31.5106C52.7525 33.0605 53.0596 34.5906 53.5299 36.0739H49.1506C48.3072 34.6457 47.7388 33.0721 47.4748 31.4347C47.3753 30.8262 47.3192 30.2114 47.3069 29.5949H47.3349ZM49.5505 36.6738H53.7338C54.6297 39.1494 55.9775 41.1091 57.6292 42.2449L57.7612 42.3289C54.4007 41.5657 51.4616 39.5413 49.5505 36.6738ZM63.5922 42.3169C65.272 41.2131 66.6558 39.1934 67.5916 36.6698H71.7829C71.6869 36.8138 71.591 36.9578 71.491 37.0977C69.5901 39.7503 66.7778 41.6086 63.5922 42.3169Z" fill="#605DEC"/>
<path opacity="0.8" d="M74.6105 29.307C74.612 28.5621 74.5518 27.8183 74.4305 27.0834C73.8945 23.8349 72.2306 20.8793 69.7312 18.7361C67.2318 16.5929 64.0569 15.3994 60.7647 15.3652H60.6447C58.436 15.3666 56.2592 15.8931 54.2941 16.9014C52.329 17.9097 50.6318 19.3709 49.3425 21.1643C49.1306 21.4563 48.9426 21.7562 48.7506 22.0562C48.735 22.076 48.7216 22.0974 48.7106 22.1201C47.3978 24.2915 46.7061 26.7816 46.711 29.319V29.347C46.7192 32.2961 47.6618 35.1667 49.4035 37.5465C51.1452 39.9263 53.5963 41.693 56.4048 42.5927C59.2133 43.4924 62.2346 43.479 65.035 42.5542C67.8353 41.6294 70.2705 39.841 71.9909 37.4457C72.1989 37.1537 72.3908 36.8578 72.5788 36.5538C72.5944 36.534 72.6079 36.5126 72.6188 36.4898C73.93 34.324 74.6192 31.8388 74.6105 29.307ZM47.3069 28.991C47.3531 26.7075 47.9911 24.4751 49.1586 22.5121H53.5219C52.8551 24.6079 52.5059 26.7918 52.486 28.991H47.3069ZM54.1338 22.5121H60.3568V28.991H53.0859C53.0992 26.7903 53.4526 24.6048 54.1338 22.5121ZM60.9567 21.9122V15.9451C61.8217 16.0236 62.6501 16.3314 63.3563 16.837C64.84 17.8528 66.0838 19.6365 66.9557 21.9122H60.9567ZM67.1717 22.5121C67.6664 24.0103 67.9885 25.5601 68.1315 27.1313C68.1915 27.7552 68.2195 28.3751 68.2275 28.991H60.9567V22.5121H67.1717ZM59.4769 16.1131C59.764 16.0315 60.0589 15.9806 60.3568 15.9611V21.9242H54.3577C55.4776 18.9087 57.2933 16.717 59.4769 16.1011V16.1131ZM60.3568 29.6029V36.0819H54.1458C53.6509 34.58 53.3315 33.0259 53.1939 31.4506C53.1379 30.8267 53.1059 30.2069 53.0979 29.591L60.3568 29.6029ZM60.3568 36.6818V42.6488C59.4919 42.5699 58.6637 42.262 57.9572 41.757C56.4774 40.7412 55.2336 38.9574 54.3577 36.6818H60.3568ZM61.8365 42.4929C61.5495 42.5748 61.2545 42.6258 60.9567 42.6449V36.6698H66.9557C65.8359 39.6733 64.0202 41.869 61.8365 42.4809V42.4929ZM60.9567 36.0939V29.5949H68.2275C68.2162 31.7959 67.8627 33.9816 67.1797 36.0739L60.9567 36.0939ZM68.8274 29.5949H74.0266C73.9782 31.8781 73.3403 34.11 72.1749 36.0739H67.7916C68.4583 33.9781 68.8075 31.7942 68.8274 29.5949ZM74.0266 28.995H68.8274C68.8274 28.3631 68.7874 27.7232 68.7274 27.0794C68.5909 25.5292 68.2838 23.9989 67.8116 22.5161H72.1669C73.0085 23.9451 73.5768 25.5183 73.8426 27.1553C73.9378 27.763 73.9939 28.3762 74.0106 28.991L74.0266 28.995ZM68.4795 18.4647C69.7867 19.4063 70.9138 20.5754 71.8069 21.9162H67.5916C66.6957 19.4406 65.348 17.4809 63.6962 16.3451L63.5683 16.2611C65.3319 16.656 66.9971 17.4043 68.4635 18.4607L68.4795 18.4647ZM57.7332 16.2691C56.0495 17.3769 54.6657 19.3926 53.7338 21.9162H49.5345L49.8265 21.4883C51.7257 18.8369 54.5346 16.9776 57.7172 16.2651L57.7332 16.2691ZM47.3349 29.5949H52.514C52.514 30.2268 52.554 30.8667 52.614 31.5106C52.7525 33.0605 53.0596 34.5906 53.5299 36.0739H49.1506C48.3072 34.6457 47.7388 33.0721 47.4748 31.4347C47.3753 30.8262 47.3192 30.2114 47.3069 29.5949H47.3349ZM49.5505 36.6738H53.7338C54.6297 39.1494 55.9775 41.1091 57.6292 42.2449L57.7612 42.3289C54.4007 41.5657 51.4616 39.5413 49.5505 36.6738ZM63.5922 42.3169C65.272 41.2131 66.6558 39.1934 67.5916 36.6698H71.7829C71.6869 36.8138 71.591 36.9578 71.491 37.0977C69.5901 39.7503 66.7778 41.6086 63.5922 42.3169Z" fill="#FAFAFA"/>
<path d="M165.693 35.9531H39.9531V66.4202H165.693V35.9531Z" fill="#605DEC"/>
<path opacity="0.6" d="M165.693 35.9531H39.9531V66.4202H165.693V35.9531Z" fill="#FAFAFA"/>
<path d="M162.857 38.7891H37.1172V69.2562H162.857V38.7891Z" fill="#605DEC"/>
<path opacity="0.3" d="M162.857 38.7891H37.1172V69.2562H162.857V38.7891Z" fill="black"/>
<path d="M160.021 41.625H34.2812V72.0921H160.021V41.625Z" fill="#605DEC"/>
<path opacity="0.1" d="M160.021 41.625H34.2812V72.0921H160.021V41.625Z" fill="#FAFAFA"/>
<path d="M154.023 66.094V47.625L40.2817 47.625V66.094H154.023Z" fill="#605DEC"/>
<path opacity="0.9" d="M154.023 66.094V47.625L40.2817 47.625V66.094H154.023Z" fill="#FAFAFA"/>
<path d="M134.891 47.6247V66.0938H135.559V47.6247H134.891Z" fill="#605DEC"/>
<path opacity="0.6" d="M134.891 47.6247V66.0938H135.559V47.6247H134.891Z" fill="#FAFAFA"/>
<path d="M43.1172 50.1711V63.5449H43.7851V50.1711H43.1172Z" fill="#605DEC"/>
<path opacity="0.6" d="M43.1172 50.1711V63.5449H43.7851V50.1711H43.1172Z" fill="#FAFAFA"/>
<path d="M144.153 59.1902C143.668 59.19 143.19 59.0701 142.762 58.8412C142.335 58.6123 141.97 58.2814 141.7 57.8778C141.431 57.4743 141.265 57.0105 141.217 56.5275C141.17 56.0445 141.242 55.5573 141.428 55.109C141.614 54.6606 141.907 54.265 142.282 53.9571C142.657 53.6493 143.103 53.4386 143.578 53.3439C144.054 53.2492 144.546 53.2732 145.011 53.414C145.475 53.5548 145.898 53.8079 146.241 54.151C146.654 54.5638 146.935 55.0898 147.049 55.6625C147.163 56.2352 147.105 56.8288 146.881 57.3683C146.658 57.9078 146.279 58.3688 145.794 58.6931C145.308 59.0174 144.737 59.1904 144.153 59.1902ZM144.153 54.091C143.655 54.0911 143.173 54.2639 142.788 54.58C142.404 54.896 142.14 55.3357 142.043 55.8241C141.947 56.3125 142.022 56.8194 142.257 57.2583C142.492 57.6973 142.872 58.0411 143.332 58.2312C143.793 58.4214 144.304 58.446 144.781 58.301C145.257 58.1559 145.668 57.8502 145.944 57.4359C146.221 57.0215 146.345 56.5243 146.295 56.0288C146.246 55.5334 146.026 55.0704 145.673 54.7189C145.476 54.5152 145.24 54.353 144.979 54.2417C144.718 54.1305 144.437 54.0724 144.153 54.071V54.091Z" fill="#605DEC"/>
<path d="M147.975 60.4469C147.922 60.4467 147.869 60.4359 147.821 60.4153C147.772 60.3947 147.728 60.3647 147.691 60.3269L145.671 58.3072C145.629 58.2714 145.595 58.2272 145.571 58.1776C145.547 58.128 145.534 58.074 145.532 58.0189C145.529 57.9638 145.539 57.9089 145.559 57.8576C145.579 57.8062 145.609 57.7596 145.648 57.7207C145.687 57.6817 145.734 57.6512 145.785 57.6311C145.837 57.611 145.892 57.6017 145.947 57.6038C146.002 57.6059 146.056 57.6194 146.105 57.6434C146.155 57.6674 146.199 57.7014 146.235 57.7433L148.255 59.763C148.329 59.8379 148.371 59.9393 148.371 60.0449C148.371 60.1506 148.329 60.252 148.255 60.3269C148.181 60.4022 148.08 60.4454 147.975 60.4469Z" fill="#605DEC"/>
<g opacity="0.6">
<path d="M144.153 59.1902C143.668 59.19 143.19 59.0701 142.762 58.8412C142.335 58.6123 141.97 58.2814 141.7 57.8778C141.431 57.4743 141.265 57.0105 141.217 56.5275C141.17 56.0445 141.242 55.5573 141.428 55.109C141.614 54.6606 141.907 54.265 142.282 53.9571C142.657 53.6493 143.103 53.4386 143.578 53.3439C144.054 53.2492 144.546 53.2732 145.011 53.414C145.475 53.5548 145.898 53.8079 146.241 54.151C146.654 54.5638 146.935 55.0898 147.049 55.6625C147.163 56.2352 147.105 56.8288 146.881 57.3683C146.658 57.9078 146.279 58.3688 145.794 58.6931C145.308 59.0174 144.737 59.1904 144.153 59.1902ZM144.153 54.091C143.655 54.0911 143.173 54.2639 142.788 54.58C142.404 54.896 142.14 55.3357 142.043 55.8241C141.947 56.3125 142.022 56.8194 142.257 57.2583C142.492 57.6973 142.872 58.0411 143.332 58.2312C143.793 58.4214 144.304 58.446 144.781 58.301C145.257 58.1559 145.668 57.8502 145.944 57.4359C146.221 57.0215 146.345 56.5243 146.295 56.0288C146.246 55.5334 146.026 55.0704 145.673 54.7189C145.476 54.5152 145.24 54.353 144.979 54.2417C144.718 54.1305 144.437 54.0724 144.153 54.071V54.091Z" fill="#FAFAFA"/>
<path d="M147.982 60.4449C147.93 60.4447 147.877 60.434 147.828 60.4134C147.78 60.3928 147.736 60.3627 147.699 60.3249L145.679 58.3053C145.637 58.2694 145.603 58.2253 145.579 58.1757C145.555 58.1261 145.541 58.072 145.539 58.0169C145.537 57.9619 145.547 57.9069 145.567 57.8556C145.587 57.8043 145.617 57.7577 145.656 57.7187C145.695 57.6797 145.742 57.6492 145.793 57.6291C145.844 57.609 145.899 57.5997 145.954 57.6019C146.01 57.604 146.064 57.6175 146.113 57.6415C146.163 57.6655 146.207 57.6995 146.243 57.7414L148.262 59.761C148.337 59.836 148.379 59.9373 148.379 60.043C148.379 60.1486 148.337 60.25 148.262 60.3249C148.189 60.4003 148.088 60.4434 147.982 60.4449Z" fill="#FAFAFA"/>
</g>
<path d="M117.019 17.5371H104.445V17.8491H117.019V17.5371Z" fill="#605DEC"/>
<path d="M117.019 18.8594H104.445V19.1713H117.019V18.8594Z" fill="#605DEC"/>
<path d="M117.019 20.1895H104.445V20.5014H117.019V20.1895Z" fill="#605DEC"/>
<path d="M117.019 21.5117H104.445V21.8237H117.019V21.5117Z" fill="#605DEC"/>
<path d="M117.019 22.8359H104.445V23.1479H117.019V22.8359Z" fill="#605DEC"/>
<path d="M112.644 24.1641H104.445V24.476H112.644V24.1641Z" fill="#605DEC"/>
<g opacity="0.5">
<path d="M117.019 17.5371H104.445V17.8491H117.019V17.5371Z" fill="#FAFAFA"/>
<path d="M117.019 18.8613H104.445V19.1733H117.019V18.8613Z" fill="#FAFAFA"/>
<path d="M117.019 20.1875H104.445V20.4994H117.019V20.1875Z" fill="#FAFAFA"/>
<path d="M117.019 21.5117H104.445V21.8237H117.019V21.5117Z" fill="#FAFAFA"/>
<path d="M117.019 22.8359H104.445V23.1479H117.019V22.8359Z" fill="#FAFAFA"/>
<path d="M112.644 24.1641H104.445V24.476H112.644V24.1641Z" fill="#FAFAFA"/>
</g>
<path d="M41.3353 74.7227H27.9375V74.9226H41.3353V74.7227Z" fill="#605DEC"/>
<path d="M41.3353 75.5723H27.9375V75.7722H41.3353V75.5723Z" fill="#605DEC"/>
<path d="M41.3353 76.4199H27.9375V76.6199H41.3353V76.4199Z" fill="#605DEC"/>
<path d="M41.3353 77.2676H27.9375V77.4675H41.3353V77.2676Z" fill="#605DEC"/>
<path d="M41.3353 78.1152H27.9375V78.3152H41.3353V78.1152Z" fill="#605DEC"/>
<path d="M36.3601 78.9668H27.9375V79.1668H36.3601V78.9668Z" fill="#605DEC"/>
<g opacity="0.4">
<path d="M41.3353 74.7246H27.9375V74.9246H41.3353V74.7246Z" fill="#FAFAFA"/>
<path d="M41.3353 75.5723H27.9375V75.7722H41.3353V75.5723Z" fill="#FAFAFA"/>
<path d="M41.3353 76.4199H27.9375V76.6199H41.3353V76.4199Z" fill="#FAFAFA"/>
<path d="M41.3353 77.2676H27.9375V77.4675H41.3353V77.2676Z" fill="#FAFAFA"/>
<path d="M41.3353 78.1172H27.9375V78.3172H41.3353V78.1172Z" fill="#FAFAFA"/>
<path d="M36.3601 78.9668H27.9375V79.1668H36.3601V78.9668Z" fill="#FAFAFA"/>
</g>
<path d="M85.3713 19.5C84.701 19.5 84.0581 19.7663 83.5841 20.2403C83.11 20.7143 82.8438 21.3572 82.8438 22.0276V30.3662C82.8437 31.0366 83.11 31.6795 83.5841 32.1535C84.0581 32.6275 84.701 32.8938 85.3713 32.8938C86.0417 32.8938 86.6846 32.6275 87.1586 32.1535C87.6326 31.6795 87.8989 31.0366 87.8989 30.3662V22.0276C87.8989 21.3572 87.6326 20.7143 87.1586 20.2403C86.6846 19.7663 86.0417 19.5 85.3713 19.5Z" fill="#605DEC"/>
<path opacity="0.2" d="M85.3713 19.5C84.701 19.5 84.0581 19.7663 83.5841 20.2403C83.11 20.7143 82.8438 21.3572 82.8438 22.0276V30.3662C82.8437 31.0366 83.11 31.6795 83.5841 32.1535C84.0581 32.6275 84.701 32.8938 85.3713 32.8938C86.0417 32.8938 86.6846 32.6275 87.1586 32.1535C87.6326 31.6795 87.8989 31.0366 87.8989 30.3662V22.0276C87.8989 21.3572 87.6326 20.7143 87.1586 20.2403C86.6846 19.7663 86.0417 19.5 85.3713 19.5Z" fill="#FAFAFA"/>
<path d="M91.7031 14.5293C91.0348 14.5325 90.395 14.8002 89.9236 15.2739C89.4521 15.7475 89.1875 16.3886 89.1875 17.0569V30.3668C89.1875 31.0371 89.4538 31.68 89.9278 32.1541C90.4018 32.6281 91.0447 32.8944 91.7151 32.8944C92.3855 32.8944 93.0284 32.6281 93.5024 32.1541C93.9764 31.68 94.2427 31.0371 94.2427 30.3668V17.0569C94.2427 16.724 94.1769 16.3943 94.0491 16.0869C93.9214 15.7794 93.7341 15.5003 93.4981 15.2654C93.2622 15.0305 92.9821 14.8446 92.674 14.7183C92.366 14.592 92.036 14.5277 91.7031 14.5293Z" fill="#605DEC"/>
<path opacity="0.3" d="M91.7031 14.5293C91.0348 14.5325 90.395 14.8002 89.9236 15.2739C89.4521 15.7475 89.1875 16.3886 89.1875 17.0569V30.3668C89.1875 31.0371 89.4538 31.68 89.9278 32.1541C90.4018 32.6281 91.0447 32.8944 91.7151 32.8944C92.3855 32.8944 93.0284 32.6281 93.5024 32.1541C93.9764 31.68 94.2427 31.0371 94.2427 30.3668V17.0569C94.2427 16.724 94.1769 16.3943 94.0491 16.0869C93.9214 15.7794 93.7341 15.5003 93.4981 15.2654C93.2622 15.0305 92.9821 14.8446 92.674 14.7183C92.366 14.592 92.036 14.5277 91.7031 14.5293Z" fill="black"/>
<path d="M98.0354 24.4727C97.365 24.4727 96.7221 24.739 96.2481 25.213C95.7741 25.687 95.5078 26.3299 95.5078 27.0003V30.3677C95.5078 31.0381 95.7741 31.681 96.2481 32.155C96.7221 32.629 97.365 32.8953 98.0354 32.8953C98.3677 32.8958 98.6968 32.8308 99.0039 32.7041C99.311 32.5773 99.5901 32.3912 99.8253 32.1564C100.06 31.9216 100.247 31.6428 100.374 31.3359C100.501 31.029 100.567 30.7 100.567 30.3677V27.0003C100.567 26.668 100.501 26.339 100.374 26.0321C100.247 25.7251 100.06 25.4463 99.8253 25.2116C99.5901 24.9768 99.311 24.7907 99.0039 24.6639C98.6968 24.5371 98.3677 24.4721 98.0354 24.4727Z" fill="#605DEC"/>
<path opacity="0.6" d="M98.0354 24.4727C97.365 24.4727 96.7221 24.739 96.2481 25.213C95.7741 25.687 95.5078 26.3299 95.5078 27.0003V30.3677C95.5078 31.0381 95.7741 31.681 96.2481 32.155C96.7221 32.629 97.365 32.8953 98.0354 32.8953C98.3677 32.8958 98.6968 32.8308 99.0039 32.7041C99.311 32.5773 99.5901 32.3912 99.8253 32.1564C100.06 31.9216 100.247 31.6428 100.374 31.3359C100.501 31.029 100.567 30.7 100.567 30.3677V27.0003C100.567 26.668 100.501 26.339 100.374 26.0321C100.247 25.7251 100.06 25.4463 99.8253 25.2116C99.5901 24.9768 99.311 24.7907 99.0039 24.6639C98.6968 24.5371 98.3677 24.4721 98.0354 24.4727Z" fill="#FAFAFA"/>
<path d="M151.422 81.638H161.641L144.195 63.5449L151.422 81.638Z" fill="#605DEC"/>
<g opacity="0.1">
<path d="M151.422 81.638H161.641L144.195 63.5449L151.422 81.638Z" fill="black"/>
</g>
<g style="mix-blend-mode:multiply">
<path d="M141.602 72.0875L144.197 63.5449L145.669 72.0875H141.602Z" fill="#605DEC"/>
</g>
<path d="M144.195 63.5449V88.8609L146.003 87.0571L151.422 81.638L144.195 63.5449Z" fill="#605DEC"/>
<path opacity="0.3" d="M144.195 63.5449V88.8609L146.003 87.0571L151.422 81.638L144.195 63.5449Z" fill="#FAFAFA"/>
<path d="M162.262 9.24219H139.865C138.73 9.24639 137.643 9.69889 136.84 10.5011C136.037 11.3034 135.583 12.3904 135.578 13.5255V25.0916C135.583 26.226 136.036 27.3124 136.838 28.1146C137.641 28.9167 138.727 29.3697 139.861 29.3749H156.295L156.175 33.4183L160.322 29.3749H162.254C163.389 29.3707 164.476 28.9182 165.279 28.116C166.082 27.3137 166.536 26.2267 166.541 25.0916V13.5255C166.536 12.3918 166.083 11.306 165.282 10.504C164.481 9.70192 163.396 9.2485 162.262 9.24219ZM139.362 14.1694C139.362 13.8512 139.488 13.546 139.713 13.321C139.938 13.096 140.243 12.9696 140.561 12.9696H145.716C146.035 12.9696 146.34 13.096 146.565 13.321C146.79 13.546 146.916 13.8512 146.916 14.1694C146.916 14.4876 146.79 14.7928 146.565 15.0178C146.34 15.2428 146.035 15.3692 145.716 15.3692H140.557C140.24 15.3681 139.936 15.2413 139.712 15.0164C139.487 14.7915 139.362 14.4869 139.362 14.1694ZM160.99 25.3676H152.079C151.907 25.3978 151.73 25.3899 151.561 25.3444C151.392 25.299 151.235 25.2171 151.101 25.1045C150.967 24.9918 150.859 24.8512 150.785 24.6925C150.711 24.5338 150.673 24.3609 150.673 24.1858C150.673 24.0107 150.711 23.8377 150.785 23.679C150.859 23.5203 150.967 23.3797 151.101 23.2671C151.235 23.1545 151.392 23.0726 151.561 23.0271C151.73 22.9817 151.907 22.9738 152.079 23.004H160.99C161.163 22.9738 161.339 22.9817 161.509 23.0271C161.678 23.0726 161.835 23.1545 161.969 23.2671C162.103 23.3797 162.211 23.5203 162.285 23.679C162.359 23.8377 162.397 24.0107 162.397 24.1858C162.397 24.3609 162.359 24.5338 162.285 24.6925C162.211 24.8512 162.103 24.9918 161.969 25.1045C161.835 25.2171 161.678 25.299 161.509 25.3444C161.339 25.3899 161.163 25.3978 160.99 25.3676ZM160.99 20.3644H141.757C141.585 20.3946 141.408 20.3867 141.239 20.3413C141.07 20.2958 140.912 20.2139 140.778 20.1013C140.644 19.9886 140.537 19.8481 140.463 19.6893C140.389 19.5306 140.35 19.3577 140.35 19.1826C140.35 19.0075 140.389 18.8345 140.463 18.6758C140.537 18.5171 140.644 18.3765 140.778 18.2639C140.912 18.1513 141.07 18.0694 141.239 18.0239C141.408 17.9785 141.585 17.9706 141.757 18.0008H160.99C161.163 17.9706 161.339 17.9785 161.509 18.0239C161.678 18.0694 161.835 18.1513 161.969 18.2639C162.103 18.3765 162.211 18.5171 162.285 18.6758C162.359 18.8345 162.397 19.0075 162.397 19.1826C162.397 19.3577 162.359 19.5306 162.285 19.6893C162.211 19.8481 162.103 19.9886 161.969 20.1013C161.835 20.2139 161.678 20.2958 161.509 20.3413C161.339 20.3867 161.163 20.3946 160.99 20.3644ZM160.99 15.3612H149.604C149.286 15.3612 148.98 15.2348 148.755 15.0098C148.53 14.7848 148.404 14.4796 148.404 14.1614C148.404 13.8432 148.53 13.538 148.755 13.313C148.98 13.088 149.286 12.9616 149.604 12.9616H160.99C161.308 12.9616 161.613 13.088 161.838 13.313C162.063 13.538 162.19 13.8432 162.19 14.1614C162.19 14.4796 162.063 14.7848 161.838 15.0098C161.613 15.2348 161.308 15.3612 160.99 15.3612Z" fill="#605DEC"/>
<path d="M127.241 45.9038C126.285 43.2763 124.824 40.8608 122.942 38.793H91.1431C89.2607 40.8608 87.8003 43.2763 86.8438 45.9038L91.243 67.8043C94.6086 71.4527 99.1333 73.8235 104.049 74.5139C108.964 75.2043 113.967 74.1718 118.207 71.5918C122.448 69.0117 125.664 65.0433 127.31 60.3606C128.956 55.6779 128.93 50.5697 127.237 45.9038H127.241Z" fill="#605DEC"/>
<path opacity="0.1" d="M127.241 45.9038C126.285 43.2763 124.824 40.8608 122.942 38.793H91.1431C89.2607 40.8608 87.8003 43.2763 86.8438 45.9038L91.243 67.8043C94.6086 71.4527 99.1333 73.8235 104.049 74.5139C108.964 75.2043 113.967 74.1718 118.207 71.5918C122.448 69.0117 125.664 65.0433 127.31 60.3606C128.956 55.6779 128.93 50.5697 127.237 45.9038H127.241Z" fill="#FAFAFA"/>
<path d="M128.506 54.233C128.279 59.2829 126.273 64.0896 122.843 67.8028H91.2477C88.5804 64.9045 86.7597 61.3298 85.984 57.4681C85.2083 53.6064 85.5072 49.6058 86.8484 45.9023H127.242C128.212 48.5678 128.642 51.3998 128.506 54.233Z" fill="#605DEC"/>
<path opacity="0.9" d="M128.506 54.233C128.279 59.2829 126.273 64.0896 122.843 67.8028H91.2477C88.5804 64.9045 86.7597 61.3298 85.984 57.4681C85.2083 53.6064 85.5072 49.6058 86.8484 45.9023H127.242C128.212 48.5678 128.642 51.3998 128.506 54.233Z" fill="#FAFAFA"/>
<path opacity="0.3" d="M128.506 54.2341C128.257 59.5481 126.042 64.5799 122.29 68.3517C118.539 72.1235 113.519 74.3659 108.206 74.643C102.894 74.9202 97.6675 73.2124 93.5438 69.8515C89.42 66.4907 86.6929 61.7167 85.8926 56.4574C85.0922 51.1981 86.2756 45.829 89.2129 41.3935C92.1502 36.958 96.6316 33.773 101.786 32.4572C106.941 31.1414 112.4 31.7889 117.104 34.2739C121.808 36.7589 125.42 40.9039 127.238 45.9034C128.208 48.5689 128.639 51.4006 128.506 54.2341Z" fill="white"/>
<path opacity="0.4" d="M119.154 35.4962L88.2552 63.6756C88.1005 63.3904 87.9486 63.1024 87.7993 62.8118C86.8545 60.9204 86.198 58.8984 85.8516 56.8127L112.539 32.4727C114.901 33.095 117.138 34.1177 119.154 35.4962Z" fill="white"/>
<path opacity="0.4" d="M127.424 46.4197L98.3923 72.9114C95.3809 71.5828 92.7153 69.5795 90.6016 67.0563L122.324 38.125C124.636 40.4635 126.381 43.3012 127.424 46.4197Z" fill="white"/>
<path d="M128.502 40.8516C126.052 36.602 122.395 33.1749 117.996 31.0039C113.597 28.8328 108.653 28.0154 103.789 28.6551C98.9255 29.2948 94.3608 31.3627 90.6727 34.5974C86.9846 37.8321 84.3388 42.088 83.0701 46.8268C81.8014 51.5655 81.9669 56.5741 83.5455 61.2188C85.1242 65.8635 88.0451 69.9356 91.9387 72.9198C95.8322 75.904 100.523 77.6662 105.419 77.9835C110.314 78.3008 115.194 77.1588 119.44 74.7022C125.127 71.4119 129.276 65.9989 130.975 59.652C132.674 53.3051 131.785 46.5433 128.502 40.8516ZM90.1086 63.0241C88.175 59.6751 87.2778 55.828 87.5305 51.9692C87.7832 48.1103 89.1745 44.4131 91.5285 41.345C93.8824 38.2768 97.0933 35.9756 100.755 34.7323C104.417 33.489 108.365 33.3594 112.101 34.36C115.836 35.3605 119.191 37.4462 121.741 40.3534C124.291 43.2606 125.922 46.8587 126.427 50.6926C126.932 54.5266 126.289 58.4243 124.579 61.8928C122.869 65.3613 120.169 68.2449 116.82 70.1789C114.597 71.4631 112.142 72.2967 109.597 72.6321C107.051 72.9675 104.465 72.7982 101.984 72.1337C99.5043 71.4693 97.1794 70.3229 95.1424 68.7598C93.1054 67.1968 91.3963 65.2477 90.1126 63.0241H90.1086Z" fill="#605DEC"/>
<path opacity="0.1" d="M128.502 40.8516C126.052 36.602 122.395 33.1749 117.996 31.0039C113.597 28.8328 108.653 28.0154 103.789 28.6551C98.9255 29.2948 94.3608 31.3627 90.6727 34.5974C86.9846 37.8321 84.3388 42.088 83.0701 46.8268C81.8014 51.5655 81.9669 56.5741 83.5455 61.2188C85.1242 65.8635 88.0451 69.9356 91.9387 72.9198C95.8322 75.904 100.523 77.6662 105.419 77.9835C110.314 78.3008 115.194 77.1588 119.44 74.7022C125.127 71.4119 129.276 65.9989 130.975 59.652C132.674 53.3051 131.785 46.5433 128.502 40.8516ZM90.1086 63.0241C88.175 59.6751 87.2778 55.828 87.5305 51.9692C87.7832 48.1103 89.1745 44.4131 91.5285 41.345C93.8824 38.2768 97.0933 35.9756 100.755 34.7323C104.417 33.489 108.365 33.3594 112.101 34.36C115.836 35.3605 119.191 37.4462 121.741 40.3534C124.291 43.2606 125.922 46.8587 126.427 50.6926C126.932 54.5266 126.289 58.4243 124.579 61.8928C122.869 65.3613 120.169 68.2449 116.82 70.1789C114.597 71.4631 112.142 72.2967 109.597 72.6321C107.051 72.9675 104.465 72.7982 101.984 72.1337C99.5043 71.4693 97.1794 70.3229 95.1424 68.7598C93.1054 67.1968 91.3963 65.2477 90.1126 63.0241H90.1086Z" fill="black"/>
<path d="M50.0204 78.7422L53.0839 79.4541L50.5443 81.3498C50.5443 81.3498 48.7246 80.5259 48.6406 79.2341L50.0204 78.7422Z" fill="#E4897B"/>
<path d="M54.7262 81.4927L52.5186 82.9645L50.5469 81.3487L53.0865 79.457L54.7262 81.4927Z" fill="#E4897B"/>
<path d="M89.3782 66.2997C86.1228 68.6994 82.7833 70.979 79.4278 73.2066C76.0724 75.4343 72.6729 77.6059 69.2575 79.7376C65.842 81.8692 62.3946 83.9569 58.9351 85.9846C57.2074 87.0164 55.4637 88.0163 53.736 89.0321C52.8777 89.5785 51.942 89.9924 50.9604 90.2599C50.4367 90.3988 49.9011 90.4885 49.3607 90.5278C48.7607 90.5768 48.1568 90.5459 47.565 90.4359C47.142 90.3522 46.7397 90.1859 46.381 89.9466C46.0224 89.7073 45.7144 89.3996 45.4748 89.0411C45.2352 88.6826 45.0687 88.2804 44.9847 87.8575C44.9007 87.4346 44.9009 86.9993 44.9854 86.5765C45.0128 86.4406 45.0502 86.3069 45.0974 86.1766C45.2904 85.6096 45.5595 85.0714 45.8972 84.5768C46.1985 84.1321 46.5413 83.7169 46.9211 83.337C47.6444 82.6209 48.4707 82.0169 49.3727 81.5453C51.1204 80.5495 52.8561 79.5456 54.6158 78.5578C58.1193 76.5781 61.6547 74.6504 65.1981 72.7467C68.7416 70.843 72.329 68.9993 75.9364 67.1996C79.5438 65.3999 83.1792 63.6482 86.8906 62.0324C87.4507 61.7848 88.0826 61.7528 88.6648 61.9426C89.247 62.1325 89.7386 62.5307 90.0451 63.0609C90.3516 63.5911 90.4514 64.2158 90.3254 64.8151C90.1993 65.4144 89.8563 65.946 89.3622 66.3077L89.3782 66.2997Z" fill="#605DEC"/>
<path opacity="0.1" d="M89.3782 66.2997C86.1228 68.6994 82.7833 70.979 79.4278 73.2066C76.0724 75.4343 72.6729 77.6059 69.2575 79.7376C65.842 81.8692 62.3946 83.9569 58.9351 85.9846C57.2074 87.0164 55.4637 88.0163 53.736 89.0321C52.8777 89.5785 51.942 89.9924 50.9604 90.2599C50.4367 90.3988 49.9011 90.4885 49.3607 90.5278C48.7607 90.5768 48.1568 90.5459 47.565 90.4359C47.142 90.3522 46.7397 90.1859 46.381 89.9466C46.0224 89.7073 45.7144 89.3996 45.4748 89.0411C45.2352 88.6826 45.0687 88.2804 44.9847 87.8575C44.9007 87.4346 44.9009 86.9993 44.9854 86.5765C45.0128 86.4406 45.0502 86.3069 45.0974 86.1766C45.2904 85.6096 45.5595 85.0714 45.8972 84.5768C46.1985 84.1321 46.5413 83.7169 46.9211 83.337C47.6444 82.6209 48.4707 82.0169 49.3727 81.5453C51.1204 80.5495 52.8561 79.5456 54.6158 78.5578C58.1193 76.5781 61.6547 74.6504 65.1981 72.7467C68.7416 70.843 72.329 68.9993 75.9364 67.1996C79.5438 65.3999 83.1792 63.6482 86.8906 62.0324C87.4507 61.7848 88.0826 61.7528 88.6648 61.9426C89.247 62.1325 89.7386 62.5307 90.0451 63.0609C90.3516 63.5911 90.4514 64.2158 90.3254 64.8151C90.1993 65.4144 89.8563 65.946 89.3622 66.3077L89.3782 66.2997Z" fill="black"/>
<path d="M54.4583 59.7967C54.2583 60.1207 54.0304 60.5126 53.8144 60.8806C53.5985 61.2485 53.3865 61.6324 53.1865 62.0204C52.7866 62.7843 52.3866 63.5601 51.9867 64.348C51.5868 65.1359 51.2628 65.9477 50.9349 66.7476C50.7749 67.1475 50.6069 67.5475 50.459 67.9474L50.235 68.5593C50.191 68.6753 50.183 68.7233 50.155 68.8073C50.127 68.8913 50.115 68.9713 50.091 69.0512C49.9349 69.8416 49.8559 70.6452 49.8551 71.4509C49.8351 72.3107 49.8551 73.1866 49.903 74.0704C49.951 74.9543 49.999 75.8421 50.079 76.73C50.159 77.6179 50.239 78.5217 50.323 79.4016L48.7792 79.7175C48.5073 78.8257 48.2953 77.9378 48.0833 77.038C47.8714 76.1381 47.7114 75.2343 47.5554 74.3144C47.3994 73.3945 47.2955 72.4707 47.2275 71.5148C47.1443 70.5139 47.1698 69.5068 47.3035 68.5113C47.3275 68.3714 47.3475 68.2394 47.3835 68.1114C47.4194 67.9834 47.4554 67.8034 47.4874 67.7115L47.6834 67.0316C47.8114 66.5796 47.9594 66.1317 48.1113 65.6878C48.4193 64.7959 48.7552 63.9201 49.1312 63.0562C49.5071 62.1923 49.907 61.3485 50.331 60.5166C50.5509 60.1167 50.7829 59.6887 51.0189 59.2768C51.2548 58.8649 51.4908 58.4769 51.7867 58.041L54.4583 59.7967Z" fill="#E4897B"/>
<path d="M52.7555 142.376C52.4856 142.367 52.2174 142.33 51.9556 142.264C51.9416 142.261 51.9286 142.255 51.9186 142.245C51.9086 142.235 51.9019 142.222 51.8996 142.208C51.8971 142.193 51.8987 142.179 51.9044 142.165C51.9101 142.152 51.9195 142.14 51.9316 142.132C52.0396 142.06 52.9834 141.452 53.3474 141.616C53.3878 141.634 53.4225 141.663 53.4479 141.7C53.4732 141.737 53.4882 141.779 53.4913 141.824C53.5101 141.895 53.5089 141.97 53.4877 142.041C53.4665 142.111 53.4263 142.175 53.3714 142.224C53.1912 142.347 52.9724 142.401 52.7555 142.376ZM52.1436 142.16C52.6875 142.268 53.0954 142.248 53.2514 142.104C53.2857 142.071 53.3107 142.03 53.324 141.984C53.3374 141.938 53.3385 141.89 53.3274 141.844C53.3269 141.823 53.3206 141.804 53.3093 141.787C53.2979 141.77 53.282 141.756 53.2634 141.748C53.0754 141.664 52.5275 141.928 52.1436 142.16Z" fill="#605DEC"/>
<path d="M51.9471 142.267C51.9354 142.271 51.9229 142.271 51.9111 142.267C51.8996 142.261 51.8901 142.252 51.8837 142.241C51.8774 142.229 51.8744 142.216 51.8751 142.203C51.8751 142.167 51.8751 141.272 52.2151 140.972C52.2571 140.934 52.3066 140.905 52.3603 140.888C52.4141 140.871 52.4709 140.865 52.527 140.872C52.586 140.872 52.6428 140.894 52.688 140.931C52.7332 140.969 52.7639 141.022 52.775 141.08C52.847 141.428 52.279 142.099 51.9751 142.279C51.9649 142.278 51.9553 142.274 51.9471 142.267ZM52.479 141.004C52.4184 141.004 52.36 141.027 52.315 141.068C52.1184 141.357 52.0177 141.701 52.0271 142.051C52.323 141.811 52.675 141.308 52.631 141.096C52.631 141.06 52.603 141.02 52.511 141.008L52.479 141.004Z" fill="#605DEC"/>
<path d="M66.9153 142.376C66.5858 142.371 66.2576 142.333 65.9355 142.264C65.9202 142.262 65.9059 142.255 65.895 142.244C65.8841 142.233 65.8772 142.219 65.8755 142.204C65.8737 142.188 65.8766 142.173 65.8837 142.159C65.8909 142.146 65.9019 142.135 65.9155 142.128C66.0555 142.056 67.2953 141.424 67.6752 141.632C67.7118 141.65 67.7428 141.678 67.7652 141.713C67.7877 141.747 67.8008 141.787 67.8032 141.828C67.8119 141.894 67.8041 141.961 67.7803 142.023C67.7566 142.085 67.7177 142.14 67.6672 142.184C67.4461 142.332 67.1806 142.4 66.9153 142.376ZM66.1795 142.16C66.8713 142.276 67.3793 142.244 67.5712 142.076C67.6031 142.046 67.6274 142.009 67.642 141.968C67.6566 141.927 67.6612 141.883 67.6552 141.84C67.6551 141.823 67.6506 141.807 67.6421 141.793C67.6337 141.779 67.6216 141.767 67.6072 141.76C67.3993 141.648 66.6874 141.916 66.1795 142.16Z" fill="#605DEC"/>
<path d="M65.9479 142.267C65.9416 142.269 65.9348 142.27 65.9279 142.27C65.921 142.27 65.9142 142.269 65.9079 142.267C65.8964 142.261 65.8871 142.251 65.8813 142.24C65.8756 142.228 65.8737 142.215 65.8759 142.203C65.8759 142.167 65.9519 141.327 66.3398 141.003C66.4513 140.909 66.5949 140.863 66.7398 140.875C66.9437 140.895 66.9997 140.999 67.0157 141.083C67.0717 141.435 66.3398 142.107 65.9679 142.282L65.9479 142.267ZM66.6918 141.003C66.5978 141.004 66.5072 141.038 66.4358 141.099C66.2064 141.37 66.0667 141.705 66.0359 142.059C66.4118 141.831 66.9118 141.303 66.8758 141.091C66.8758 141.091 66.8758 141.019 66.7318 141.007L66.6918 141.003Z" fill="#605DEC"/>
<path d="M59.1925 47.7871C59.4365 49.6548 59.9924 53.4422 58.6406 54.586C58.6406 54.586 59.0406 56.4897 62.448 56.7097C66.2154 56.9536 64.3677 54.958 64.3677 54.958C62.344 54.3341 62.496 52.8103 62.9479 51.4025L59.1925 47.7871Z" fill="#E4897B"/>
<path d="M66.186 43.9905C66.162 43.99 66.1386 43.9831 66.1181 43.9705C66.1006 43.9617 66.0852 43.9495 66.0726 43.9345C66.0601 43.9195 66.0507 43.9021 66.0451 43.8834C66.0395 43.8647 66.0378 43.8451 66.04 43.8257C66.0422 43.8063 66.0484 43.7875 66.0581 43.7706C66.162 43.559 66.3155 43.3757 66.5057 43.2365C66.6958 43.0972 66.9168 43.006 67.1499 42.9707C67.1857 42.9721 67.2198 42.9864 67.2458 43.011C67.2718 43.0356 67.2881 43.0688 67.2915 43.1044C67.2949 43.1401 67.2853 43.1758 67.2644 43.2049C67.2435 43.234 67.2128 43.2545 67.1779 43.2627C66.9955 43.2945 66.823 43.3681 66.6738 43.4778C66.5247 43.5874 66.4029 43.73 66.318 43.8946C66.3067 43.9209 66.2884 43.9438 66.2652 43.9606C66.242 43.9775 66.2146 43.9879 66.186 43.9905Z" fill="#263238"/>
<path d="M67.2578 45.6309C67.5334 46.1801 67.8833 46.6888 68.2976 47.1426C68.1788 47.2459 68.0389 47.322 67.8876 47.3655C67.7363 47.409 67.5773 47.419 67.4218 47.3946L67.2578 45.6309Z" fill="#DE5753"/>
<path d="M66.9954 45.2231C67.0194 45.475 67.1714 45.663 67.3314 45.647C67.4913 45.631 67.6113 45.419 67.5873 45.1671C67.5633 44.9151 67.4114 44.7271 67.2474 44.7431C67.0834 44.7591 66.9714 44.9751 66.9954 45.2231Z" fill="#263238"/>
<path d="M67.1953 44.7631L67.7792 44.5352C67.7792 44.5352 67.4993 45.0311 67.1953 44.7631Z" fill="#263238"/>
<path d="M62.5234 142.191H65.6389L65.8469 134.984H62.7314L62.5234 142.191Z" fill="#E4897B"/>
<path d="M48.3828 142.191H51.4983L52.4982 134.984H49.3867L48.3828 142.191Z" fill="#E4897B"/>
<path d="M51.6895 141.832H48.1901C48.1301 141.831 48.072 141.853 48.0264 141.892C47.9808 141.93 47.9508 141.985 47.9421 142.044L47.5422 144.812C47.5343 144.881 47.5413 144.952 47.5626 145.019C47.5839 145.086 47.6191 145.148 47.6659 145.2C47.7127 145.253 47.7701 145.295 47.8342 145.324C47.8983 145.352 47.9678 145.367 48.0381 145.367C49.2379 145.347 49.8458 145.275 51.3856 145.275C52.3294 145.275 53.7132 145.371 55.021 145.371C56.3288 145.371 56.3968 144.08 55.8529 143.964C53.4133 143.44 53.0293 142.716 52.2055 142.024C52.0616 141.901 51.8788 141.833 51.6895 141.832Z" fill="#263238"/>
<path d="M65.7476 141.832H62.2521C62.1919 141.831 62.1333 141.851 62.0875 141.891C62.0418 141.93 62.0121 141.984 62.0042 142.044L61.6043 144.812C61.597 144.882 61.6045 144.953 61.6263 145.02C61.6481 145.087 61.6837 145.148 61.7308 145.201C61.7779 145.253 61.8355 145.295 61.8998 145.324C61.9641 145.352 62.0337 145.367 62.1042 145.368C63.304 145.348 63.9119 145.276 65.4476 145.276C66.3955 145.276 68.3512 145.372 69.659 145.372C70.9667 145.372 71.0347 144.08 70.4908 143.964C68.0512 143.44 67.0914 142.716 66.2675 142.024C66.1226 141.9 65.9382 141.832 65.7476 141.832Z" fill="#263238"/>
<path d="M65.8445 134.984L65.7405 138.7H62.625L62.733 134.984H65.8445Z" fill="#CE6F64"/>
<path d="M49.3831 134.984H52.4986L51.9827 138.7H48.8672L49.3831 134.984Z" fill="#CE6F64"/>
<path d="M55.7883 60.2766C55.197 61.2003 54.5122 62.0607 53.7446 62.8442L53.3887 62.6082L49.4453 59.9886C49.4453 59.9886 51.597 55.1894 53.2167 54.9454C54.7645 54.6975 55.8923 56.2972 56.4162 58.0089C56.6162 58.6288 56.2842 59.4687 55.7883 60.2766Z" fill="#605DEC"/>
<path opacity="0.6" d="M55.7883 60.2766C55.197 61.2003 54.5122 62.0607 53.7446 62.8442L53.3887 62.6082L49.4453 59.9886C49.4453 59.9886 51.597 55.1894 53.2167 54.9454C54.7645 54.6975 55.8923 56.2972 56.4162 58.0089C56.6162 58.6288 56.2842 59.4687 55.7883 60.2766Z" fill="#FAFAFA"/>
<path d="M55.7902 60.2769C55.199 61.2007 54.5141 62.0611 53.7466 62.8445L53.3906 62.6085C53.5666 61.1688 54.1265 59.741 54.7664 59.2891C55.1583 59.3291 55.5063 59.745 55.7902 60.2769Z" fill="#605DEC"/>
<path opacity="0.4" d="M55.7902 60.2769C55.199 61.2007 54.5141 62.0611 53.7466 62.8445L53.3906 62.6085C53.5666 61.1688 54.1265 59.741 54.7664 59.2891C55.1583 59.3291 55.5063 59.745 55.7902 60.2769Z" fill="#FAFAFA"/>
<path d="M69.2802 62.6732C69.0922 63.873 68.8482 65.2847 68.5203 66.9605C68.1204 69.1041 67.5604 71.6757 66.8526 74.7512L54.2346 73.9514C54.7785 68.8282 54.9905 65.6607 53.2188 54.9624C55.01 54.7122 56.8172 54.5932 58.6259 54.6065C60.5413 54.5939 62.4552 54.7182 64.353 54.9784C66.8006 55.3783 69.5521 56.1142 69.5521 56.1142C69.5521 56.1142 70.256 56.3902 69.2802 62.6732Z" fill="#605DEC"/>
<path opacity="0.6" d="M69.2802 62.6732C69.0922 63.873 68.8482 65.2847 68.5203 66.9605C68.1204 69.1041 67.5604 71.6757 66.8526 74.7512L54.2346 73.9514C54.7785 68.8282 54.9905 65.6607 53.2188 54.9624C55.01 54.7122 56.8172 54.5932 58.6259 54.6065C60.5413 54.5939 62.4552 54.7182 64.353 54.9784C66.8006 55.3783 69.5521 56.1142 69.5521 56.1142C69.5521 56.1142 70.256 56.3902 69.2802 62.6732Z" fill="#FAFAFA"/>
<path d="M69.2805 62.6726C69.0925 63.8724 68.8485 65.2842 68.5206 66.9599C67.8266 65.4839 67.2502 63.9554 66.7969 62.3887H69.1405L69.2805 62.6726Z" fill="#605DEC"/>
<path opacity="0.4" d="M69.2805 62.6726C69.0925 63.8724 68.8485 65.2842 68.5206 66.9599C67.8266 65.4839 67.2502 63.9554 66.7969 62.3887H69.1405L69.2805 62.6726Z" fill="#FAFAFA"/>
<path d="M58.5048 45.1587C58.9807 48.2102 59.1207 49.514 60.8204 50.9417C63.376 53.0934 67.0194 51.8376 67.4633 48.7021C67.8633 45.8825 67.0154 41.3633 63.8919 40.4274C63.2049 40.2166 62.4753 40.1852 61.7726 40.336C61.07 40.4869 60.4176 40.815 59.8776 41.2893C59.3377 41.7635 58.928 42.368 58.6877 43.0453C58.4474 43.7226 58.3844 44.4501 58.5048 45.1587Z" fill="#E4897B"/>
<path d="M63.514 74.534C63.514 74.534 63.314 80.0891 62.8341 87.0959C62.4341 92.975 61.8302 99.8699 60.9864 105.365L60.9624 105.517C59.4466 115.243 52.7317 137.976 52.7317 137.976H48.4844C48.4844 137.976 51.9838 116.019 52.7517 106.381C54.6994 82.0368 49.8202 79.2812 54.2314 73.9141L63.514 74.534Z" fill="#605DEC"/>
<path opacity="0.3" d="M63.514 74.534C63.514 74.534 63.314 80.0891 62.8341 87.0959C62.4341 92.975 61.8302 99.8699 60.9864 105.365L60.9624 105.517C59.4466 115.243 52.7317 137.976 52.7317 137.976H48.4844C48.4844 137.976 51.9838 116.019 52.7517 106.381C54.6994 82.0368 49.8202 79.2812 54.2314 73.9141L63.514 74.534Z" fill="black"/>
<path d="M62.8299 87.0958C62.43 92.9748 61.8261 99.8697 60.9822 105.365C59.5464 98.226 57.1868 87.7997 60.3543 80.9688C61.1102 82.9084 61.99 85.1001 62.8299 87.0958Z" fill="#605DEC"/>
<path opacity="0.4" d="M62.8299 87.0958C62.43 92.9748 61.8261 99.8697 60.9822 105.365C59.5464 98.226 57.1868 87.7997 60.3543 80.9688C61.1102 82.9084 61.99 85.1001 62.8299 87.0958Z" fill="black"/>
<path d="M66.8519 74.7543C66.8519 74.7543 70.4513 96.0869 70.2353 105.581C70.0234 115.46 66.404 137.976 66.404 137.976H62.1966C62.1966 137.976 62.8605 116.032 62.4886 106.333C62.0887 95.7589 57.6094 74.1504 57.6094 74.1504L66.8519 74.7543Z" fill="#605DEC"/>
<path opacity="0.3" d="M66.8519 74.7543C66.8519 74.7543 70.4513 96.0869 70.2353 105.581C70.0234 115.46 66.404 137.976 66.404 137.976H62.1966C62.1966 137.976 62.8605 116.032 62.4886 106.333C62.0887 95.7589 57.6094 74.1504 57.6094 74.1504L66.8519 74.7543Z" fill="black"/>
<path d="M61.4734 138.177H67.1165L67.5564 136.285L61.2734 136.329L61.4734 138.177Z" fill="#263238"/>
<path d="M47.8672 138.177H53.5103L53.9502 136.285L47.9072 136.329L47.8672 138.177Z" fill="#263238"/>
<path d="M54.0913 73.1877L53.4514 74.2835C53.3994 74.3675 53.4994 74.4635 53.6434 74.4715L66.8773 75.3313C66.9893 75.3313 67.0892 75.2913 67.1012 75.2193L67.2892 74.0955C67.2892 74.0195 67.2052 73.9475 67.0812 73.9395L54.2833 73.1077C54.2474 73.106 54.2116 73.1124 54.1784 73.1262C54.1452 73.14 54.1155 73.161 54.0913 73.1877Z" fill="#263238"/>
<path d="M55.7105 74.722L55.3706 74.698C55.3026 74.698 55.2506 74.654 55.2586 74.614L55.5146 73.1543C55.5146 73.1143 55.5826 73.0823 55.6506 73.0863L55.9945 73.1063C56.0625 73.1063 56.1105 73.1503 56.1065 73.1943L55.8505 74.65C55.8425 74.694 55.7785 74.726 55.7105 74.722Z" fill="#605DEC"/>
<path opacity="0.3" d="M55.7105 74.722L55.3706 74.698C55.3026 74.698 55.2506 74.654 55.2586 74.614L55.5146 73.1543C55.5146 73.1143 55.5826 73.0823 55.6506 73.0863L55.9945 73.1063C56.0625 73.1063 56.1105 73.1503 56.1065 73.1943L55.8505 74.65C55.8425 74.694 55.7785 74.726 55.7105 74.722Z" fill="black"/>
<path d="M63.9996 75.2571L63.6597 75.2371C63.5917 75.2371 63.5397 75.1931 63.5477 75.1491L63.8036 73.6934C63.8036 73.6494 63.8716 73.6214 63.9436 73.6254L64.2836 73.6454C64.3516 73.6454 64.4036 73.6894 64.3956 73.7334L64.1396 75.1891C64.1436 75.2331 64.0796 75.2611 63.9996 75.2571Z" fill="#605DEC"/>
<path opacity="0.3" d="M63.9996 75.2571L63.6597 75.2371C63.5917 75.2371 63.5397 75.1931 63.5477 75.1491L63.8036 73.6934C63.8036 73.6494 63.8716 73.6214 63.9436 73.6254L64.2836 73.6454C64.3516 73.6454 64.4036 73.6894 64.3956 73.7334L64.1396 75.1891C64.1436 75.2331 64.0796 75.2611 63.9996 75.2571Z" fill="black"/>
<path d="M70.2672 59.3125C70.7471 60.9122 71.203 62.532 71.647 64.1477L72.9867 68.9829L73.1547 69.5829L73.1987 69.7308L73.2187 69.8068V69.8468C73.233 69.8998 73.2504 69.9518 73.2707 70.0028C73.3689 70.2459 73.5038 70.4725 73.6706 70.6747C74.1482 71.1787 74.7014 71.605 75.3104 71.9385C76.7056 72.6935 78.1813 73.2892 79.7097 73.7142L79.4777 75.2739C77.6843 75.1815 75.9177 74.7993 74.2466 74.1421C73.3218 73.7797 72.4698 73.2541 71.731 72.5904C71.3078 72.1981 70.9559 71.7353 70.6911 71.2226C70.6196 71.084 70.5568 70.9411 70.5032 70.7947L70.4592 70.6867L70.4312 70.6107L70.3792 70.4627L70.1672 69.8588C69.6073 68.2591 69.0874 66.6593 68.5955 65.0356C68.1035 63.4118 67.6196 61.8121 67.1797 60.1804L70.2672 59.3125Z" fill="#E4897B"/>
<path d="M69.5487 56.0981C71.1485 56.622 72.8282 61.8531 72.8282 61.8531L67.0531 64.3407C67.0531 64.3407 64.6535 58.4697 65.7173 57.1419C66.7812 55.8141 67.713 55.4982 69.5487 56.0981Z" fill="#605DEC"/>
<path opacity="0.6" d="M69.5487 56.0981C71.1485 56.622 72.8282 61.8531 72.8282 61.8531L67.0531 64.3407C67.0531 64.3407 64.6535 58.4697 65.7173 57.1419C66.7812 55.8141 67.713 55.4982 69.5487 56.0981Z" fill="#FAFAFA"/>
<path d="M66.4661 40.2511C65.4462 38.9913 57.5675 38.0915 57.1476 41.5229C54.348 43.4826 57.0036 48.5458 57.4035 49.8336C55.4718 50.3695 49.2488 52.4971 53.8041 56.6325C58.3594 60.7678 65.1903 60.0639 66.5261 55.7846C67.4619 52.7931 64.4904 47.7859 64.5544 46.0342C64.6184 44.2825 68.2138 42.3908 66.4661 40.2511Z" fill="#263238"/>
<path d="M57.9494 50.4667C57.9348 50.4672 57.9203 50.4642 57.9071 50.4579C57.8938 50.4516 57.8823 50.4423 57.8734 50.4307C57.1495 49.5508 54.6299 44.9276 55.5138 42.7279C55.6509 42.3867 55.8833 42.0921 56.1832 41.8793C56.4832 41.6665 56.8381 41.5446 57.2055 41.5281C57.2184 41.5265 57.2316 41.5274 57.2441 41.531C57.2566 41.5346 57.2683 41.5407 57.2784 41.5489C57.2885 41.5571 57.2968 41.5674 57.3029 41.5789C57.3089 41.5905 57.3125 41.6031 57.3135 41.6161C57.3169 41.6421 57.3101 41.6683 57.2944 41.6893C57.2787 41.7102 57.2554 41.7241 57.2295 41.7281C56.8992 41.7403 56.5793 41.847 56.3078 42.0356C56.0363 42.2242 55.8246 42.4867 55.6978 42.7919C54.8459 44.9196 57.3175 49.4349 58.0254 50.2987C58.038 50.3128 58.0462 50.3303 58.0489 50.3491C58.0516 50.3678 58.0488 50.3869 58.0406 50.404C58.0325 50.4211 58.0195 50.4354 58.0033 50.4451C57.9871 50.4549 57.9683 50.4596 57.9494 50.4587V50.4667Z" fill="#263238"/>
<path d="M63.931 45.8464C64.0203 46.4304 64.3018 46.968 64.7309 47.3741C65.2988 47.918 65.8347 47.5461 65.8867 46.8542C65.9347 46.2343 65.6947 45.2065 65.0229 44.9185C64.351 44.6306 63.847 45.1545 63.931 45.8464Z" fill="#E4897B"/>
<path d="M77.7478 73.2836L80.0194 72.5117L79.6635 75.2433C79.6635 75.2433 78.7676 75.6432 77.6078 74.6354L76.5 73.9275L77.3719 73.4516C77.4914 73.3835 77.6173 73.3272 77.7478 73.2836Z" fill="#E4897B"/>
<path d="M81.6078 72.502L80.9119 74.8896L79.6641 75.2375L80.02 72.51L81.6078 72.502Z" fill="#E4897B"/>
</svg>
