<svg width="26" height="26" viewBox="0 0 26 26" fill="none" xmlns="http://www.w3.org/2000/svg">
<path d="M23.5603 22.4134L17.4243 16.2774C18.8988 14.5072 19.6341 12.2367 19.4772 9.93818C19.3203 7.63967 18.2833 5.49014 16.5819 3.93674C14.8806 2.38334 12.6458 1.54568 10.3425 1.59802C8.03926 1.65035 5.84484 2.58865 4.21577 4.21772C2.5867 5.84679 1.6484 8.04121 1.59606 10.3445C1.54373 12.6477 2.38139 14.8825 3.93479 16.5839C5.48818 18.2853 7.63772 19.3223 9.93623 19.4792C12.2347 19.6361 14.5052 18.9008 16.2754 17.4263L22.4114 23.5623L23.5603 22.4134ZM3.2478 10.5623C3.2478 9.11598 3.67668 7.70219 4.48018 6.49965C5.28369 5.29712 6.42575 4.35985 7.76193 3.80639C9.09812 3.25292 10.5684 3.10811 11.9869 3.39027C13.4054 3.67242 14.7084 4.36887 15.731 5.39154C16.7537 6.41421 17.4501 7.71717 17.7323 9.13566C18.0145 10.5541 17.8696 12.0244 17.3162 13.3606C16.7627 14.6968 15.8254 15.8389 14.6229 16.6424C13.4204 17.4459 12.0066 17.8748 10.5603 17.8748C8.62157 17.8726 6.76286 17.1015 5.39196 15.7306C4.02107 14.3597 3.24996 12.501 3.2478 10.5623Z" fill="#7C7C7C"/>
</svg>
