<svg width="18" height="18" viewBox="0 0 18 18" fill="none" xmlns="http://www.w3.org/2000/svg">
<path d="M0.907099 6.3841C1.2763 5.24327 1.88294 4.19357 2.6871 3.3041C2.75359 3.23062 2.84043 3.17855 2.93658 3.15451C3.03272 3.13048 3.13384 3.13556 3.2271 3.1691L5.1451 3.8551C5.28164 3.90386 5.42715 3.92234 5.57155 3.90927C5.71594 3.8962 5.85577 3.85189 5.98134 3.7794C6.1069 3.70691 6.21521 3.60799 6.29874 3.48949C6.38227 3.37098 6.43904 3.23573 6.4651 3.0931L6.8311 1.0871C6.84878 0.989453 6.89511 0.899271 6.96421 0.828038C7.0333 0.756806 7.12203 0.707746 7.2191 0.687104C8.39063 0.437632 9.60157 0.437632 10.7731 0.687104C10.8702 0.707746 10.9589 0.756806 11.028 0.828038C11.0971 0.899271 11.1434 0.989453 11.1611 1.0871L11.5271 3.0931C11.5532 3.23573 11.6099 3.37098 11.6935 3.48949C11.777 3.60799 11.8853 3.70691 12.0109 3.7794C12.1364 3.85189 12.2763 3.8962 12.4206 3.90927C12.565 3.92234 12.7106 3.90386 12.8471 3.8551L14.7661 3.1691C14.8594 3.13567 14.9606 3.13075 15.0568 3.15497C15.1529 3.17919 15.2397 3.23145 15.3061 3.3051C16.1101 4.19428 16.7168 5.24362 17.0861 6.3841C17.1165 6.4784 17.1181 6.5796 17.0909 6.67485C17.0637 6.77011 17.0087 6.85512 16.9331 6.9191L15.3781 8.2391C15.2676 8.33298 15.1789 8.44975 15.118 8.58133C15.0572 8.7129 15.0257 8.85614 15.0257 9.0011C15.0257 9.14607 15.0572 9.2893 15.118 9.42088C15.1789 9.55245 15.2676 9.66923 15.3781 9.7631L16.9331 11.0831C17.0086 11.1472 17.0633 11.2323 17.0904 11.3275C17.1174 11.4228 17.1156 11.5239 17.0851 11.6181C16.7159 12.7589 16.1093 13.8086 15.3051 14.6981C15.2386 14.7716 15.1518 14.8237 15.0556 14.8477C14.9595 14.8717 14.8584 14.8667 14.7651 14.8331L12.8471 14.1471C12.7106 14.0983 12.565 14.0799 12.4206 14.0929C12.2763 14.106 12.1364 14.1503 12.0109 14.2228C11.8853 14.2953 11.777 14.3942 11.6935 14.5127C11.6099 14.6312 11.5532 14.7665 11.5271 14.9091L11.1611 16.9161C11.1432 17.0136 11.0968 17.1035 11.0277 17.1746C10.9587 17.2456 10.87 17.2945 10.7731 17.3151C9.60158 17.5647 8.39062 17.5647 7.2191 17.3151C7.12203 17.2945 7.0333 17.2454 6.96421 17.1742C6.89511 17.1029 6.84878 17.0128 6.8311 16.9151L6.4651 14.9091C6.43904 14.7665 6.38227 14.6312 6.29874 14.5127C6.21521 14.3942 6.1069 14.2953 5.98134 14.2228C5.85577 14.1503 5.71594 14.106 5.57155 14.0929C5.42715 14.0799 5.28164 14.0983 5.1451 14.1471L3.2271 14.8331C3.13375 14.8665 3.03257 14.8715 2.93641 14.8472C2.84026 14.823 2.75348 14.7708 2.6871 14.6971C1.88304 13.8079 1.2764 12.7586 0.907099 11.6181C0.876615 11.5239 0.874787 11.4228 0.901848 11.3275C0.928908 11.2323 0.983637 11.1472 1.0591 11.0831L2.6141 9.7631C2.72456 9.66923 2.8133 9.55245 2.87415 9.42088C2.935 9.2893 2.96652 9.14607 2.96652 9.0011C2.96652 8.85614 2.935 8.7129 2.87415 8.58133C2.8133 8.44975 2.72456 8.33298 2.6141 8.2391L1.0591 6.9191C0.983637 6.855 0.928908 6.76993 0.901848 6.67469C0.874787 6.57944 0.876615 6.47831 0.907099 6.3841ZM6.9971 9.0011C6.9971 9.53154 7.20781 10.0402 7.58289 10.4153C7.95796 10.7904 8.46667 11.0011 8.9971 11.0011C9.52753 11.0011 10.0362 10.7904 10.4113 10.4153C10.7864 10.0402 10.9971 9.53154 10.9971 9.0011C10.9971 8.47067 10.7864 7.96196 10.4113 7.58689C10.0362 7.21182 9.52753 7.0011 8.9971 7.0011C8.46667 7.0011 7.95796 7.21182 7.58289 7.58689C7.20781 7.96196 6.9971 8.47067 6.9971 9.0011Z" fill="#292929"/>
</svg>
