<svg width="300" height="300" viewBox="0 0 300 300" fill="none" xmlns="http://www.w3.org/2000/svg">
<path d="M38.8976 118.446C44.361 117.269 49.7434 120.744 50.9207 126.206C52.0972 131.67 48.6224 137.054 43.159 138.23C37.6957 139.408 32.3124 135.932 31.1351 130.469C29.9586 125.005 33.4343 119.622 38.8976 118.446Z" fill="#FF6D83"/>
<path d="M252.661 86.8154C258.044 85.6563 263.348 89.079 264.508 94.4621C265.668 99.8451 262.244 105.148 256.861 106.308C251.478 107.467 246.175 104.045 245.015 98.6617C243.855 93.2786 247.279 87.9745 252.661 86.8154Z" fill="#0373E3"/>
<path d="M155.89 25.6067C161.515 24.3957 167.055 27.9726 168.266 33.5958C169.478 39.2198 165.9 44.7623 160.276 45.9734C154.652 47.1853 149.112 43.6074 147.9 37.9834C146.689 32.3594 150.266 26.8177 155.89 25.6067Z" fill="#FFB636"/>
<path d="M105.047 245.82C110.671 244.608 116.211 248.185 117.423 253.809C118.634 259.433 115.058 264.974 109.433 266.186C103.809 267.397 98.2678 263.821 97.0559 258.197C95.8448 252.573 99.4227 247.031 105.047 245.82Z" fill="#0373E3"/>
<path d="M247.352 197.034C253.055 195.806 258.676 199.434 259.904 205.138C261.134 210.842 257.505 216.462 251.8 217.691C246.096 218.92 240.476 215.292 239.247 209.587C238.018 203.883 241.647 198.263 247.352 197.034Z" fill="#BDA3FF"/>
<path d="M173.041 64.0333C220.52 76.7552 248.694 125.557 235.973 173.035C223.251 220.513 174.448 248.688 126.97 235.966C79.4924 223.243 51.3166 174.443 64.0395 126.965C76.7604 79.4862 125.562 51.3114 173.041 64.0333Z" fill="#39BA39"/>
<path d="M135.254 183.817C134.239 184.734 132.676 184.668 131.741 183.669L99.4351 149.169C98.3296 147.788 97.7943 146.049 97.9364 144.3C98.0781 142.549 98.8877 140.919 100.202 139.732C101.517 138.545 103.241 137.89 105.027 137.897C106.815 137.903 108.534 138.572 109.843 139.771L133.126 164.635C133.749 165.3 134.791 165.343 135.467 164.732L184.297 120.64C185.701 119.556 187.472 119.033 189.253 119.176C191.034 119.319 192.696 120.115 193.906 121.41C195.117 122.701 195.787 124.395 195.783 126.151C195.778 127.906 195.1 129.593 193.882 130.877L135.254 183.817Z" fill="white"/>
<path d="M74.3817 47.9234C70.4426 43.2992 64.4642 39.2056 55.3906 37.3223" stroke="#FF6E83" stroke-width="5.28661" stroke-linecap="round"/>
<path d="M55.5343 244.336C57.6663 247.234 60.2533 249.75 60.2533 249.75C60.2533 249.75 67.0033 263 48.7533 253.75C41.5933 250.121 39.2433 251.533 38.8203 254.785" stroke="#BEA4FF" stroke-width="5" stroke-linecap="round"/>
<path d="M255.888 74.921C253.592 85.7102 230.435 76.1923 241.058 60.584C246.009 53.3079 251.556 49.4907 256.922 47.6787" stroke="#FFB636" stroke-width="4.52063" stroke-linecap="round"/>
<path d="M222.32 248.678C224.213 249.689 226.423 250.64 229.001 251.499C235.89 253.795 240.061 256.092 242.531 258.173" stroke="#213262" stroke-width="5" stroke-linecap="round"/>
</svg>
