<svg width="245" height="140" viewBox="0 0 245 140" fill="none" xmlns="http://www.w3.org/2000/svg">
<path d="M82.8518 65.2149L78.2656 37.8965L103.805 47.5135L82.8518 65.2149L78.2656 37.8965L103.805 47.5135L82.8518 65.2149Z" fill="white"/>
<path d="M166.254 67.7781C166.254 67.7781 166.219 67.3596 166.157 66.5707C166.113 65.7818 165.971 64.6338 165.753 63.1902C165.687 62.8312 165.618 62.4506 165.545 62.0524C165.51 61.8553 165.472 61.6515 165.437 61.4437C165.389 61.2392 165.341 61.0279 165.289 60.8133C165.189 60.3834 165.088 59.94 164.981 59.4784C164.849 59.0242 164.718 58.5525 164.579 58.0632C164.001 56.1263 163.223 53.9822 162.153 51.7632C161.081 49.5482 159.721 47.2564 158.043 45.034C156.365 42.8157 154.371 40.6641 152.105 38.7171C150.98 37.7345 149.759 36.8369 148.51 35.967C147.233 35.1322 145.925 34.3223 144.547 33.6319C141.803 32.2234 138.876 31.1214 135.872 30.4384C132.872 29.7473 129.82 29.4018 126.827 29.4591C126.453 29.4733 126.079 29.4861 125.709 29.4996L125.152 29.5178L125.117 29.5185C125.335 29.5158 125.159 29.5199 125.197 29.5199L125.121 29.5273L124.969 29.5408L124.668 29.5671C124.266 29.6029 123.864 29.6386 123.463 29.6744L122.865 29.7277L122.564 29.754C122.47 29.7648 122.39 29.7824 122.304 29.7966C121.622 29.9106 120.944 30.022 120.272 30.1347C119.577 30.2946 118.889 30.4525 118.204 30.6111C115.483 31.315 112.961 32.3044 110.694 33.4598C110.414 33.6076 110.134 33.7554 109.857 33.8998C109.58 34.0476 109.3 34.1813 109.041 34.3506C108.515 34.6712 107.998 34.9877 107.486 35.2975C106.992 35.6255 106.518 35.9737 106.044 36.2977C105.566 36.6115 105.13 36.9739 104.701 37.3188C104.483 37.4915 104.272 37.6609 104.061 37.8263C103.954 37.9106 103.849 37.9916 103.746 38.076L103.451 38.3439C103.061 38.6962 102.68 39.0411 102.31 39.3758C101.932 39.7031 101.611 40.0763 101.275 40.407C101.109 40.5764 100.946 40.7417 100.784 40.9037C100.621 41.0657 100.465 41.231 100.323 41.4038C99.1399 42.7313 98.192 43.9535 97.4651 44.9921C97.1122 45.5199 96.7978 45.9883 96.5205 46.3972C96.2718 46.8197 96.0602 47.1787 95.8877 47.471C95.5414 48.0554 95.3617 48.3652 95.3617 48.3652L95.2197 48.6014C93.5687 51.4008 89.9942 52.3092 87.2434 50.626C84.4887 48.9429 83.5998 45.3053 85.2535 42.5059C85.3576 42.3264 85.4783 42.1468 85.5997 41.9815C85.5997 41.9815 85.8836 41.5975 86.4196 40.8787C86.6895 40.5231 87.0152 40.0797 87.4092 39.5688C87.8284 39.0761 88.3054 38.5092 88.842 37.8755C89.9358 36.6324 91.3334 35.1848 93.0427 33.6602C93.2504 33.4632 93.4719 33.2729 93.7041 33.09C93.9322 32.903 94.1644 32.7134 94.3992 32.5231C94.8735 32.1465 95.3405 31.7308 95.8632 31.3609C96.3825 30.9877 96.9152 30.6037 97.4584 30.2136C97.5931 30.1171 97.7284 30.0193 97.867 29.9201C98.0123 29.8296 98.1542 29.7385 98.2995 29.6467C98.59 29.4652 98.8806 29.281 99.1744 29.0947C99.7668 28.7255 100.362 28.3388 101.008 28.0061C101.645 27.6619 102.285 27.2988 102.953 26.9601C103.632 26.6449 104.317 26.325 105.016 25.999C105.362 25.8296 105.725 25.6947 106.092 25.5516C106.456 25.4099 106.818 25.2668 107.189 25.1224C110.148 24.0129 113.366 23.1558 116.736 22.6786C117.584 22.5835 118.435 22.487 119.29 22.3891C120.186 22.3466 121.086 22.3027 121.992 22.2588C122.103 22.2561 122.225 22.248 122.328 22.248L122.626 22.2548L123.228 22.2683C123.629 22.2777 124.034 22.2858 124.435 22.296L125.159 22.3115L125.82 22.3608C126.256 22.3938 126.695 22.4282 127.134 22.462C130.647 22.7913 134.156 23.5917 137.502 24.7721C140.858 25.9423 144.028 27.5654 146.914 29.4787C148.368 30.4208 149.72 31.4804 151.022 32.5548C152.295 33.6677 153.52 34.7974 154.627 36.0054C156.863 38.3965 158.742 40.9388 160.268 43.4953C161.791 46.0517 162.957 48.6156 163.818 51.0417C164.683 53.4747 165.244 55.7672 165.621 57.8094C165.707 58.3203 165.79 58.8163 165.874 59.2921C165.929 59.7747 165.984 60.239 166.04 60.6831C166.068 60.9051 166.091 61.1231 166.119 61.3377C166.133 61.5489 166.151 61.7602 166.164 61.9647C166.192 62.373 166.219 62.7637 166.247 63.1335C166.31 64.6196 166.327 65.7784 166.289 66.5673C166.265 67.3556 166.254 67.7781 166.254 67.7781Z" fill="white"/>
<path d="M161.672 74.7812L166.26 102.096L140.719 92.48L161.672 74.7812L166.26 102.096L140.719 92.48L161.672 74.7812Z" fill="white"/>
<path d="M78.2676 72.2148C78.2676 72.2148 78.3001 72.6339 78.3618 73.4222C78.4083 74.2111 78.5502 75.3625 78.7691 76.8027C78.8341 77.1658 78.9018 77.5423 78.9747 77.9405C79.0092 78.1409 79.0477 78.3421 79.0855 78.5493C79.1326 78.7571 79.181 78.965 79.2301 79.1796C79.3303 79.6061 79.4344 80.0529 79.5412 80.5145C79.6705 80.9721 79.8032 81.4438 79.9412 81.9297C80.5196 83.8666 81.297 86.0073 82.3682 88.2297C83.4388 90.4447 84.7993 92.7365 86.4775 94.9589C88.1556 97.1806 90.1489 99.3288 92.4154 101.276C93.5398 102.258 94.7616 103.157 96.0106 104.03C97.2875 104.861 98.5955 105.671 99.9765 106.361C102.717 107.769 105.641 108.872 108.648 109.555C111.648 110.248 114.7 110.593 117.694 110.534C118.067 110.52 118.437 110.505 118.811 110.495L119.365 110.474H119.403C119.185 110.477 119.365 110.474 119.323 110.474L119.552 110.453L119.853 110.424L121.057 110.319L121.656 110.266L121.953 110.238C122.05 110.231 122.13 110.21 122.216 110.196C122.898 110.083 123.573 109.97 124.247 109.858C124.943 109.699 125.631 109.54 126.317 109.382C129.036 108.678 131.559 107.688 133.825 106.533C134.106 106.385 134.387 106.237 134.663 106.093C134.94 105.949 135.22 105.812 135.48 105.642C136.006 105.322 136.521 105.005 137.033 104.695C137.532 104.368 138.002 104.019 138.477 103.695C138.954 103.382 139.39 103.019 139.819 102.674C140.033 102.501 140.248 102.333 140.459 102.167C140.567 102.082 140.67 101.998 140.774 101.917L141.068 101.65C141.459 101.297 141.84 100.952 142.214 100.618C142.587 100.286 142.909 99.9166 143.245 99.5859C143.411 99.4172 143.577 99.2511 143.736 99.0858C143.899 98.9272 144.054 98.7619 144.196 98.5891C145.38 97.2616 146.328 96.0401 147.055 95.0014C147.407 94.473 147.726 94.0046 148 93.5963C148.248 93.1739 148.459 92.8108 148.633 92.5219C148.975 91.9375 149.159 91.6277 149.159 91.6277L149.297 91.3915C150.955 88.5921 154.525 87.6871 157.277 89.3669C160.031 91.05 160.92 94.6842 159.27 97.487C159.159 97.6665 159.041 97.846 158.921 98.0121C158.921 98.0121 158.633 98.3954 158.1 99.1141C157.831 99.4698 157.508 99.9132 157.11 100.424C156.695 100.917 156.214 101.484 155.678 102.117C154.584 103.365 153.187 104.808 151.477 106.333C151.269 106.533 151.048 106.72 150.816 106.903C150.588 107.09 150.356 107.28 150.12 107.47C149.643 107.847 149.179 108.262 148.657 108.632C148.141 109.005 147.608 109.389 147.062 109.78C146.926 109.878 146.789 109.974 146.653 110.072C146.511 110.164 146.366 110.256 146.221 110.347C145.934 110.526 145.64 110.713 145.345 110.896C144.753 111.269 144.158 111.653 143.511 111.988C142.874 112.33 142.234 112.695 141.566 113.034C140.892 113.347 140.203 113.668 139.504 113.995C139.158 114.164 138.792 114.298 138.428 114.442C138.065 114.583 137.701 114.724 137.331 114.872C134.376 115.981 131.154 116.836 127.784 117.316C126.94 117.411 126.085 117.506 125.23 117.604C124.334 117.647 123.434 117.689 122.528 117.735C122.417 117.738 122.296 117.746 122.192 117.746L121.894 117.738L121.292 117.724C120.891 117.717 120.489 117.706 120.085 117.696L119.358 117.682L118.701 117.633C118.264 117.601 117.825 117.566 117.385 117.53C113.873 117.203 110.364 116.4 107.018 115.221C103.665 114.051 100.492 112.428 97.6059 110.516C96.1525 109.572 94.7994 108.512 93.4986 107.438C92.2251 106.326 90.9999 105.195 89.8929 103.987C87.6608 101.6 85.775 99.0541 84.256 96.4976C82.7278 93.9412 81.5643 91.378 80.6993 88.9518C79.8357 86.5182 79.2772 84.2257 78.9004 82.1835C78.8135 81.6733 78.73 81.1766 78.6484 80.7008C78.5907 80.2189 78.5336 79.7539 78.4812 79.3098C78.454 79.0885 78.4268 78.8698 78.4016 78.6586C78.385 78.444 78.3718 78.2327 78.3552 78.0282C78.3273 77.6199 78.3001 77.2292 78.2729 76.8594C78.2093 75.3766 78.1934 74.2145 78.2312 73.4263C78.2544 72.6373 78.2676 72.2148 78.2676 72.2148Z" fill="white"/>
<path d="M121.095 44.7441C120.659 44.7441 120.222 44.7556 119.786 44.7772C119.35 44.7988 118.915 44.8319 118.48 44.8751C118.045 44.9189 117.612 44.9729 117.18 45.0384C116.748 45.1032 116.318 45.1794 115.89 45.2658C115.462 45.3529 115.036 45.4501 114.612 45.558C114.189 45.666 113.768 45.7841 113.35 45.913C112.932 46.0426 112.518 46.1816 112.107 46.3315C111.695 46.4813 111.288 46.6405 110.885 46.8106C110.482 46.9807 110.082 47.1609 109.688 47.3505C109.293 47.5408 108.903 47.7406 108.518 47.9498C108.133 48.159 107.753 48.3784 107.379 48.6065C107.004 48.8353 106.635 49.0728 106.272 49.3191C105.909 49.5661 105.552 49.8219 105.202 50.0865C104.851 50.351 104.506 50.6244 104.169 50.9065C103.831 51.1886 103.501 51.4781 103.177 51.7764C102.854 52.0753 102.538 52.3811 102.229 52.6956C101.92 53.0094 101.619 53.3313 101.326 53.6606C101.033 53.9893 100.747 54.3261 100.471 54.6696C100.194 55.0124 99.9249 55.3627 99.6649 55.7197C99.4048 56.0767 99.1534 56.4398 98.9107 56.8089C98.6679 57.1788 98.4344 57.554 98.2102 57.9346C97.9853 58.3159 97.7704 58.702 97.5648 59.0941C97.3585 59.4862 97.1622 59.8823 96.9758 60.2839C96.7894 60.6861 96.6123 61.0917 96.4451 61.502C96.278 61.913 96.1208 62.3274 95.9735 62.7452C95.8269 63.1636 95.6896 63.5854 95.5629 64.0106C95.4362 64.4357 95.3195 64.8636 95.214 65.2949C95.1079 65.7254 95.0117 66.1594 94.9268 66.5947C94.8419 67.0306 94.7669 67.468 94.7026 67.9073C94.6389 68.3473 94.5852 68.788 94.5427 69.2301C94.4996 69.6721 94.4678 70.1148 94.4466 70.5589C94.4247 71.0023 94.4141 71.4464 94.4141 71.8904C94.4141 72.3352 94.4247 72.7793 94.4466 73.2227C94.4678 73.6667 94.4996 74.1094 94.5427 74.5515C94.5852 74.9935 94.6389 75.4342 94.7026 75.8742C94.7669 76.3136 94.8419 76.7509 94.9268 77.1869C95.0117 77.6222 95.1079 78.0561 95.214 78.4867C95.3195 78.9179 95.4362 79.3458 95.5629 79.771C95.6896 80.1962 95.8269 80.618 95.9735 81.0364C96.1208 81.4541 96.278 81.8685 96.4451 82.2795C96.6123 82.6898 96.7894 83.0954 96.9758 83.497C97.1622 83.8992 97.3585 84.2954 97.5648 84.6875C97.7704 85.0789 97.9853 85.4656 98.2102 85.8469C98.4344 86.2276 98.6679 86.6028 98.9107 86.9726C99.1534 87.3418 99.4048 87.7049 99.6649 88.0619C99.9249 88.4189 100.194 88.7685 100.471 89.112C100.747 89.4555 101.033 89.7916 101.326 90.1209C101.619 90.4503 101.92 90.7722 102.229 91.086C102.538 91.4005 102.854 91.7062 103.177 92.0045C103.501 92.3035 103.831 92.593 104.169 92.8751C104.506 93.1572 104.851 93.4305 105.202 93.6951C105.552 93.9596 105.909 94.2154 106.272 94.4617C106.635 94.7087 107.004 94.9463 107.379 95.1751C107.753 95.4032 108.133 95.6225 108.518 95.8317C108.903 96.041 109.293 96.2407 109.688 96.431C110.082 96.6207 110.482 96.8009 110.885 96.9709C111.288 97.1403 111.695 97.3003 112.107 97.4501C112.518 97.5999 112.932 97.7389 113.35 97.8679C113.768 97.9974 114.189 98.1155 114.612 98.2235C115.036 98.3315 115.462 98.4287 115.89 98.5157C116.318 98.6021 116.748 98.6777 117.18 98.7432C117.612 98.8086 118.045 98.8626 118.48 98.9065C118.915 98.9497 119.35 98.9827 119.786 99.0043C120.222 99.0259 120.659 99.0367 121.095 99.0367C121.532 99.0367 121.968 99.0259 122.405 99.0043C122.84 98.9827 123.276 98.9497 123.711 98.9065C124.145 98.8626 124.578 98.8086 125.01 98.7432C125.442 98.6777 125.872 98.6021 126.3 98.5157C126.729 98.4287 127.155 98.3315 127.578 98.2235C128.002 98.1155 128.423 97.9974 128.84 97.8679C129.258 97.7389 129.673 97.5999 130.084 97.4501C130.495 97.3003 130.902 97.1403 131.306 96.9709C131.709 96.8009 132.108 96.6207 132.503 96.431C132.898 96.2407 133.288 96.041 133.673 95.8317C134.058 95.6225 134.438 95.4032 134.812 95.1751C135.187 94.9463 135.555 94.7087 135.918 94.4617C136.282 94.2154 136.639 93.9596 136.989 93.6951C137.34 93.4305 137.684 93.1572 138.022 92.8751C138.359 92.593 138.69 92.3035 139.013 92.0045C139.337 91.7062 139.653 91.4005 139.962 91.086C140.27 90.7722 140.571 90.4503 140.865 90.1209C141.158 89.7916 141.443 89.4555 141.72 89.112C141.997 88.7685 142.266 88.4189 142.526 88.0619C142.786 87.7049 143.037 87.3418 143.28 86.9726C143.522 86.6028 143.756 86.2276 143.98 85.8469C144.205 85.4656 144.42 85.0789 144.626 84.6875C144.832 84.2954 145.028 83.8992 145.215 83.497C145.402 83.0954 145.578 82.6898 145.745 82.2795C145.912 81.8685 146.07 81.4541 146.217 81.0364C146.364 80.618 146.501 80.1962 146.627 79.771C146.754 79.3458 146.871 78.9179 146.977 78.4867C147.083 78.0561 147.179 77.6222 147.264 77.1869C147.349 76.7509 147.423 76.3136 147.488 75.8742C147.551 75.4342 147.605 74.9935 147.648 74.5515C147.691 74.1094 147.723 73.6667 147.744 73.2227C147.766 72.7793 147.776 72.3352 147.776 71.8904C147.776 71.4464 147.766 71.0023 147.744 70.5589C147.723 70.1148 147.691 69.6721 147.648 69.2301C147.605 68.788 147.551 68.3473 147.488 67.9073C147.423 67.468 147.349 67.0306 147.264 66.5947C147.179 66.1594 147.083 65.7254 146.977 65.2949C146.871 64.8636 146.754 64.4357 146.627 64.0106C146.501 63.5854 146.364 63.1636 146.217 62.7452C146.07 62.3274 145.912 61.913 145.745 61.502C145.578 61.0917 145.402 60.6861 145.215 60.2839C145.028 59.8823 144.832 59.4862 144.626 59.0941C144.42 58.702 144.205 58.3159 143.98 57.9346C143.756 57.554 143.522 57.1788 143.28 56.8089C143.037 56.4398 142.786 56.0767 142.526 55.7197C142.266 55.3627 141.997 55.0124 141.72 54.6696C141.443 54.3261 141.158 53.9893 140.865 53.6606C140.571 53.3313 140.27 53.0094 139.962 52.6956C139.653 52.3811 139.337 52.0753 139.013 51.7764C138.69 51.4781 138.359 51.1886 138.022 50.9065C137.684 50.6244 137.34 50.351 136.989 50.0865C136.639 49.8219 136.282 49.5661 135.918 49.3191C135.555 49.0728 135.187 48.8353 134.812 48.6065C134.438 48.3784 134.058 48.159 133.673 47.9498C133.288 47.7406 132.898 47.5408 132.503 47.3505C132.108 47.1609 131.709 46.9807 131.306 46.8106C130.902 46.6405 130.495 46.4813 130.084 46.3315C129.673 46.1816 129.258 46.0426 128.84 45.913C128.423 45.7841 128.002 45.666 127.578 45.558C127.155 45.4501 126.729 45.3529 126.3 45.2658C125.872 45.1794 125.442 45.1032 125.01 45.0384C124.578 44.9729 124.145 44.9189 123.711 44.8751C123.276 44.8319 122.84 44.7988 122.405 44.7772C121.968 44.7556 121.532 44.7441 121.095 44.7441Z" fill="white"/>
<path d="M131.612 62.956C131.635 64.2086 131.459 64.8348 131.084 64.8348C130.755 64.8348 130.444 64.5669 130.15 64.0304C129.763 63.3251 129.341 62.8116 128.885 62.489C128.074 61.9403 126.895 61.6656 125.345 61.6656C124.452 61.6656 123.735 61.8384 123.196 62.1839C122.75 62.4721 122.474 63.8333 122.368 66.2683C122.358 66.5436 122.352 68.0014 122.352 70.6415C122.352 71.7159 122.34 72.9577 122.315 74.3668L122.262 76.5157C122.262 78.2474 122.451 79.4062 122.827 79.9926C122.956 80.2194 123.42 80.4462 124.218 80.6729C124.863 80.8767 125.186 81.2709 125.186 81.8553C125.186 82.4276 124.845 82.7138 124.165 82.7138C123.825 82.7138 123.461 82.6841 123.074 82.6247C122.029 82.4937 121.359 82.4276 121.066 82.4276C120.666 82.4276 120.214 82.4519 119.71 82.5005L117.704 82.6787C116.988 82.6787 116.629 82.3979 116.629 81.8364C116.629 81.4551 117.004 81.0907 117.754 80.7431C118.599 80.349 119.146 79.3286 119.394 77.6819C119.604 76.3071 119.71 74.4613 119.71 72.1451C119.71 71.2853 119.692 69.9956 119.657 68.2767C119.621 66.5565 119.604 65.2661 119.604 64.4056C119.604 63.2232 119.509 62.4714 119.322 62.1488C119.087 61.7547 118.535 61.5576 117.667 61.5576C116.094 61.5576 114.868 61.7911 113.987 62.2568C113.53 62.4964 113.043 62.9384 112.527 63.5823C112.127 64.0594 111.734 64.2976 111.347 64.2976C110.772 64.2976 110.484 64.0891 110.484 63.6714C110.484 63.2772 110.56 62.8237 110.713 62.3108C110.877 61.7263 110.971 61.2958 110.994 61.0204C111.016 60.5548 111.063 59.8502 111.134 58.9067C111.205 58.3452 111.493 58.0645 111.997 58.0645C112.103 58.0645 112.496 58.3634 113.177 58.9607C113.858 59.5586 114.592 59.8569 115.38 59.8569L127.704 59.784C128.291 59.784 129.037 59.4081 129.941 58.6556C130.386 58.2851 130.779 58.0995 131.119 58.0995C131.437 58.0995 131.596 59.2522 131.596 61.5576V62.2919C131.596 62.3877 131.602 62.5011 131.612 62.632C131.612 62.7994 131.612 62.9074 131.612 62.956Z" fill="#03045E"/>
</svg>
